<mxfile host="app.diagrams.net" agent="Mozilla/5.0 (Macintosh; Intel Mac OS X 10_15_7) AppleWebKit/537.36 (KHTML, like Gecko) Chrome/135.0.0.0 Safari/537.36 OPR/120.0.0.0" version="28.0.7">
  <diagram name="Page-1" id="gEorXz8NsjWWRXxecyHy">
    <mxGraphModel dx="5245" dy="3398" grid="1" gridSize="10" guides="1" tooltips="1" connect="1" arrows="1" fold="1" page="1" pageScale="1" pageWidth="850" pageHeight="1400" math="0" shadow="0">
      <root>
        <mxCell id="0" />
        <mxCell id="1" parent="0" />
        <mxCell id="PvC7trLtkiBjT1pMfxPR-1" value="&lt;p style=&quot;text-align: justify; margin: 0px; font-variant-numeric: normal; font-variant-east-asian: normal; font-variant-alternates: normal; font-size-adjust: none; font-kerning: auto; font-optical-sizing: auto; font-feature-settings: normal; font-variation-settings: normal; font-variant-position: normal; font-variant-emoji: normal; font-stretch: normal; line-height: normal;&quot; class=&quot;p1&quot;&gt;&lt;font style=&quot;font-size: 34px;&quot; face=&quot;Times New Roman&quot;&gt;&lt;font style=&quot;&quot;&gt;&lt;font style=&quot;&quot;&gt;&lt;font style=&quot;&quot;&gt;&lt;font style=&quot;&quot;&gt;&lt;b style=&quot;&quot;&gt;Cluster 4 description:&lt;/b&gt;&amp;nbsp;&lt;/font&gt;&lt;/font&gt;&lt;/font&gt;&lt;/font&gt;&lt;span style=&quot;background-color: transparent; color: light-dark(rgb(0, 0, 0), rgb(255, 255, 255)); text-align: left;&quot;&gt;The individuals express how physical health issues and emotional struggles such as depression, anxiety, and loss of motivation significantly impact their daily lives, relationships, and work, while also highlighting the complex role of supportive friends and family, as well as persistent feelings of inadequacy and communication challenges within familial contexts.&amp;nbsp;&lt;/span&gt;&lt;/font&gt;&lt;font style=&quot;background-color: transparent; color: light-dark(rgb(0, 0, 0), rgb(255, 255, 255)); font-family: &amp;quot;Times New Roman&amp;quot;; font-size: 34px;&quot;&gt;&lt;span style=&quot;background-color: transparent; color: light-dark(rgb(0, 0, 0), rgb(255, 255, 255)); text-align: left;&quot;&gt;(age=28&lt;/span&gt;&lt;/font&gt;&lt;span style=&quot;text-align: left; font-family: &amp;quot;Times New Roman&amp;quot;; font-size: 34px; background-color: rgb(248, 249, 250); color: rgb(32, 33, 34);&quot;&gt;±6&lt;/span&gt;&lt;font style=&quot;background-color: transparent; color: light-dark(rgb(0, 0, 0), rgb(255, 255, 255)); font-family: &amp;quot;Times New Roman&amp;quot;; font-size: 34px;&quot;&gt;&lt;span style=&quot;background-color: transparent; color: light-dark(rgb(0, 0, 0), rgb(255, 255, 255)); text-align: left;&quot;&gt;, n=14)&lt;/span&gt;&lt;/font&gt;&lt;/p&gt;" style="rounded=1;whiteSpace=wrap;html=1;fillColor=none;align=left;strokeWidth=2;shadow=1;" vertex="1" parent="1">
          <mxGeometry x="-1640" y="180" width="1560" height="190" as="geometry" />
        </mxCell>
        <mxCell id="PvC7trLtkiBjT1pMfxPR-2" value="&lt;p style=&quot;text-align: justify; margin: 0px; font-variant-numeric: normal; font-variant-east-asian: normal; font-variant-alternates: normal; font-size-adjust: none; font-kerning: auto; font-optical-sizing: auto; font-feature-settings: normal; font-variation-settings: normal; font-variant-position: normal; font-variant-emoji: normal; font-stretch: normal; line-height: normal;&quot; class=&quot;p1&quot;&gt;&lt;font style=&quot;&quot; face=&quot;Times New Roman&quot;&gt;&lt;font style=&quot;&quot;&gt;&lt;font style=&quot;&quot;&gt;&lt;font style=&quot;&quot;&gt;&lt;font style=&quot;&quot;&gt;&lt;b style=&quot;font-size: 34px;&quot;&gt;Cluster 1 description:&lt;/b&gt;&lt;font style=&quot;font-size: 35px;&quot;&gt;&amp;nbsp;&lt;/font&gt;&lt;/font&gt;&lt;/font&gt;&lt;/font&gt;&lt;/font&gt;&lt;/font&gt;&lt;span style=&quot;background-color: transparent; color: light-dark(rgb(0, 0, 0), rgb(255, 255, 255)); text-align: left;&quot;&gt;&lt;font style=&quot;font-size: 35px;&quot; face=&quot;Times New Roman&quot;&gt;The individuals express a range of emotional states from mild anxiety and stress related to academic or work pressures to generally positive moods, emphasize the significance of maintaining healthy family relationships and having supportive friends or mentors, acknowledge personal traits such as being easily irritable, argumentative, or overly accommodating, and outline specific future plans involving career development, returning to hometowns, or improving personal skills like research capabilities or education.&amp;nbsp;&lt;/font&gt;&lt;/span&gt;&lt;font style=&quot;background-color: transparent; color: light-dark(rgb(0, 0, 0), rgb(255, 255, 255)); font-family: &amp;quot;Times New Roman&amp;quot;; font-size: 34px;&quot;&gt;&lt;span style=&quot;background-color: transparent; color: light-dark(rgb(0, 0, 0), rgb(255, 255, 255)); text-align: left;&quot;&gt;(age=26&lt;/span&gt;&lt;/font&gt;&lt;span style=&quot;text-align: left; font-family: &amp;quot;Times New Roman&amp;quot;; font-size: 34px; background-color: rgb(248, 249, 250); color: rgb(32, 33, 34);&quot;&gt;±6&lt;/span&gt;&lt;font style=&quot;background-color: transparent; color: light-dark(rgb(0, 0, 0), rgb(255, 255, 255)); font-family: &amp;quot;Times New Roman&amp;quot;; font-size: 34px;&quot;&gt;&lt;span style=&quot;background-color: transparent; color: light-dark(rgb(0, 0, 0), rgb(255, 255, 255)); text-align: left;&quot;&gt;, n=10)&lt;/span&gt;&lt;/font&gt;&lt;/p&gt;" style="rounded=1;whiteSpace=wrap;html=1;fillColor=none;align=left;strokeWidth=2;shadow=1;" vertex="1" parent="1">
          <mxGeometry x="-1640" y="-90" width="1560" height="250" as="geometry" />
        </mxCell>
        <mxCell id="PvC7trLtkiBjT1pMfxPR-4" value="" style="shape=image;verticalLabelPosition=bottom;labelBackgroundColor=default;verticalAlign=top;aspect=fixed;imageAspect=0;image=data:image/png,iVBORw0KGgoAAAANSUhEUgAADx4AAAfNCAYAAAD5xQprAAAAOnRFWHRTb2Z0d2FyZQBNYXRwbG90bGliIHZlcnNpb24zLjEwLjMsIGh0dHBzOi8vbWF0cGxvdGxpYi5vcmcvZiW1igAAAAlwSFlzAAAuIwAALiMBeKU/dgABAABJREFUeJzs3XeYbWdZN+Dfk54QAiEhJCAtdKT3TuhIV2mKSESKn6CAogIioIIKIkgTFBRQVJAqgjSRIkU6SAchlJDQCQmBJCR5vj/WjpxM9tozs2efmT1z7vu69kXmfdd632et2bMynJzffqq7AwAAAAAAAAAAAAAAAAAA7Nn22uoCAAAAAAAAAAAAAAAAAACArSd4DAAAAAAAAAAAAAAAAAAACB4DAAAAAAAAAAAAAAAAAACCxwAAAAAAAAAAAAAAAAAAQASPAQAAAAAAAAAAAAAAAACACB4DAAAAAAAAAAAAAAAAAAARPAYAAAAAAAAAAAAAAAAAACJ4DAAAAAAAAAAAAAAAAAAARPAYAAAAAAAAAAAAAAAAAACI4DEAAAAAAAAAAAAAAAAAABDBYwAAAAAAAAAAAAAAAAAAIILHAAAAAAAAAAAAAAAAAABABI8BAAAAAAAAAAAAAAAAAIAIHgMAAAAAAAAAAAAAAAAAABE8BgAAAAAAAAAAAAAAAAAAIngMAAAAAAAAAAAAAAAAAABE8BgAAAAAAAAAAAAAAAAAAIjgMQAAAAAAAAAAAAAAAAAAEMFjAAAAAAAAAAAAAAAAAAAggscAAAAAAAAAAAAAAAAAAEAEjwEAAAAAAAAAAAAAAAAAgAgeAwAAAAAAAAAAAAAAAAAAETwGAAAAAAAAAAAAAAAAAAAieAwAAAAAAAAAAAAAAAAAAETwGAAAAAAAAAAAAAAAAAAAiOAxAAAAAAAAAAAAAAAAAAAQwWMAAAAAAAAAAAAAAAAAACCCxwAAAAAAAAAAAAAAAAAAQASPAQAAAAAAAAAAAAAAAACACB4DAAAAAAAAAAAAAAAAAAARPAYAAAAAAAAAAAAAAAAAAJLss9UFAAAAAAA7S1XdLMk9ktwwydFJDklyZpKTk3w1yaeTvLu7n7vMewAsm6o6KMkxSW6b5AZJLpLkiAwfNPvdDM++9yZ5WXd/YovK3HJVdZ0kD+3uY7e6lnMsY01wjp3+bFnW61vWumapqgOTnN7dZ2/inldOcucMv/dfIclFkxyU5IdJvjV5vT/JW5K8vbt/sFm1AQAAAAAAwE5V3b3VNQAAAAAAO0BV/XSS5yW5yRoO/353X3AZ9wBYNlV1cJLfSPLIJBda42nvTPLo7n7PbitsiVRVZbg3d0ry9CTP6e4/UBOM2+nPlmW9vmWta5ZJ4PihSX43yTO6+4mbsOcdkzw2Qyh7rU5J8swkf9Hd39sthQEAAAAAAMAeQPAYAAAAANiwqvrVJM9Nsu8uw6cn+UaSC0xeu1p3KHgz9oBzVNXVktw6SSd5y7J0GmTPU1W3SPLPGTphnuPbSf4qQ3fHbyY5NMmNkjw4QzfIc3SSpyV5THefsSkFz6mqLpvksxk6fW7UmUku1d1f22k1waLs9GfLsl7fstY1o979kzwoyWOSHDkZ/sPufsJu3PNCSf4uyV03sMxJSe7X3a9dSFEAAAAAAACwhxE8BgAAAAA2pKrum+RF+Ukw64wkD0nyou4+c3LM9ZI8NclNJ8esKxS8GXvAOarqGUl+c5ehztDd7xFbVBJ7qKr6nSR/mmTvXYb/PckvTevkWFV7J3l8kpVddd+c5Oe6+9TdVetGVdVzk/zagpZ7ZXfffaOLLGNNsAg7/dmyrNe3rHWN1LpPkvtn6Dh88RXTuy14XFWXTvIfSY5ewHKd5A+6+0kLWAsAAAAAAAD2KILHAAAAAMDcquoKSf4nyX67DP9Wdz99yrE3TPKeyZdrDgVvxh5wjqr65SQvHpl+SHf/1WbWw56rqh6TZGVY6i1J7tjdP17l3Ecm+fMVw29Pcrtl7E5aVRdO8uUkBy5oyVt299s2ssAy1gSLsNOfLct6fcta15S99k5ynwyB57Hw724JHlfVYUk+mORSC1566v9vAAAAAAAAAMbttfohAAAAAACjnp1zB4JPTfLcaQd293uTfG5J94BzPHrG3G9sWhXs0arqQTlvQO2bSe6zWkAtSbr7qUletWL4mCR/vZACF++hWVzA91MLCvguY02wITv92bKs17esde2qBvdK8okMH8CyiI7D69l/ryT/lMWHjpPkz6vqdrthXQAAAAAAANixBI8BAAAAgLlU1c2T3HrF8Nu7+7QZp411kt2yPWCFWUGbTQ3hsGeqqmsmedaUqT/o7m+tY6mHJfnRirFjq+oX5y5uN6iqg5I8ZIFLPmejCyxjTbBRO/3ZsqzXt6x17aqq7prko0lemuSKG11vTr+X5LYrxj45Gb9RkqOS7J/kAkkuk+T2GbpAf2ENa++d5G+qav+FVQsAAAAAAAA7nOAxAAAAADCv+00Z+8Qq5/xDkrOXbA/Y1ZfmnIMNq6oDkrwk5+7yniTHJ/m79azV3ccnef6Uqb+qqovMV+Fu8StJDlvAOqcn+des8z6NWMaaYG47/dmyrNe3rHXtUt9NquoDSf4lyXFJHpDkekmOTXLyPGvOWccRSR69y9D3kty7u6/S3U/p7vd299e7+4zuPrm7v9jdb+ru380QlD42ybdX2eYSSX5tt1wAAAAAAAAA7ECCxwAAAADAuk2CFD8/ZepLs87r7q8mOSjJqgGJzdgDpnjyjLlnb1oV7Kl+O8mVp4w/r7vPnGO9aV02L5DkiXOstXBVtXeS39pl6IHdXXO+Dujuu3X3aTutJliAnf5sWdbrW9a6znGDJH+f5KKTZ9XfdvcHuvvFSX5/zjXn8fgk55/88zeSXK+7X7aWE7v7zEm910nyP6sc/oj5SwQAAAAAAIA9S3X3VtcAAAAAAGwzVXWjJO+eMnWv7v6X7bIHTFNVT07yyPzkwzvPSvLnSR7T/lCd3aSqLpih4+QFp0xfuru/NOe6780QLtvV2Ul+urs/M8+ai1JV98jQaTNJTshwnWdsYUlLWRNsxE5/tizr9S1rXevY5+gkXxiZ/sPufsKC9rlQkhMzdIU+I8mNuvtDc651VJIPJzlyxmE/3d2fmmd9AAAAAAAA2JPoeAwAAAAAzOMaI+OnbLM9SFJV16iqnryO3ep6tlp3/16G999vZ+h8evXufrTQMbvZwzI9oPaReQNqE6+cMrZXkt/ZwJqLsmsNT1+SgO8y1gQbsdOfLct6fcta11qduOD1xtw7Q+g4Sf5o3tBxknT3iUl+ZZXDbjvv+gAAAAAAALAnETwGAAAAAOZx9ZHxH2+zPRg8eqsLWDbd/fHuflp3P727P7nV9bCzVVUluf/I9Js3uPxbRsZ/qaoO3+Dac6uqmye57uTLk5L89VbVco5lrAk2Yqc/W5b1+pa1rvXo7h8taq1V3G/yv59N8uSNLtbdb0zy/hmHXGajewAAAAAAAMCeQPAYAAAAAJjHJUbGz9xme+zxquqySX5+q+uAPdwtMv7Me+cG1/6fJN+bMr5fhk6TW2XX7pzP6e5l6Ga/jDXBRuz0Z8uyXt+y1rVUquqoJNebfPnY7l7U7/jPmzF3xIL2AAAAAAAAgB1N8BgAAAAAmMchO2QPkt9NsvdWFwF7uHvMmJvVuXFV3d1JPjgy/UsbWXteVXXlJHeYfPmjJM/Yijp2tYw1wQLs9GfLsl7fsta1bG4y+d//6e5XLHDdd8yYO3SB+wAAAAAAAMCOJXgMAAAAAMxD8HgHmHSa++WtrgPIrUbGv9bd317A+h8ZGb9uVR2+gPXX65FJavLP30hyj6q6XlXttwW1LHNNsFE7/dmyrNe3rHUtm3OCxwv9oIfu/mKS74xM62QPAAAAAAAAayB4DAAAAADM43w7ZI893SOS7L/VRcCerKouluRyI9OfWdA2Y+vsleR2C9pjTSYfeHCfXYYuleQ5Sd6X5OSqendV/WlV3baqDtxTa4KN2unPlmW9vmWta0l9Jcl/Jfmn3bD2WMB7LJAMAAAAAAAA7ELwGAAAAACYx2b82aI/v9yNquqCSX5tq+sAcuMZc59b0B6fnTF3kxlzu8PDkox1Ed4/yY2SPCrJm5J8t6peV1X3nzyz9qSaYKN2+rNlWa9vWetaOt39F919s+4+bTcs/92R8U/shr0AAAAAAABgx9lnqwsAAAAAAOZXVedLcockxyS5ZpJLJjk0yb5Jvp/hL91/Icl/J3lnkrd3d29wz/2zm/9scTP2mLLnpt/LkTpqsv+tklwnyeWTXCzJ+TME485IclqSU5N8Y/L62qS2Lyb5dJLPdvcZq2z18Mma20JVXT3JnZJcP8mVM3xvLpDkx0l+lOH787UM3fM+neSTk9cXu/vsGesemeSKayzj6929qG6FW25Z3vPkKjPmvrKgPb46Y+46C9pjVVV1cJIHr+OUA5LccfJ6TlW9LMlTu3thwbFlrAkWZKc/W5b1+pa1rj3NviPjH9rUKgAAAAAAAGCbEjwGAAAAgG2oqi6SofviA5Ocb+SwwyavyyW5/WTsc1X1zCTP6+6z1rjXkRm6PZ7zulaGDpDTvG3Izc70K939os3eY8xm3stV6rhAkt9I8oAMAdAxB0xeF8wQSJ7mzKq6Rnd/cpf1K8kNkvzs5HXZkXNfWFUvnLH/Lbr77TPmF6qqbpvkj5Ncb+SQvTPcj0OTXGbK/GlVdfCM79Htk8y63l29OMmxazmwql6U5H5rXHde7+juY9Z70rK85/k/s0Jqs8Jl63FCkrMy/LysdLWq2nuTvqcPzPDsmscBGX6m7ltVz0vy2O7+3g6taVubdII+xXNiy+30Z8uyXt+y1rWnucCUsZOSvH+T6wAAAAAAAIBtSfAYAAAAALaZqvqFJM/JELSc5ocZOpVeJOft9nX5JM9Ocs+q+oXuPmGVvV6R5Oc3VvFsm7HHjL037V6uUscDkjxlRh3J0IH2+xm6FB+S6WGTc+yza71VddUkb0py1Lw1braq2ifJczMEsac5OUOA5JwQ9n4jxx2QZFZS/b+TPD3JNZJcPcmF1l3s1lmtq/V5LMt7nnO5woy5by5ig+4+q6q+l+TwKdP7JblEkuMWsdeYyc/0wxew1F5Jfj3JHavqZ7v7Izuppu2iqg7L8AEWl5v872V3+fpCGT5A5Dz3YdK9/l5JbpzhmXKhDF3rv5nhefyvSV49q1M9a7bTny3Len3LWtee5ogpY6/t7h9veiUAAAAAAACwDQkeAwAAAMA2UlWPT/KEKVPfTPKXSf6hu4+fHLtXhiDlI5Lcd8XxN0vyoaq6SXd/YcaWpyeZNn/JTP/zxRMyBIhmOXkL9jiPLbiX02o4IEMX3XtOmT41yd8leVWS93b36buct1+SKyW5bpI7JrldkgNnbHVQhkDprvVdLEMod6VvJjllxlqr3fsNm9zvf8x578v3kzw5yUu7+7hdjt87yRWTHJOhI/F11rpXd38myW/tstbFM3RY3p3dis/McC0/mPzzmH0zhIfGPGU9my7De56pLjpj7jsL3OfbmR5SS4Zu4bs7pHa+DKH2/TI8kw7OENid1yWTvLuq7tndr9tBNS2lqnpwkpvnJ0HjC844/NtJPrbi/JtmeH7fcMrx+2XoTnq5DM+bj08+3OCTG698j7bTny3Len3LWtceY/K73LSOx/+w2bUAAAAAAADAdiV4DAAAAADbRFU9PNNDg+9JcvfuPnHXwUm3wI8k+eWqemeSv8m5O78emeR1VXWt7p4aJu3u+4zU8qUMAauV7tPdb595IVuwx5S1H55NvpdTatgvyeuS3GrK9FuTPKC7vzTt3O4+I0Oo62NJXlBVF84QQj125Pj3ZQiK7br/2zOEyFb6ve5+0VquYTf6tZw3dHxCkptNC7p291lJPjl5PaeqfiPJM+fZuLu/OnnvLdK3MgSp/zPJ/yQ5flLzTFX1pCSPGZl+UXf/x1oLWIb3POdVVQdmdoDzpAVu970Zcz+1wH2m6u7vJ7nmOV9Pug1fLMmlJ+PXSXLrTO9SOebAJK+oqrt295t2Qk1LrDOEtD+R4YMsbpLxkPYbzulYXFUHZfhggweuY6+rZghw37q7Pzh3xXuwnf5sWdbrW9a69kBXmzL28fX83gQAAAAAAAB7uo18ajsAAAAAsEmq6vpJ/nzK1BeT3GllaHCl7n5Bkr+eMnXFJI/beIXbxxLdy+dnPHR8h7HQ8UhN38rQSXLbq6pDkjxpytT919Fd99mZ3kV7q9ysux/R3f/W3V9eY+j4akl+Z2T6m0l+e62bL9F7nvO6yCrzpy5wr1lrjXXN3G26+8zJz8Pbu/vpkw+hODLJ9ZM8N2sP6O2f5FWTn5kdV9Oy6O6/6e6HdvevdPfNk1w3QwB5mtcnSVUdleS9GULHJ2b48INrZ+hEevBkjb8dWeMCSV5WVQcv7CL2LDv92bKs17esde1pbjNl7KmbXgUAAAAAAABsY4LHAAAAALDkqqqS/FWSfaZMP7C7Z3U829Wjk0zrTPrwqlpPN8dta1nuZVXdM8kvT5n6apKfnXQ0Xpfu/kyS49d73hK6c87bLfC49XQO7e5O8neLLGoDvjn53qxZVe2VIZi+78ghv9Hd313jWkvxnl+Lqjq2qnobvd6+gMteLVS5R4XUevD+7v71JBdP8nsZgvarOSjJq6vq0D2hpmXQ3R9OMq0b8ZlJ3lhVl0ry7iRXSfInSS7b3X/Y3R/u7pO7+9Tu/mB3PyDJE0e2OTrJgxZR7x74fNnpz5Zlvb5lrWtPc8cVX38syUu2ohAAAAAAAADYrgSPAQAAAGD53TnJtaaMv6e7/3Oti3T3SUleNWXqgCS/Ol9p286W38uqOjDjXdf+oLtPWWsdU7x1A+cuiztMGfvIHOu8KMmqnYU3wbvnOOdhSa43Mvdv3f0v61hry9/zzHTAKvPr/hCCGU6bMXfQAvdZiO7+QXc/JckVkjwnydmrnHJ0kmfuaTVtscOmjL0rwwcdvHEyf/vu/v3uHuuOnAzB42+PzD14YyXusXb6s2VZr29Z69pjVNV1k1x2xfBvdfdqz2sAAAAAAABgF4LHAAAAALD8HjIyPk/nrjePjN9jjrW2o2W4l7+SoWvmSl9M8g9z1LGrt2zw/GVwySlj6w4Qd/cJGQJrfzDP+Qv0rvUcPOkS+scj0ycn+X/r3H8Z3vOMWy2ktsj37qy19lvgPgvV3Sd190OT3DLJ11Y5/D5VdaM9sabNVlUHJ7nilKk3ZviQgoskuXV3r/rvpe4+PckbRqYvX1VHzl3onmunP1uW9fqWta49yUNXfP2P6/mgFQAAAAAAAGAgeAwAAAAAS6yqDs8QbJrmjXMs+YGR8WtO9tqxluhejgVBX7mAbmz/scHzl8GFp4xdZp6Fuvtvu/uJ3d0brGkj1hU8TvK8JOcbmXtUd68Wcvw/S/SeZ07dvciQ2pkz5vZd4D67RXe/I8k1k3xwxmGV5NGbU9Fy1rSJbpJk7ynjN0hyoyR37+6xZ8Y0n5gxd/X1FMbqdvqzZVmvb1nr2imq6qJJ7rnL0IlJfmOLygEAAAAAAIBtTfAYAAAAAJbbrZLsM2X8O9193Bzr/W+SsRDmNedYbzvZ8ntZVVdOcuWRc14zRw3n0t3fSPKwDF1+T9zoelvkB1PGrlVV2+39ef8k+3b3+9d6QlXdN8ntRqb/K0MoeT22/D3Pqk6dNVlVi/zvODVj7kcL3Ge36e5vJblFkg/NOOz2VTXtAwx2i2WsaZPcamT8rkme0N1vXed6354xd6F1rsXOf7Ys6/Uta117ij/OT7pOd5L7d/f3trAeAAAAAAAA2LYEjwEAAABgud14ZPzz8yzW3T/OeLjn8vOsuY0sw728w8j4aUnWHFCdpbufOeny+41FrLcFvj4y/o9VddimVrIB3X12d8/qRnguk47BTxuZPj3JA+fo3LwM7/n1rP+i7q5t9Dpmo9ecVUJqmd5Rdl7TQujnOGWB++xW3f2DJHdK8s2RQ/ZJcufNq2g5a9oEtxkZ/1SSp8yx3ukz5g6aY71z2QOfLzv92bKs17esde14VXXVJMfuMvTE7n7jFpUDAAAAAAAA257gMQAAAAAst6uMjH95A2uOBaMuuoE1t4NluJfXHRn/9HpCqjvcu0bGr5Tkg1V1zOaVsqmekeTwkbk/7u7PzrHmMrznmW1ah+9dzQqWrdeswNu2Cql199eT/PqMQ669WbWcYxlr2l2q6ogkVxuZfvzkQwrW68AZc6uFOTmvnf5sWdbrW9a6drSq2jvJ3+Ynf/fhTUmesGUFAQAAAAAAwA4geAwAAAAAy+1yI+MbCRScNjJ+gQ2suR0sw7286sj4cRuoYad5ZZKxzr6XSvK2qnpzVd15EjTZ9qrq9kl+cWT6fzJf99BkOd7zzLZaoHLDnV7XuNZqYbml092vTPLukelrbmYt51jGmnaTWyepKeNfTPLqOdc8/4y578+55p5spz9blvX6lrWune5R+cmH+3wqyb27++wtrAcAAAAAAAC2PcFjAAAAAFhSVVVJLjIy/cMNLD0WHDxgA2sutSW6l5cYGf/GBmrYUbr7cxm61s1ymySvTXJCVT27qm46+R5vO1V1cJLnjUyfleQB83QPXaL3PLOdnPF7miTnW+Bes9barsHOvxgZP2pTqzi3Zaxp0W4zMv6iDYT9Lj5j7otzrrkn2+nPlmW9vmWta8eqqusledzkyxOT/Ex3n7R1FQEAAAAAAMDOIHgMAAAAAMvrkCT7jsz9ZlX1PK8kNx5Zc5/dcxlLYcvvZVWdP+Mhke+u/5J2tN9J8vE1HHdEkockeWeSL1fV46vqp3ZrZYv3pCSXHJl7Rnd/YM51t/w9z+q6uzO74/khC9xuVkfZLyxwn830+kwP2G1lB+5lrGnRpgWPO8nfb2DNS4+M/ziCx+u2058ty3p9y1rXTlVVRyR5ZZL9MoS+79DdX9naqgAAAAAAAGBnEDwGAAAAgOV14FYXsIMsw708aMbcrO54e5xJp7rbJnnfOk67eJInJPlSVb22qq69G0pbqKq6fpKHjkwfl+QPNrD8MrznWZtZAbHDFrjP4TPmPr3AfTZNd5+R5L+mTM0K5O1Wy1jTIlXVlZJcbMrUe7v7yxtY+poj4x+ap+s7SXb+s2VZr29Z69pRqmqfJP+S5Kcy/B59l+7+6JYWBQAAAAAAADuIDgQAAAAAsLzGupUmyXeSnLTg/b6x4PWWyTLcy/1mHH/2gvff9rr761V10yS/m6ED8lq7he6d5M5J7lRVz0/ym919+m4qc25VtW+SF2T8A0If3N0/3MAWy/CeZ23+d8bcrGDZeo2t9e3u/s4C99lsH0pypxVjZ2xFIbtYxpoWZVq342QIAM5l0rV0rPP72+Zdlx3/bFnW61vWunaa5ye5eZKzkty7u9+xxfUAAAAAAADAjiJ4DAAAAADLa1YX3L/o7j/dtEq2v2W4l6fOmNOddopJl8snVdVzktwnyf2SXHeNp1eSByW5elXdurt/sJvKnNejklxlZO7F3f2WDa6/DO951mZWSG1aZ9l1q6oLJDl4ZPozi9hjC03rLjrrebsZlrGmRbntlLFO8soNrHn7GXOv3sC6e7qd/mxZ1utb1rp2jKr6kyTHTr58YHf/6xaWAwAAAAAAADvSWCcFAAAAAGDrzQpKHrBpVewMy3AvT54xNxYeIUl3n9Tdz+nu6yW5UpI/TvLpNZ5+/SQvr6rabQWuU1VdIcnvj0x/M8lvLWCbZXjPszYfmjF3iQXtMdZNNkk+tqA9tsr3pox9d9OrOLdlrGnDJp3abz5l6kPdffwGll7ZHfocn+3uD2xg3T3dTn+2LOv1LWtdO0JVPSTJoydf/k53v3Ar6wEAAAAAAICdSvAYAAAAAJZUd/8oyVkj0wdtZi3b3TLcy+4+M+MdLw/ZjBp2gu7+THc/rruvnOTKGULIX1vltNtn6Ji85SYB6Ocn2X/kkN/s7g0HFJfhPc+afTjJ6SNzl1nQHkfPmNtod+2tNq279xc3vYpzW8aaFuGGmf5BGa+Zd8GqumCSu4xMP2fedUmy858ty3p9y1rXtldVv5DkmZMvn9zdT93KegAAAAAAAGAnEzwGAAAAgOU21iX3sE2tYmdYhnv5nZHxRQVR9ijd/enuflySSyX59czuKDrWYXizPTjJTUfm/q27X7bAvZbhPb9mVXVsVfU2er19Edfd3Wckec/I9JUWsUeSnx4ZPzPJfy5oj61yoSljn9v0Ks5tGWtahNuMjL9+A2veN9M/iOGbSV6wgXXPZU98vuz0Z8uyXt+y1rXdVdXPJHlxhr/f8ILuftQWlwQAAAAAAAA7muAxAAAAACy3sQ6Jl9jUKnaGZbiXHx8Zv/wm1rDjdPeZ3f3cJNdO8qmRw65YVVfYxLLOo6oumuTPRqZPzhCeXqRleM+zNm8YGb9MVR24gPWvOjL+3919ygLW30pHTBl796ZXcW7LWNMiTAsen9DdH51nsaraJ8lvj0z/0aRzOxuz058ty3p9y1rXtlRVN07yiiT7JnlVkl/b2ooAAAAAAABg5xM8BgAAAIDl9smR8cttahU7wzLcyw+NjB9VVUduYh07Und/Kckdk3x/5JBrbV41Uz0nyQVG5h7V3cevd8GqenRV/cck1LzSMrznWZtXj4zvk8W8b28wMv7GBay91a694utO8vYtqGNXy1jThlTVBZNcZ8rURt5D90tyySnjH03yvA2sy0/s9GfLsl7fsta17VTV1ZK8LslBGbo5/2J3n7WgtfdexDoAAAAAAACwEwkeAwAAAMByG+veeomquvSmVrL9LcO9/OCMubtuUg072iR8/PyR6WldSDdFVd09yd1Gpt+V+UN2D0pyqySnT5lbhvc8a9Dd/5vk/SPTN97I2lV18UwPd56V5O83svaSuMWKr9/S3d/akkp+Yhlr2qhbJpkW0nvLPItV1fmTPHHK1I+TPGBRwcI93U5/tizr9S1rXdtNVV0myZuSXDDD79B36+5pv+/Ms/Y+ST5QVb+0iPUAAAAAAABgpxE8BgAAAIDlNtYhN0luv2lV7AzLcC/fnSFUNc09N6mGpVZVd6mqP6yq2sAybxgZP2gDa85t0in0WSPTpyd5YHf3HOteJsmlMoSNvjflkGV4z7N2LxwZv80G1x37Xv9bd391g2tvqaq6fs4bwPubrajlHMtY04JMex92krfOud4fJzlyyvhjunvWs4v12+nPlmW9vmWta1uoqqOSvDnDc+KzSX6mu09Z4BaPSnLNjAfEAQAAAAAAYI8meAwAAAAAy+2/kpw6MvfwqprWfZDptvxedvd3M94d8pZVdevdXcM2cNskj0ty8w2s8bWR8W9vYM2NeGqmB+yS5Ind/Zk5173V5H+/291nT5nf8vf8enT3i7q7ttHrmAXfgn9IctKU8ZtV1aEbWPdnR8b/agNrLovfWfH1R5K8eisK2cUy1rQI08KSn5ynk3NV3SzJb06ZekWSv1jvemuxhz9fdvqzZVmvb1nrWnqT+/OmJEcnOT7Jbbt7Yb/DTZ5Bj0/y7u7+3KLWBQAAAAAAgJ1E8BgAAAAAllh3n54hiDPN5ZP8yiaWs60t0b189oy5Z1TVZnXlHeuwu/8m7b+ajXw/xu7hpncCrKpjktx/ZPrjSZ68geXPCR5PDeMs0XueNejuU5M8Z8rUfpmzI3pVXSTTA6OfTfIf86y5LKrq2jl3AO/sJA8fCeFvikXWVFUHVtXjq+ozVXV6VX27ql5ZVdddWMFrr+XSSS4zZepdc6x1eJKXJFnZ1f59SX55nu7vzLbTny3Len3LWteym/we/PokV03ynSS36e6vLHD9GyZ5TZJ9Mt6VGgAAAAAAAPZ4gscAAAAAsPyemfGQ6LMmf4Getdnye9ndb8gQsJrmyklet0nh4x+MjF9iE/Zei7tX1fnnPPfKU8Z+nDlCchtRVQckeX7OG7BLhkDiA7r7x3OuXUluOflyVhfALX/Psy5PyfTv50PnXO8hGcJVKz1qPQHPqjqgqv64qo6bhGA/U1UPWcf5F6qqh1bV0ybr/OxGnnNVtV+SF+Xc/53rT7v7ndu5pl3W2idDiPAJSa6QIah4WJKfS/KeqrrPvHXOaVrQMUn+ez2LTLqs/2OSi6+Y+liSO3b3j+aojbVZymdLsvHny8SyXt+y1rWqyXNoU1XVvkleleSGGX5PvUN3f2aDa+5VVYdV1S2q6nlJ3pHk0CSnJnnZRmsGAAAAAACAnUrwGAAAAACWXHd/OMm/jEwfkCGo+vObWNK2tUT38tczBGGnuUWSt1XVNXdzDd8cGb/Tbt53rQ5Kcq85z733lLG3dvdY2Hp3eUKSy47MPaO737+Bta+e5PDJP48Gj5foPc8adPfJSR4xZeoq6/0+VdVhmR5ue2N3v2Yd6+yb5I1JHpvkUhlCsFdI8uyqeu4azr9Yhm6cz8pwbY/NECz7WlU9ahLYXa9nJbnKLl//W5LHr/XkZaxphXsnudHI3D5J/raqLjfn2vMYCx5/dJ3r/E2S205Z41bd/Z11rsU6LOOzZbLWhp4v51jW61vWutbogjPmFv53DKpqryT/kOR2k6GDk7yvqnojryRnZfg96T+TPDjJvpP1X7EFvxcCAAAAAADAtiF4DAAAAADbw29mPCh6oSSvqKp/qarrrHXBqjqwqq5eVferqksvpMrtYcvv5SQM+tszDrlekg9W1Qur6oaT7rZrrWWvqrpmVT1qlUM/PDJ+tar6rbXut5s9rqquv54TqurumR6enjcAOJequkbGv8fHJfmDDax9WJLf22VoVsfjZAne86xdd78kyd9PmXpqVR2yjqWenKGr465OSHK/dZb0wCQ3H5n7tao6ZpXzfzU/Ccnv6oJJ/jRDB981h2ir6s+SPGiXoTcnuUd3n7XWNZa0pl3dYJX5/TM9zLhwkzDgLUemv7jWNSadRu+/YuoNSW4mdLw5lvDZkmz8+fJ/lvT6lrauNbjajLlpz8+Nek7m/8CZefzdJu4FAAAAAAAA284+W10AAAAAALC67v5mVd0lyVuTnG/ksHskuUdVfT3JB5N8KckpSc7O0D324CRHJDkyySWSHLXLubfJEIbc8ZblXnb3syYB0rFA7F5Jjp28Tqqqj0zq+HaS0ya1JMOf8x6aIUB6uSRXTnLgZO7PZpTwb0memekfUPkXVXXDJC9P8t0kF5jscYnJ+q/o7peudo0LcPEk76qqFyZ5cnd/YezAqjowyW9l+v182ga7C69LVe2d5AUZ/zP4B3f3qWtcqzK8v66U5FpJbp0hpLX/LofNDB4vy3uedXlQhnu9a3fYSyV5cVXdfbVAa1UdmyFcu6uTktylu8dC6GNuv8r8XZK8fcb8Eaucf+0kH66qh3T3tHBekqSqLpDkeTl3R/O/TfL/unusg/x2qmm9xroQL9q1M/z7ZZpVg9VVdaEkL865PxDi7CRPSfLYDYSzmc8yPVuSjT9fVlq261v2uma5x4y5sbD4XKrqSUl+bZFrruILSf5rE/cDAAAAAACAbae6e6trAAAAAADWaNKR9DVJLrbAZb+T5Kbd/ekZ++6TIfR40yQ3S/IzSfadcuinM3TS/fTk9akkX1hLAGsz9lix35bcyyl1/FKS52YIdi7Sl7p7ZifaqnpJkvvMsfYjuvsv56pqFVX17CQPGZn+eJK3JTk+w73eJ8mFk1w9ye2STOsc+HdJHtCr/GF4VV04yRWSXDHJfTO8B1f6nwwhw88k+Wx3nzCy1iOT/PnIVp3x7sMrHZDk/JkeDt/Vb3f301ZbbFne86xNVR2U5J+S3HXF1GuT3K+7Txo572FJ/iLJ3rsMfyPJnbr7g3PU8bokd5xxyHO6+6Ezzr9nkpetcbv3ZOjq+cbuPmNy/k9l6Oj560kuOjnuO0ke1d0vWOO6S1/Tivp+PskrVjnstO4+cJVjNqyqHpPkSSPTD+ru54+cVxkC2U9J8lO7TH0+wzP5nQstlDVblmfLZM0NPV9G1lya69sOdY3sefMMndv3m3HYr3f3cxew129luL7N9NjuHnuuAQAAAAAAABE8BgAAAIBtp6oOTfInGTqfTQvmrtU3kvxNkqd39/dm7PdPSe6c+YOxP07yv0le092P2ao9Rvbd1Hs5o46LTer4xYx3yV2rbyZ51qSWmV11Jx2X350hcLtWpyS5R3e/af4SZ9b09CQPX8BS30rysO7+5xl7HZPhvl8h4x09ZzklyWeT/Hl3/8su656aoUvwZrnfrK6su1qW9zxrMwlvPjrJ43LeLtd/neQtSU7I8Oy8XpIHZuhQu6u3JblPd584Zw2rhcJ+trtfM+P8SvLSJPdcx7ZnJDkxyeE5d5fuszJ0E39Md393HestfU1TavzbJPefccip3b3oD6yYVsfbkhwzMv3jJE9L8sIMXdIPSnL5JLdIcmzO/e+Wr2cIcD9nE7pBs4pleLZM6tjQ82XGuktxfdulrkltByS5RobfRX8tq/+O0En+MUNH8/d19ylz7Hlshg+IqfWeuwFnJ7lkdx+/iXsCAAAAAADAtiN4DAAAAADb1KTj4q8k+dkMHV9X64p6dobuwO/O0F3tLWvsRPylJJfcULGDd3T3MVu1xyybdS/XUMfFkvxShm54187sTnPnODNDB8m3JnlVknd291nr2PPwDMGx+2T8un+Y5J1JXpnk5d39/bWuv15VtV+G0NrNk1w/ydUyBP3W4owk78oQgntFd5+2yl7HTo7dqD/s7ifssu5m/8H7Hbv739dzwrK851mbqjo6Q2D857L2wPgnkzyhu1frnLva3gdm+Pm/zpTpV3T3Pdawxl4ZgmyPTXLUHGV8PsmLkry4u782x/nboqZdTQKKD0ryp0kOnXLIV7p7Ef/enFXDQUm+l/P+u+jLSZ6R5BFJLj5jidOS/GeGLq8vP6djNMtjK58tk/03/HxZZf0tvb5lr6uqLprk7RmCzhfJ6r8LzPKdJN9P8rK1fghQVR2X5FIb2HMeb+ru22/yngAAAAAAALDtCB6z41XVkUmumuToJBfI0DHmlAyfGP7JJJ9tPwgAAADANldVB2f4M5BLZggOHJThz0F+lKGL2peSfLi7T96qGreLZbmXkwDuT2cIZFw0Q4fN/TOEgE+avL6Q5NPdffoC9js8Q1fLiyc5cLL+tzOETT+9njDzok269F5hUtsFkhyS4X6cleQHGbrv/m+ST3X3j7aqzu1qWd7zrK6qLpzkHklulORaSY7I8DNxWoaA6GeSvD/Jv3b3Bxa478FJ/jDJvSZ7fik/6Xi9ng862CfJbZPcMsk1M/y5/eEZnjk/zk+ebd9O8rEkH0jyge7+1GKuZHvUtKK+CyX5+yR3XDH1H919m928988kmfahBi/q7l+ZhKOvl+FDIn4qw3Pj5Az//eUTST7a3T/cnTWyGFv1bJnsvZDnyyp7bNn1LXNdVbVvzt2ZfBG+tzs+jAEAAAAAAADYXILHTFVVl0ryZxn+I3+6u7a0oHWa/CXJB2eo/6qrHH5iklcneVZ3f2Z31wYAAAAAALBWVbV3ks9lCEWf44+6+/G7ed+nZehqvNKx3f3i3bk3AAAAAAAAALB19trqAlguVXVIVT05wydo32ur61mvqtq3qh6d5CtJnpjVQ8dJclSSX0/yqar6u0n3AAAAAAAAgC036fr6pRXDr92Ercc6Kr9jE/YGAAAAAAAAALaIjsckSapqnyQPTPKHSS68cn47dDyuqgtn6Fx84xVTneStSd6Z5IQk+yS5VJLbJrnWlKW+kuTO3f0/u61YAAAAAACANaiqyvDfN46cDH2ou6+zm/c8arLnSl/u7kvtzr0BAAAAAAAAgK21z1YXwNarqjskeWqSK211LfOahI7fleTyK6Y+mOR+3f2pKac9uqpuleQFGYLI57hEkv+qqmO6+yO7o14AAAAAAIA1unt+EjpOkkdvwp63Hhl/+ybsDQAAAAAAAABsob22ugC2TlVdrarekuT12d6h432T/FvOGzp+d5JjRkLHSZLufmuSGyb5zIqpQ5K8YfKJ/gAAAAAAAJuuqq6Q5Lm7DL2wu9+yCVvfZmT8HZuwNwAAAAAAAACwhQSP90BVdWRVPT/JRzL+ifXbyROSXH/F2HeT3KO7T13t5O7+epK7JfnhiqmLJPn7qqoF1AgAAAAAALBmVXWPJO9Ncthk6D+S/L9N2l7HYwAAAAAAAADYQwke70Gq6sCqemySzyd5QM79/T8+yb9uSWEbUFWXT/K7U6ae1N0nrnWd7v5skj+bMnXrJL84Z3kAAAAAAABrVlX7VtVdq+pdSf4lyaGTqdcluVt3n74JNVwlyVFTpr7S3cft7v0BAAAAAAAAgK0leLwHqMF9k3wuyR8nOXgy9d0kf5PkmCSXSPKXW1HfBv1Jkn1WjJ2c4brW6xmTc8+zR1XtO8d6AAAAAAAAa1JVF0lyQpLXJLnxZPiMJL+X5C7dfeomlXKbkfF3bNL+AAAAAAAAAMAWEjzeM9woyd8n+akkP0zysiR3TXJkdz+4u9/R3b2VBc6jqo5O8rNTpl7V3T9Y73rdfXKSl06ZukSSe653PQAAAAAAgHU4MMnhk38+O8lLklyhu5+yyf8d52dGxgWPAQAAAAAAAGAPIHi8ZzgzyRuS3DfJRbr73t392u7+8RbXtVG/lunv4X/bwJovHxl/6AbWBAAAAAAAWIvPJ/nDJJfv7vt295c2c/OqOiLJMSPTgscAAAAAAAAAsAeobdjolt2kqo5J8rZpc91dm1rMGlTVlzN0I17pwt397TnX3D/JSUkOmDJ96c3+Cz4AAAAAAMCeoapqkzsbT6vhT5I8esrU2UnO192nbXJJAAAAAAAAAMAm0/GYbamqrpPpoeMvzhs6TpLuPj3JB0amf27edQEAAAAAAGZZgtDxLyT5nZHpvZI8YhPLAQAAAAAAAAC2iOAx29WtRsY/sYC1P7LOPQEAAAAAALadqrpfVf1zVf1vkn9Kss+Mw/+kqo6rqtdU1fOr6t6bVCYAAAAAAAAAsIlm/eUBWGY3Hxn//ALW/tTI+E2raq/uPnsBewAAAAAAAGy1WyRZT4D4UpNXkpyV5KULrgcAAAAAAAAA2GKCx2xX1x4Z/8oC1v7iyPj5k1wuyWcXsAcAAAAAAMCW6u5jkxy7xWUAAAAAAAAAAEtkr60uANarqo5McsTI9IkL2OKrM+auvoD1AQAAAAAAAAAAAAAAAACWjuAx29EVZsx9ewHrf2POvQEAAAAAAAAAAAAAAAAAti3BY7ajS86Y+95GF+/u7yU5c469AQAAAAAAAAAAAAAAAAC2LcFjtqNLzJg7ZUF7nDTH3gAAAAAAAAAAAAAAAAAA25bgMdvR4TPmfrCgPb4/x94AAAAAAAAAAAAAAAAAANuW4DHb0aEz5k5b0B4/mmNvAAAAAAAAAAAAAAAAAIBtS/CY7egCM+Z2d/B41t4AAAAAAAAAAAAAAAAAANvWPltdAMxh/xlzZy1ojzPn2HtdquqIJBde1Ho71MFJrpPk5CTfT/LVJGdsaUUAAAAAAAAAAAAAsP3sl+Tiu3z9ju7+/lYVAwAALC/BY7ajfWfMLSp4PLbOfgtaP0l+PcnjF7geAAAAAAAAAAAAAMBa3DXJa7e6CAAAYPnstdUFwBxG37fd3Qva4+yR8b0XtD4AAAAAAAAAAAAAAAAAwFIRPGY7OnNsoqoW9Z4eCxj/eEHrAwAAAAAAAAAAAAAAAAAslX22ugCYw6zw794Z71a8HmPB4zMWsPY5/irJyxe43k50xSSv2OXruyb5whbVwiZ74+/u84mtrgEA2Blu/5Qzr7LVNbB8/L4JACyK3zdZye+aAMCi+F2Tafy+CQAsit8390iXSfKvu3z91a0qBAAAWG6Cx2xHp82Y2zeL6Uq8/xx7r0t3fzPJNxe13k5UVSuHvtDdn9yKWth8x/3lfltdAgCwQ/gdkmn8vgkALIrfN1nJ75oAwKL4XZNp/L4JACyK3zf3PFP+Xu4iGzIBAAA7yF5bXQDM4aQZcwcsaI8D59gbAAAAAAAAAAAAAAAAAGDbEjxmO/rejLmxwPB6HTQyftKC1gcAAAAAAAAAAAAAAAAAWCqCx2xH35gxd/4F7XHoHHsDAAAAAAAAAAAAAAAAAGxbgsdsR1+dMXfIRhevqr2THDwy/ZWNrg8AAAAAAAAAAAAAAAAAsIwEj9mOvjxj7kILWP+IJDUyJ3gMAAAAAAAAAAAAAAAAAOxIgsdsR5+eMXf4Ata/yJx7AwAAAAAAAAAAAAAAAABsW4LHbDvdfVKSr45M/9QCtrj0jLmPL2B9AAAAAAAAAAAAAAAAAIClI3jMdvWBkfFLLGDto0fGv5vkuAWsDwAAAAAAAAAAAAAAAACwdASP2a7eOTJ+xQWsfbWR8f/q7l7A+gAAAAAAAAAAAAAAAAAAS0fwmO3qrSPjV13A2tdc554AAAAAAAAAAAAAAAAAANue4DHbUnd/Isnnp0wdXlWXnXfdqrpQkqtM2zLJq+ddFwAAAAAAAAAAAAAAAABg2Qkes529dGT8mA2sedskNWX8Pd19/AbWBQAAAAAAAAAAAAAAAABYaoLHbJmqumlVPbKqHl5VV59jib9JcuaU8btsoKx7jIw/ZwNrAgAAAAAAAAAAAAAAAAAsvX22ugD2PFV1eJKXZ0Vn4qp6WZL7d/cP17JOdx8/Oec+K6ZuX1UX6e5vrLOui2V6aPlLSV6xnrUAAAAAAAAAAAAAAAAAALYbHY/ZCi/LitDxxL2SPHuda/1BkjNWjO2b5BHrLyuPzvQw/u9394/nWA8AAAAAAAAAAAAAAAAAYNsQPGZTVdWNk9xyxiH3q6qfWut63X1ckidNmfrNqrrCOuq6QZIHT5l6c5J/Xus6AAAAAAAAAAAAAAAAAADbleAxm+0Gq8zvleT661zzT5K8Z8XYgUleXlWHrnZyVV06yctz3m7HJyY5trt7nfUAAAAAAAAAAAAAAAAAAGw7gscso3UFfbv7zCR3TfLZFVNXTfKuqrrm2LlVdacMoeWVXZZPSvIz3X3iemoBAAAAAAAAAAAAAAAAANiuVnZ4ZYeqqn2SHJHkqMnryF3++ZzXJWac//kkJ2ToAnzO61xfd/f31lDKu1eZPzvJ+9awzrl097er6mZJXptzd0y+cpIPV9Xbk7wtydeS7J3k6CQ/k+RqU5Y7Lskdu/vT660DAAAAAAAAAAAAAAAAAGC7EjzeA1TVLyb5h2ysw/VlJ69Z+5ze3QfMOqa7/7uqXpHk7iOH/G13f22eArv7m5Pw8e8n+b0k++8yfczkNctZSf46yaO7++R5agAAAAAAAAAAAAAAAAAA2K42EkRl+9gvm/O93n/1Q5IkD07y9injL0vysI0U0N1ndPfjM3Q0/rMkX1zDaccleVqSy3X3Q4SOAQAAAAAAAAAAAAAAAIA9kY7He4DuflGSF21xGf+nu7+b5BZVdUyS6yY5M8k7uvvDC9zjhCSPTvLoqjo6ydWSXDzJ+ZOcneSUJF9J8onuPm5R+wIAAAAAAAAAAAAAAAAAbFeCx2yZ7n57pnc+XvQ+X8zaOh8DAAAAAAAAAAAAAAAAAOyx9trqAgAAAAAAAAAAAAAAAAAAgK0neAwAAAAAAAAAAAAAAAAAAAgeAwAAAAAAAAAAAAAAAAAAgscAAAAAAAAAAAAAAAAAAEAEjwEAAAAAAAAAAAAAAAAAgAgeAwAAAAAAAAAAAAAAAAAAETwGAAAAAAAAAAAAAAAAAAAieAwAAAAAAAAAAAAAAAAAAETwGAAAAAAAAAAAAAAAAAAAiOAxAAAAAAAAAAAAAAAAAAAQwWMAAAAAAAAAAAAAAAAAACCCxwAAAAAAAAAAAAAAAAAAQASPAQAAAAAAAAAAAAAAAACACB4DAAAAAAAAAAAAAAAAAAARPAYAAAAAAAAAAAAAAAAAACJ4DAAAAAAAAAAAAAAAAAAARPAYAAAAAAAAAAAAAAAAAACI4DEAAAAAAAAAAAAAAAAAABDBYwAAAAAAAAAAAAAAAAAAIILHAAAAAAAAAAAAAAAAAABABI8BAAAAAAAAAAAAAAAAAIAIHgMAAAAAAAAAAAAAAAAAABE8BgAAAAAAAAAAAAAAAAAAIngMAAAAAAAAAAAAAAAAAABE8BgAAAAAAAAAAAAAAAAAAIjgMQAAAAAAAAAAAAAAAAAAEMFjAAAAAAAAAAAAAAAAAAAggscAAAAAAAAAAAAAAAAAAEAEjwEAAAAAAAAAAAAAAAAAgAgeAwAAAAAAAAAAAAAAAAAAETwGAAAAAAAAAAAAAAAAAAAieAwAAAAAAAAAAAAAAAAAAETwGAAAAAAAAAAAAAAAAAAAiOAxAAAAAAAAAAAAAAAAAAAQwWMAAAAAAAAAAAAAAAAAACCCxwAAAAAAAAAAAAAAAAAAQASPAQAAAAAAAAAAAAAAAACACB4DAAAAAAAAAAAAAAAAAAARPAYAAAAAAAAAAAAAAAAAACJ4DAAAAAAAAAAAAAAAAAAAJNlnqwsAAAAAAAAAAAAAAADYDo77y/16q2tg57n0w8+ora4BAOAcOh4DAAAAAAAAAAAAAAAAAACCxwAAAAAAAAAAAAAAAAAAQLLPVhcAAAAAAAAAAAAAAAAAAGxvVbVPkjsluVKSE5L8a3eftKVFAesmeAwAAAAAAAAAAAAAAABsqqr6aJKr74alO8kZSU5P8qMk35q8TkjyucnrI0k+1929G/aHPVJVXTzJvye5yi7D362qu3f327aoLGAOgscAAAAAAAAAAAAAAADAZnt/koOTXCLJvgtct5LsP3kdkuQiI8d9r6reneR1SV7b3ScusAbYo1RVJXlRzh06TpILJXlNVV2hu7++6YUBcxE8BgAAAAAAAAAAAAAAADZVdz8oSapq7yQXT3LpJEcnuU+SW4ycdkqSb47M7Z3kwCQHJTn/Gko4NMmdJq/nVtW/J3lWkjfrhAzrdr0ktxyZOyTJ/ZI8efPKATZC8BgAAAAAAAAAAAAAAADYEt19VpIvTV5vq6qLZzx4/KruPna1NavqoCQXS3KlJFdPcpMkN80QTJ56SpI7Tl7vq6qHd/d/r/0qYI939AbngSWy11YXAAAAAAAAAAAAAAAAALAo3f3D7v58d7+2u/+4u2+XocPxzyd5XZKzZ5x+/STvqapnVtX+m1Ev7ABf2uA8sEQEjwEAAAAAAAAAAAAAAIAdrbtP7+5Xdfedk1w1yStmHF5JfiPJe6vqoptSIGxv/53kHSNzpyR58SbWAmyQ4DEAAAAAAAAAAAAAAACwx+juT3X3PZLcKckJMw69ZpJ3VdXRm1MZbE/d3Unum+T9K6a+luQu3T3r5wxYMvtsdQEAAAAAAAAAAAAAAAAAm627X19V10nymiTXGzns0kneUlXX7e7vblpxsM1091er6kZJ7pzkSklOTPLq7v7+1lYGrJfgMQAAAAAAAAAAAAAAALBH6u4Tq+oWSd6U5CYjhx2d5OVVdZvuPnvzqoPtpbvPyhDkf83WVgJsxF5bXQAAAAAAAAAAAAAAAADAVunuHya5Y5JPzzjslkkeujkVAcDWETwGAAAAAAAAAAAAAAAA9mjdfXKSeyU5bcZhT6yqi25SSQCwJQSPAQAAAAAAAAAAAAAAgD1ed388yZNnHHL+JL+7SeUAwJYQPAYAAAAAAAAAAAAAAAAYPCXJCTPmH1hVh29WMQCw2QSPAQAAAAAAAAAAAAAAAJJ09w+TPHvGIQcluc8mlQMAm26frS4AAAAAAAAAAAAAAAAAYIn8TZInJNlvZP5eSZ4xz8JVtV+S2yS5VZJrJ7l0kgslOSDJyUm+l+TLSf47ybuSvLm7z1zH+gev4bCzuvtHu5xz/iTHJLlZkusnOSrJERlC1j9I8tUkH0/yn0le1d3fW2s9k/UPTXK+NRz6/e4+ZcY6509y1yS3S3KDJD/u7iuvs5YLJrlLhmu9WpJLJjkkyd5JTkry3SSfSfLeJG/r7vevZ/1V9r5Mkp/NcI+vluH7fsEkZyX5UZLvJzl+8vp0kk9OXp9fz3tgxZ6HJvn5JDfM8H47IsmhGa73Rxm+vyck+VqSz+2y56e7+9RV1r7GpP61+Gh3n7TuC5i+715JbpzhPXudDD9DF83wHts3yWkZvpdfTfKpDD9L/97dX5tjrwOTXGwNh36/u781ssZlkvxMklsmuWqGn6/9MrzXvpjkv5K8qLs/vd76YHcRPAYAAAAAAAAAAAAAAACY6O7vVNV/Jrn9yCE3qKoju/vra11zEpr97SQPTXLYyGGHTl5HJ7nFZOxrVfVXSZ6+a1h4htHg7i7ekeSYqrp8kt9M8stJzj9y7AUnr6sm+cUkz6mqFyX5o+4+YQ17JcnTk9xvDcc9KcljVw5W1fWTPCTJPTIEtM/x5TXun6o6OskfZLiGsUD5hSevK2QIOKeqPpzkad39j2vda8re10nyZxmCpzXlkH2S7J/hPl9yyvyPq+ry3f2ldex5ZJI/TXLvnPue7WrfDKHri2YI8O6qq+qXu/slM7b5yyQ3X2NJt0jy9jUeO1VVHZbh/frgJBeZcej5Jq+LZQio3z/D9bwjyVO7+/Xr2Pb6Sd62huNekeH9eU6tF5nse2ySy4+cc5HJ64ZJfqeqXpLk1yZd12FL7bXVBQAAAAAAAAAAAAAAAAAsmX+dMVcZwoJrUlW3ytDB9vGZHjo+PUOX29OnzF0sQyD3/VV1xTVs98Ekq3XH3buqnpShs+1DMh46nmb/DMHPT1bVPdd4zhsmr2+uctzhu35RVderqjdl6Fh734wHaGeqqocn+USGEOi00PEpGbr+njVl7lpJXlJVr6iqC8yx9x9lqP9WOW/o+NQkX0ny9Qxdesfsm3U0IK2qu2V4vx2b896zM5KcmOH9NiukXlPOXel5SV6c5KOTdXebqjo2Q0fmx2V66LiTfCvJN5KcPW2JDB2SX1dVb66qi69x688l+YsMXYlndYC+xKTOa1bVyzJ0W/6TjIeOp9V33yTvnHRZhi0leAwAAAAAAAAAAAAAAABwbu9eZf4Ga1mkqu6f5E0ZAsS7OiU/CSYe2N0XT3Jghm67z8x5Q7BXSfKBSfffUd193Qxdk2+b5I9HDrtJksdkHWHWKS6Y5KWTUO9M3f2y7r5Dd18kycWT/N7IoYcnSVVdvqpem+R9Ga5jLjV4QYaOyyvDnF9M8htJLtzdh3T3xTIEbW+WZFpH3J9P8t6qOnzK3Nj+f56hy/LeuwyfnuTJSa6c5PzdfcnuPirJQRneC/dP8p9r3WPKnndL8vIM359dvTzD9/3g7r5od1+8uw9JclSG7s7/mHWGh7v7pd19bHdfM8nBSa6R1cPl61JVe1XV85K8MMmFVkwfn+E9fqUk+3f3Ed19ZIZw/OUzdM/+wpRlb5Pkw1W16ocHdPcJ3f3I7r5Zhu7Qtx459LJV9aokH05yzwxh8XlcO8mz5zwXFkbwGAAAAAAAAAAAAAAAAODcPpXkhzPmr7LaAlX1c0men3MHT5PkM0mu292/392f7+5Okh58rrsfliEMurIL7sFJXltV0zq+/p/u/kF3v6W7HzfjsNOS/FuS309yxyRXzdCN+YAMId1LJbl9kr9KctLYJSZ5WlXde1Y9K2o7Psn7R6aPrKrfT/LxJHde65ozPD3Jr04Z/9ck1+zuZ3f3t3ep7czu/q/uvlOmh7avlOTlVbVqJq+q7pDkkSuGT0ly0+5+VHd/+pzv+2TvnrwXXtjdt0pytwxdfNesqo7M0IF4ZaD8/3X3Pbv73d39410nuvvr3f3a7v6lJNfMEOZdt+7+cXd/LMmP5jl/hudl6LC90iuT/HR3P667P7PrdU2+j5/v7icl+elMD/IenuRNVXXttRbS3WdnepA5GULRt07y9gwfHPCgDKH5KyW5cH7yc3V0hk7UH5ux1bFVdYW11gW7g+AxAAAAAAAAAAAAAAAAwC66+6wkn59xyCVnnV9Vl8rQpXVlfut7Se7Q3Z9dZf/XJ3nClKkjkvzlrHPX6Ijuvkt3/0l3/3t3f6K7v9vdp3f3ad395e5+U3c/JMkVk7xsZJ1K8tdVNfN+rNGNkzwxyX4ZAqxvS/LUDOHhm2UIe99zLQtNQt8PmzL1viT37O6TZ50/CW2/YcrUMUkeuMreleQZU6Z+p7s/MOvcXfb/1wzXvx5PytCVd1cv7e7nrXHPTyX5m3XuudtU1YMz/V6/qrvvvtr3MEkm7+ffSDIthH/+JK+qqkM3WOo5Ltjdt+juh3X38yfh/89097d3+bk6rrtfnKGz8YtG1tkrya8vqCaYi+AxAAAAAAAAAAAAAAAAwHl9dcbcakHbp+e8IdAkeWR3H7fG/Z+a6R1o71VVV1vjGlN19ynrOPYbSX4hQzfdaQ5J8pSN1DNxRpLnJrllhhDnLbv7d7r77yadiD/Z3S/PKoHcqjooQ9fZlc5Kct/uPmON9fzWyPjjq2q/GefdKMllV4z9KOP3b8zfrvXAqjogyT2mTD13nXu+MMnZ6zxn4arqYhne/yt9LckD5ljyiUneNGX8EkmePMd65zHpiLzWY8/K0Mn5EyOH3GoRNcG8BI8BAAAAAAAAAAAAAAAAzuuEGXMHj4VPJ6Hgu02Z+nKSv1/r5pNw4rSwaiV5yFrXWYTu7gydh/9n5JB7VNWVNrjNid396939tlXCwb+XpGfMPyDJxaaMv6y7Z3WxPpfu/kySd0+ZOirJz8849Q5Txj7d3aetde+JV2XokL0WN83QwXelj6xnw+4+PtMDupvt8UkOnjL+rO5e6z35P5P376NGpn+1qi6/3jU3avIenxauTpIrV9W0Dy6ATSF4DAAAAAAAAAAAAAAAAHBep64yf+DI+Fgo+GXdfeY6a3jzyPjPVdWmZsMmQehHjkxXkv+3SXV8IMnLZxwydv9fMsd2Y/d/Wnfhc0zrhn3WejeeBJUfmOQPknxnlcPHOnCve98kj5vs+cE5zt2wqjoiyS9PmTojyd/Nu253fzTJf06Z2ivJI+Zdd4PGQt6V5IjNLAR2JXgMAAAAAAAAAAAAAAAAcF4/WmX+oJUDVbVPxrvhvnGOGj6c5Owp44cnueYc621Id78lycdHpu+xWWHo7r5Xd19q5XhVXSPJtO61pyV5+xxbfWBk/FZVVSNzF54ydvSM40d19yu7+4lr6PI7bc8kucwce35wsudH13vugtw7yf5Txj/U3d/a4NqvHhm/11gH892pu7+e5OSR6QttZi2wK8FjAAAAAAAAAAAAAAAAgPNarVvs3lPGrp3ksJHjx0Kso7r7B0lOGJm+1nrXW5BXjowfmeTKm1nIFLcbGf9kd68WJJ/mcyPjhyS57MjcD6aMHZbkbnPsv1bT9kySB+zGPXeXu46Mv3cBa799ZPzQJDdZwPrz+P7I+FhHddjtBI8BAAAAAAAAAAAAAAAAzmta19VdnTZl7MYjx359EiKex4kj49M6+26Gf5sxd+1Nq2K6sfv/+TnXG7v3yfj9//rI+F9V1dFz1rGasT0fUlV33k17LlxV7Z/kRiPTH17AFp/MeIfhmy9g/XlM62ieJOvukA2LIngMAAAAAAAAAAAAAAAAcF77rTI/rYPuVUaO/fIG6vjmyPhFN7DmRvxPktNH5rY6eLzQ+9/dP0xy6sj02P1/18j4kUneX1U/P08tq3h3kp4yvneSV1XVH0xCvcvuykkOGJk7fqOLd3cn+dLI9DU2uj7sFILHAAAAAAAAAAAAAAAAAOd1wRlzZyT54ZTxy40cf8oG6pjWWTlJLrCBNefW3WcmOW5k+mqbWcuuqmq/JJccmd7M+//6TH9vJMlhSV5RVe+rql+sqrGQ7bp09wlJ3jMyvU+SP0ry+ar67aq68CL23E2uNGPuhAXtMRZCv/KC1odtT/AYAAAAAAAAAAAAAAAA4LwOmzF3wqR76kpHjRw/FkRdi7Hg60JCq3P66sj4rHu2ux2R8bzcpt3/7j45yZ+ssub1kvxjkq9X1Qur6nZVtc8GakySR2V61+NzXDzJU5N8rapeX1X3rapDNrjnol18xty3FrTHWOfkreogDktH8BgAAAAAAAAAAAAAAADgvC4yY+5rI+Njwdu7VFXP80pyn5E1NxpU3YjvjIxvSRfmiVmh56dt4P5fbGTNWff/z5O8dQ01XyDJsUnemOTEqnpqVV1+DeedR3e/K8kT13DovknukOTvk3yjqv6pqm4+z567wREz5n60oD3GQugHVdXBC9oDtjXBYwAAAAAAAAAAAAAAAIDzusyMuU+NjB+4OwpZQmMh0K0MHi/Nve/uM5LcLcnr13Ha4Ul+O8lnq+ptVXXrOfZ9XJI/zuzOx7s6IMkvJHl7VX2mqh5cVXuvd98FOt+MuTMWtMesAPNBC9oDtrWt/FQLAAAAAAAAAAAAAAAAgKVTVRfM7A66Hx0Z33dk/OQk39pASdOMdV3eDGeOjG9lcHPs3ifJN5L8YMH7fXfWZHf/oKrunOTBSR6f5Mh1rH1MkmOq6tVJ7t/dJ631xO5+XFW9LcnTklxjHXteIcnzkvxGVd2ruz+5jnMXZb+R8TO6e61h6tXMCh7vv6A9YFsTPAYAAAAAAAAAAAAAAAA4t2utMv+BkfHTMj18+9LufvDGSloqB4yMLzrcux6nzZh7RHf/86ZVMjEJyz6vqv4+yT2S3C9DqLjWuMTPJrlqVd2su09cx75vq6prJbntZM+7Ze0doX86yfuq6s7d/ba17rkgY4H2ReYgx8LNSXLqAveBbWuvrS4AAAAAAAAAAAAAAAAAYMlcZ8bcd5J8aGRuLHg7FtTdrs43Mv79Ta3i3GaFnrf0/nf3D7v7xd19yySXSvKojL+HVrpskjdU1bquoQdv6u5fzNBt+VeTvDHJj9dw+vmSvLqqrrCePRdgLDy+V1XN6mi9HrMC2Fv5/oWlIXgMAAAAAAAAAAAAAAAAcG63mTH35u4+e2TulJHxaV2Qt7Ox6zlpM4tYYezeJ0t0/7v7K9395O6+ToYQ8u8l+dwqp109ySM3sOfJ3f133f0zSY5IcmySd65y2gWSPGfePef03RlziwqPjwWPf9DdZy1oD9jWBI8BAAAAAAAAAAAAAAAAJqrq4CQ3m3HIS2bMnTwyftj8FS2li4yMf3NTqzi3sXufLOn97+4vd/dTklwxyS8k+eqMw3+nqvZbwJ4nTbov3zzJ9ZK8Z8bht6qq6290z3U4ccbcBRe0x4VHxr+3oPVh2xM8BgAAAAAAAAAAAAAAAPiJeycZC3gen+SNM8794sj4JTZU0fK5zMj4Rza1il1098lJvjMyvdT3vwcvTXLNjHciPiTJLRa87wcyhOyfOeOwuy1yz1V8fsbcUQva41Ij459c0Pqw7QkeAwAAAAAAAAAAAAAAAPzEr82Ye1p3nz1jfiy8ePGq2n8DNS2Nqjo8Qwh2mg9tZi1TjN3/y21qFXPq7u9kCPp+aeSQa+2GPc9K8vAkr9msPWf4xIy5iy5oj0uOjH9gQevDtid4DAAAAAAAAAAAAAAAAJCkqu6S5Noj019L8txVlvjUyPh+SW40b11L5roz5j64aVVMN3b/r19VB25qJXPq7u8leerI9BG7ac9O8tjN3HOkjm8m+dzI9JU3un5VXSTjnZMFj2FC8BgAAAAAAAAAAAAAAADY402CqX8+45BHdPdpqywzq+Pv7ddf1VK69cj4J7r7i5tayXmN3f/9kxyzGQVU1U2r6k+r6nwbWOYNI+MHjex5sar6s6q66rwbdvcnk3x1rXvuRm8aGb/BAta+2cj4GUnes4D1YUcQPAYAAAAAAAAAAAAAAAAYQseXH5n75+5++WoLdPf/JvnfkekHVtUh8xa3RMYC1H+3qVVM98YZc7+9STVcP8mjktxjA2t8bWT82yPjRyX5vWz8GqftO7bn7vKykfEbVtU+G1z7NiPjr+ru72xwbdgxBI8BAAAAAAAAAAAAAACAPVpVPSTJQ0amP5LkQetY7h9Hxg9N8rvrqWvZVNUxSa48ZeqMJP+wqcVM0d3HJ3nHyPStqmqsW/Pu8CsbOHesy/C0jsS7untVHbzgfVfbc6G6+91JPjZl6vAkd5p33aq6YJJfHJn+63nXhZ1I8BgAAAAAAAAAAAAAAADYY1XVI5M8a2T6i0nu1N0/WMeSf5PktJG5x1TVz6+nviXzyJHxZ3X3ZnfGHfOMGXMvrarLblIdN62qy8x57rRwd5K8bZXzzpfkXvNsWFX7JZlW72p77g5PHBl/6AbWfEiG+7PS+7v77RtYF3YcwWMAAAAAAAAAAAAAAABgj1NVR1TVK5L8eZKacsiHktyou09Yz7qT48fCr5XkJVX1/9ZV7BKoqvsmueOUqS8medwmlzOqu1+d5L9Hpg9L8taquvkmlFKZv+vxvaeMfaa7P7uGc+fd8845bzD3x0leP+d6c+vuVyT5jylTt6qqY9e7XlVdK8kfTJk6PRvrTA07kuAxAAAAAAAAAAAAAAAAsMeoqqOq6olJ/jfJWPfhv05ys+7+xpzb/GGST4/MHZDkr6rqP6rqmKpaU8arqvarqitV1S9U1dXnrGsuVXXTJM+dMnVWkgd29w83s541uH+SH43MXSLJ26rqeVV1pbUuWFXnr6rrVtUDq+pCazztIVV1h7XuMdnnRkkePGVqreHuG1fVo6pqWph+bM8jkjxlytTzu/v4ta6zYPdLMu3n75lVdbO1LjL5Hr8yyf5Tph/X3Z+asz7YsfbZ6gIAAAAAAAAAAAAAAAAAdodJ+PKoJJdPcsMkt05yTMYbOn48ySO7+80b2be7f1RVd07yriRHjhx2q8nru1X1gSTHJTkpQ5fZg5IcnOTCk/MvnuRiu9T9wCQf20iNa1FVhyR5aIYg9cosWid5cHf/5+6uY726+9NV9QsZAqd7TzmkMoR7H1xVX0ry0SRfSfKDyfxBSQ5JckSG+3+pJIfvcv7bknx3DaVcMMnrqurlSf6ku0e/Z1W1b4bA9J8n2XfF9CuTvGIN+53jT5P8XFX9UZLXd3fP2PdWGULlR6+Y+ny2sJN1d59QVT+T5K1JDt1l6vwZulY/Osmzuvv0aedX1T5Jjk3ylzlvJ+ckeUGGew2sIHgMAAAAAAAAAAAAAAAAbIlJ2PJSGUKPRye5xYzDf66qbrLGpffJT8Kj0zqdrvTBJM9I8k/dffYa95ipu78wqfe1Sa4849ALJbndOpY+NckXNlJbVR2f5DNJvpzkxAyB21Mnr70zhJyvmOTOGe7jSqckuV93v3odex6R5HpJ7jZyyKFV9buTuj6T5IvdfeZa11+pu/+1qu6U5KVJLjDj0EtNXmv1lQwB8bWqJPdMcs+q+t8k/5Hhvn97Mn+hJFdLctsMQfOV3pTkPrPCwyOum+Tfknyrqv4jQwfubyc5LcP9uEKGn7crTDn3uCS37e7vzNqgqvZOcunJGlfMuQPCu7pvVV00w/f1c939g5HjzqW7P1JVN07y6hV17pMhNPyoqnpjkv+ZXFtnCIhfJcPP1EWmLHt2kj9K8kdrvadVdb4M93P053Ty3v1gkg9390mrrHdwkmskuXbG79l9quqAJP+92nqwaILHAAAAAAAAAAAAAAAAwKaqqr/N0O334hnvPrzS+SevRflEktcneVl3f2SB6/6fSfj4Okl+P8kjMj3Eu1bfT/LiJE/p7q9tsLSLTV7zeE2Sh3X3V9ZycFU9PMnDk1xylUMPSfLkXb7+8SSo+5rufsz6y0y6+41V9dNJnpbkHhlCwPP6UpJnJXled/9wxnE/njF32clrLX6Q4X3zrDUEZGfteeEkv7DGPc9O8vwMXb9Hw8FV9aQMAfLLJtlvDevef/I65/zjk3w2yb27+9ujZ+X/uldfM8ljkzws5+5efFiS+0xea/GuJI/o7g+u5eCqunKSl2QIhk/rnL2r/3vvVtUXkjy7u/9yxXr3ztBF+gpZ/bn3gMmrq+rTSR7a3W9bS92wUYLHAAAAAAAAAAAAAAAAwGa7dlYPom7EWUl+lKG76/eSfC3JOWHHjyT5UHd/fTfu/3+6+0dJHltVT0tybJKfy9D5d981nP75JO/JEJB+3WStjTo5Q4j2ckkOXOM5x2cIHL+guz+2zv2ukfm+1/smuVKSb85x7v+ZhLTvVVWPS/IrSe6SoTvvaiHkM5N8LMl/Zbj2d66xQ+6zMrzHbpHkBkmunuSoNZZ7VoauuS9O8pLuPmUtJ3X3xyYB69smuWGGn69LZfWw7Dk+n6Ez9AvWGCi/cWZ38V7NT01eB+cnnZ9HTd73v19Vf5HhZ+juGToQryUf+aUkr0vyD939/nXWeUSSa67znCS5TIb3/UpXzPCeXo/KcK935/MSzqXW32EdYHNMfuH5xC5DV+nuT25VPWyu4/5yP/+CAgAW4tIPP2Mjn07IDuX3TQBgUfy+yUp+1wQAFsXvmkzj900AYFH8vrnn8fdyAZZPVe2f5KoZwqFHZejium+S05N8J8lXkny4u7+zwX2m/XnCF7v7MlVVGcKMl09yeIYQ6MEZujL/OENA+StJPtXdx22kjmVTVRfMcP8vkSFcemCGkO4PMwSdv5DkIwsKeqeqzp+hy+0lk1wgQ3fng5N0klMne34xySfXGjZew577ZehIfJkkh072PH+G6zwtQ+D3K5M9v7GIPTdTVR2UoRPx0UkukuF9Wxk+cOCcn6FPdPeGguuwJ9LxGAAAAAAAAAAAAAAAAGATdffpGTrbfnALtj9sUkNn6Ab7pS2oYUt190kZOhlv1n6nZJO/3919RpJPTV47Tnf/MMl/T17AAu211QUAAAAAAAAAAAAAAAAAsGkO2OoCAFhegscAAAAAAAAAAAAAAAAAAIDgMQAAAAAAAAAAAAAAAAAAIHgMAAAAAAAAAAAAAAAAAABE8BgAAAAAAAAAAAAAAAAAAIjgMQAAAAAAAAAAAAAAAAAAEMFjAAAAAAAAAAAAAAAAAAAggscAAAAAAAAAAAAAAAAAAEAEjwEAAAAAAAAAAAAAAAAAgAgeAwAAAAAAAAAAAAAAAAAAETwGAAAAAAAAAAAAAAAAAACS7LPVBQAAAAAAAAAAAAAAAACwGFV16STXmbym2beqnp7kc0k+P/nfr3Z3b1KJACwxwWMAAAAAAAAAAAAAAACAba6q7pjkxUkOW+XQvZI8fMXYj6rqf7v7arujNgC2j722ugAAAAAAAAAAAAAAAAAANuzCWT10PObAJFddYC0AbFOCxwAAAAAAAAAAAAAAAADbXHe/qLtrI6+tvgYAtp7gMQAAAAAAAAAAAAAAAAAAIHgMAAAAAAAAAAAAAAAAAAAIHgMAAAAAAAAAAAAAAAAAABE8BgAAAAAAAAAAAAAAAAAAIngMAAAAAAAAAAAAAAAAAABE8BgAAAAAAAAAAAAAAAAAAIjgMQAAAAAAAAAAAAAAAAAAEMFjAAAAAAAAAAAAAAAAAAAggscAAAAAAAAAAAAAAAAAAEAEjwEAAAAAAAAAAAAAAAAAgAgeAwAAAAAAAAAAAAAAAAAAETwGAAAAAAAAAAAAAAAAAAAieAwAAAAAAAAAAAAAAAAAAETwGAAAAAAAAAAAAAAAAAAAiOAxAAAAAAAAAAAAAAAAAAAQwWMAAAAAAAAAAAAAAAAAACCCxwAAAAAAAAAAAAAAAAAAQASPAQAAAAAAAAAAAAAAAACACB4DAAAAAAAAAAAAAAAAAAARPAYAAAAAAAAAAAAAAAAAACJ4DAAAAAAAAAAAAAAAAAAARPAYAAAAAAAAAAAAAAAAAACI4DEAAAAAAAAAAAAAAAAAABDBYwAAAAAAAAAAAAAAAAAAIMk+W10AAExzmeNfudUlAAA7xNlbXQAAAAAAAAAAAAAAwDah4zEAAAAAAAAAAAAAAAAAACB4DAAAAAAAAAAAAAAAAAAACB4DAAAAAAAAAAAAAAAAAAARPAYAAAAAAAAAAAAAAAAAACJ4DAAAAAAAAAAAAAAAAAAARPAYAAAAAAAAAAAAAAAAAACI4DEAAAAAAAAAAPD/2bvPcFnPqn7833XSIIQ0ktACIdTQpFelBlBRmiAIihRFRFBBsPwsBEEBaSIiFjoiRYrS/qCCBBCkBgWpoYROIJAOCSRZ/xfPBDY788xus2efvc/nc11znXPu+3nWvWb2zJAXfPcCAAAAAACI4DEAAAAAAAAAAAAAAAAAABDBYwAAAAAAAAAAAAAAAAAAIILHAAAAAAAAAAAAAAAAAABABI8BAAAAAAAAAAAAAAAAAIAke291AwAAAAAAAAAAAAAAANvBrse8obe6B3aeC552l9rqHgAALmTiMQAAAAAAAAAAAAAAAAALU1VXrapew+P4re4ZYE8heAwAAAAAAAAAAAAAAADAIp2V5L+TfHurGwHgR+291Q0AAAAAAAAAAAAAAAAAsOfo7q8nuWWSVNURSY6ZPO6c5G5b2BpsS1V1SIbPzmWSfCLJm7r7vK3tiu1K8BgAAAAAAAAAAAAAAABYqKo6KclR67z9ft398jn08MAkL9xgmQd194s22suerLu/keQbSd5ZVWdE8BjWpKpun+TVSQ5ZsvzRqvqZ7v7SFrXFNrZrqxsAAAAAAAAAAAAAAAAA9jgbmcT5N1V1+S3uYZ41ANalqg5L8vL8aOg4Sa6b5FVVVYvviu3OxGMAAAAAAAAAAAAAAABg0Y5JcuUk11j2uH6SS65w7yFJXlRVd+ruXm8D3f3Sqnpjkqste1w1yfWSXGzJ5Z9K8vHJnz94dPe313s+wBz8SpIjRvZuluSmSd63uHbYCQSPAQAAAAAAAAAAAAAAgIXq7vOSfHryeMOF61X1oiQPWEWJOyT5rSR/tcE+TkvygcnjB6rq+CS3WbL0U9190kbOAtgEV17FvuAxa7JrqxsAAAAAAAAAAAAAAAAAWIcnV9U1t7oJgC100gb34SIEjwEAAAAAAAAAAAAAAIDd1Qtm7F0syUurap9FNQOwm3l+klNG9j6Y5L0L7IUdQvAYAAAAAAAAAAAAAAAA2F39Y5LXzti/YZLHLaYVgN1Ld38jyb2TfG3Z1nuT3LO7e/Fdsd3tvdUNAAAAAAAAAAAAAAAAAMzw0CQ/nuTSI/u/X1Vv6u73LLAngN1Cd7+9qq6V5B5JLpPk40ne0N0XbG1nbFeCxwAAAAAAAAAAAAAAAMBuq7tPqaqHJHn9yCV7JfnHqrped5+1wNYAdgvdfVqSF251H+wMu7a6AQAAAAAAAAAAAAAAAIBZuvsNSV4w45IrJ3nmYroBgJ1L8BgAAAAAAAAAAAAAAADYDh6Z5KQZ+79SVXddTCsAsDMJHgMAAAAAAAAAAAAAAAC7ve4+M8kDk1ww47LnVtURi+kIAHYewWMAAAAAAAAAAAAAAABgW+judyR55oxLjkjyvMV0wyY4b6sbANjTCR4DAAAAAAAAAAAAAAAA28kfJfn4jP27VNVDFtUMc/XdrW4AYE+391Y3AAAAAAAAAAAAAAAAALBa3X1OVd0/yXuT7DNy2TOq6j+7+7MLbG3VqurgJD+V5BZJfizJFZMclmT/JJ0hgPv1JCcl+XCSdyV5W3efswXtrllV7Z/kJ5PcKsn1kxyd5FJJLp7k+0nOXPL4YpJPJzkxyX6b2NPBSe6a5NYZXvOjkhyYZK8kpyX5dpJPJvnvJG/v7vevofZeGZ7bSr7X3d9bct/lkhw76el6SS6d5PAMA0fPSPK5JCck+bckb1567yr7ukxWlyH8xqzaVXVkkntNer3BpJc1hfur6ugkd0tyyyTHJDkyyQFJzs/w2n8ryf9keP3f0t2fX0v9Fc7+8SR3SnLzJFdLckiSSyb5XobP2ilJvpLh8/bxJB+b/PnF7u51nnmVJPdIcrMM77dDkxyc4fl+N8npSb48eXxicubHkpzY3TMnf1fVbVfbR3cfv9beZ5y7f5I7JvnxDO+DozJMmd8/SWV4Xt9M8oUk/5vkPRl+lmeu46xDM7xmK/l6d5815f5dSW6U5KczfA8dk+GzdUGG99r/JXl7khd09ylr7W+nEzwGAAAAAAAAAAAAAAAAtpXuPqGqnpDk8SOXHJDkJVV16+4+f4GtzVRVN03yuxkCmGOh6Uz2Dkxy9QyByd9PclZVvSTJU7v7pE1udV2q6kpJ/iDJL2b4GUyzd4aQ7hGTf19/k3u6cpI/SXK/JPuOXHb45HGNDD+bVNUJSZ7R3f+0imNulSHEuJI/TfK4qrpdkt9KcpcMwedZPd0sycOSnFJVT0/yzDUE0N+bIRy6kjsmeevShUlw8+5JHp7kdhmCpRea9d79EVV1mySPTXL7kUv2SXK5yeO6Se6f5IKqemOSJ3f3f6/2rCln3zfJHye51sglF588Ds3wWVvuxJH1WWfeOMmTMzzfmnLJ3hkC9gdn+s/m+1V19RU+46t5r/2gpTVcO71A1TEZvrfum9kB+0tOHlfO8J55ZJJzq+pVSZ7S3R9dw7G/leS4VVz3iCR/s6TXayf59ST3yfD5mebIyeOnkhxXVcd199PW0NuOt2urGwAAAAAAAAAAAAAAAABYhycmmTWV9pYZQrBbrqoOrKoXZQiC3ivTg5vfyzD9dGw66AFJfiPJJ6rqTybB0N1CVe2qqj/KMDH4oRkPHZ+eYRrqN5OcnWH66Gb29cgMk00fmOmh4zOTfDXDFNrlbpjkpVX16qo6aIWjvpUhpLqSS1XV65L8Z4ZQ71joeJrDkjwpyf9U1Y+t8p4XZZiWfZGJsFNqJ0lqcO8M03dfk/EA7UxVtX9VvSDJ8RkPHZ+S4b2w3K4M06nfVVV/vNb3elUdUFWvT/KyTA8dn5rhfXhKklnThfdf47mPz/AZPzYXfc3OzjDd++tJZgXH98nKA2f/JMPP5jMZJqRviqrat6qemuSjSR6c6aHj8zJMiz5tpMx+SX4pyYer6llVdbFVHv+WJM/NMAV71s/oipP37N2r6r8yfN4fkfHQ8XL7J3lqVT1nldfvEXab/3EBAAAAAAAAAAAAAAAAWK3JJONfTvLdGZcdV1U3XFBLU1XV0Uk+kOQBuWgY8fjJ+hHdvV93X6G7D8wwNfR2GYKj31l2z8UyTHp+c1VdYhNbX5VJD29I8mcZQoZLfS/JP2aYqHtAdx/c3Vfq7iO6+4Du3ivD5NdrJvnZJC+dU09VVc9L8pe5aFjyc0l+M8nh3X1gd18+w2t66yRvmlLunkn+u6oOm7KXJOnuj3b31ZNcJsnPJ3nFyKWPyBCo3YhrJPmvqrrVShd29+O6+9ZJDsoQwB3r67Akqao7JfnfJK9Mcsx6G6yqQ5K8M8mDpmy/K0P4fv/uPry7j8gQ/rxfhtDoUnsleUKSl602fFxVF8/wc7zLsq2vZnj9L9fdh07eh4dPzr5hhqnin1zNGSPnPjVDIHhpmPzcJH+R4bW/ZHcf1d2XnZx59Qxh3v9c61nd/Wfdfa/uvlqGyej3WG/fY6rq0CTvSPKYXDQIfUKGSdiXT7Jfdx/Z3YdkeF43S/LsDOHupfbK8Ll7T1UdkRV093u7+9e6+wYZvg8fO3LpsUk+lORfkvz4ap7biIdV1S9t4P4dRfAYAAAAAAAAAAAAAAAA2Ja6+1MZAoNj9skwtXbapM5NV1WXS/L2DCHDpc5J8pDuvl13v6S7f2Tqa3ef1d3Hd/eDktwoQxh0uTsleVNVTZuevBBVtW+Sf01y5ynbn0lyy+7+5e5+a3efPa1Gd5/e3Z/s7jcleducWvvLJL8yZf11SW7Q3c/u7lOW9HBed7+ru382Q9B1uWsmedVK4dfuPrm7X53k72dcdkqGMPZvZZgEfLUMweB9Jn9ePckvJnlVpk9iToYg5huq6hqz+lnS1wXd/Ykknxq55GpV9bIk/5bkuqupOaaq9sswrfZGU7Yfm+Q23f2a7v7BLwzo7u9298uT3Hxy73L3SXLcKlv40wwh8qX+L8n1uvtvuvtrSze6+/vd/eHufkqS6yR56irP+YGqunOGgO5SZya5VXf/QXd/ort/MJm4Byd29wu7+9gM06/XNbm4u8/KMBV4bqrqgCRvzfDzWOqCDOHqG3f3c7r7q939g6nlk5/j+7v7NzO8lsdPKX+DJMdX1cGr7ae7z0nypZHtGyW5bJI3ZpgI/ksZfv5XTnJohs/VgUl+LMP/Vpw846g/q6qVpk3vEQSPAQAAAAAAAAAAAAAAgO3s2RlCcmOumWHq6EJV1V5J/jnJUVO279Pdz1tNne7+ZJJbJvnolO3bJHnGupvcuL9Icocp61/KEDr+0IL7SVX9XJLfnrL1viT37u4zZt3f3Y9N8uYpW7dN8pANtvf+JJedhLH/urvf3t2f6e4zJuHnMyaB1Jd1972T3CTJh0dqHZRhEvBeI/tr8VtJ7jv5+ykZwuSPT/ILSW6RYcryat9nT01y0ynrz+zuJywN4C43CaffN8nXpmz/UVVde9bBVXXlJI9ctnx+hs/bKRe94yLnn58huHzmStcuObOS/NWUrd/t7g+spkZ3vy7DLyjYXTw3Q0B4uUdOpi2vGJLu7q9mmEb8H1O2r5nkJRtr8Qfe1d2X7e67dPcfdvc/TX6JwOe7+9TJ5+rMyVTyp2QI1p8wUuuoXHRS9h5J8BgAAAAAAAAAAAAAAADYtiYhuAclOX3GZY+oqmkB2c30iCQ/PmX9b7v79Wsp1N3fSXLPJNOmBj+8qqads6mq6haZHvA9P8k9l09xXoSq2j/Js6ZsnZ/k/t39vVWW+p2R9eMmU57X67vdfd5qL+7uD2eYivyRkUtumOTXNtDPhU5O8rgk10tyRHffo7uP6+5Xdvd7u/vTGSZBf3tWkaq6QZKHT9n6XJLfXU0j3X1ahvDvcntlCEPPct8ME26Xemd3f3w1Z0/OPzvJK1Z7fYZfCnDVZWvfTfLiNdRIkuev8fpNUVV3yxA4X+7/6+6/XkutyTTk+yX56pTtu1TV/dbR4nIXrHzJj/T0zSQ/n2Hq/DTHbrijHUDwGAAAAAAAAAAAAAAAANjWuvvLSX5zxiWV5EVVdcgi+qmqA5IcN2Xr/CR/vp6a3X1ikmlTkitbMNE5ydMmZy/3ytVOet0Ev5rk8lPWXzl5/VZlMmX63VO2LpshAL4wkyDuXTKEWaf5w6rae4PHvKW7/7S7PzI2zXbSx5NWqPMnmZ5ZfPJaAtdJXp7pz/duVXXkjPvuPGVtbGL0LKuaRj7jzE9091iwdcxrk5y6xnvmqqp2Zfy7ZKXQ91STSdNPHdn+8zm8d9esuz+X8XD5LRbZy+5K8BgAAAAAAAAAAAAAAADY9rr7HzOE98ZcPslzFtTOrySZFnJ+Q3d/ZQN1n5npEz5/vKputoG6a1JVN88w6XWaJy+qjymmTdtNkpeuo9a/j6z//DpqbUh3fzHJX45sH5nkrgtq5a+TfHHaxiQQfLcpW99P8sq1HNLdZyR575StvZL83Ixbj5qydv5azp6c//4kj07ylFVcPq8zz0nykAzh7W+t9f45uUuSa0xZ/5/uft8G6j4/0yfSXykLDvIv8W8j65deaBe7KcFjAAAAAAAAAAAAAAAAYKd4aJKTZ+z/QlXdbwF9PGBk/c0bKdrdJ2V8guv9N1J7jR48sv7x7v7oAvv4gaq6fpKrT9k6J8nx6yg5NrX52KqaNul5sz0z44HWX1hEA919bncf1d0PnLJ9r0zPK/73JEi8VmOv/x1n3HP4lLWrrOPsdPczuvtZq7h02plXXs97pLtf091/1t1bNfl4s763zkzy1pHtRX5vLfWpkfVDF9rFbkrwGAAAAAAAAAAAAAAAANgRuvuUDFNDZ/mbyXTWTVFVV0hyg5Ht/57DEcePrN9lDrVXa9pk2yR5ywJ7WO4nR9Y/1t3fXUe9T4+sH5jkquuotyHd/c0k7xrZvv0iexkx9vqPBYhXMvb633DGPWdNWfuZqrrsOntYjWlnXirJ3TfxzLmrqv2S/NTI9mZ+b92hqi4+h/prNW0Cc5JsRS+7HcFjAAAAAAAAAAAAAAAAYMfo7jckecGMSw5O8uJNnFo7FgI9N8nH5lB/LAR4xao6eg71Z6qqKyc5YmT77Zt9/gw/PrJ+4jrrfW3G3rTJyovwhpH1S1XVUQvtZInJZ+mWI9vzfv0vV1WXGNn7+pS1/ZK8oqouts4+VjLtzCR5zuSzsl3cPOOh2xPmUH/se2u/ydmLdsEWnLltCB4DAAAAAAAAAAAAAAAAO80jk5w0Y//2k2s2w9hE1q919zzCbp+bsXf9OdRfydg05yT55ALOH3OdkfUvrKdYd38nydkj25dbT805mDU9+EYL6+KirpBhEvQ063r9k3xjxt7Y6/9fI+u3TvLeqrreOnuZZezMyyR5f1XdcxPO3Axj31vnZ3YIf7W2+nuLNRA8BgAAAAAAAAAAAAAAAHaU7j4zyQMze6rlE6vq2ptw/DVH1r86p/qzgpzXmtMZs4wFFM/L7LD3pqmqfZOMTfw9cwOlzxlZP2gDNTfi0zP2fmxhXVzU1Wbsrff1H3vtk/HX/1Uz7rlekg9X1auq6nZznHj+piTfGdm7VJJXV9X7qup+mzh1eR7GvrdOnscvTOjuU5OcMbK9iO8t1kDwGAAAAAAAAAAAAAAAANhxuvsdSZ4545KLJXlpVe0z56OvMLL+zXkU7+5vJ/nuyPbl53HGCq46sv7l7j5vAedPc0TGs3JjodDVGAu/bkmAtLtPTvK9ke1LLbKXZS47Y2+9r/+s4PHU17+735rkP2bcV0nuleQ/k3y+qv6iqsaC9KvS3WckeeIKl900yT8l+XpVvbCqfrKq9t7IuZtgU7+3Jr4ysr6I7y3WQPAYAAAAAAAAAAAAAAAA2Kn+KMnHZ+xfP8nj53zmESPrY2Hh9RgLc46dPU8Hj6yPTTNdhFmh22dUVa/nkfFA5FaGRr89sr5VU5iT2a//Cet87U+cUXPW6/+rGQ+4LnVUkt9L8qGq+kRVPbqqDlvFfdM8NcnbVnHdQRkmsb8lydeq6mlVdfV1njlvO/17izUQPAYAAAAAAAAAAAAAAAB2pO4+J8n9k3x/xmW/V1U/McdjLzGyfu4czxgLA+4/xzPGjAVcNzJZeKMuvoVnL9rYz34rg8e7zevf3V9McmyST63htmOSPC3Jl6vqpWsNA3f395LcPcmb1nDbYUkeneRTVfX2qrrDWs7cBDv9e4s12N3GcQMAAAAAAAAAAAAAAADMTXefUFVPyPhk411JXlJV1+vuM+dw5L4j64sI8O03xzPGHDiyfvYCzh6zz4y9k5OcNefzxqYOL8J5I+tbGd6c9fqflOT8OZ83cwpvd3+qqm6c5E+T/EaSi62y7n5JfjHJvavqyUke190XrObG7j6rqu6S5KFJjktymVWemSS3TXLbqvqXJA/u7tPWcO+87PTvLdZA8BgAAAAAAAAAAAAAAADY6Z6Y5GeT3HRk/+gkf5XkwXM467xMD2LOCmeu1VhIcBHh37GQ4KoCmpvknBl7j+ruly+sk803FqKdd7h6LWa9/rfs7q8trJOJ7j4ryaOr6mlJfnnyuNYqb98nyZ8kuV5V3bO7x8Ley8/sJH9XVS9J8vNJHpAhVFyrPPceSa5bVbfegtds7DnulO8t1mDXVjcAAAAAAAAAAAAAAAAAsJm6+/wMwcNZk1IfVFV3n8NxYyHMeU71vPjI+ulzPGPM90bWx0KFizArdLvaabfbxSVG1hfxsx+z277+3f217v6L7r52kpskeUaGKcyrcdckz17Hmd/p7hd39+2TXCnJHyT50Cpvv2qSN1fVol+3nf69xRoIHgMAAAAAAAAAAAAAAAA7Xnd/Ksnvr3DZP1TVpTd41LdH1ucZJBwL8J02xzPGjE0nPWgBZ485c8be/gvrYjHGns9pi2ximW3x+nf3B7v70d19dIYQ8l8m+dYKtz20qn5iA2d+cRJ8vnGGEPLvJ/n0CrddL8lj1nvmOu307y3WQPAYAAAAAAAAAAAAAAAA2FM8O8lbZ+wfnuR5GzzjayPrB2+wbpJkMgn1gJHtU+dxxgpOGVk/YgFnjzljxt6lFtbFJquqAzMeBP3GIntZZtu9/pMQ8u8kuUKSP8rsaeh/NKczv9DdT0lyTJL7JvnSjMt/t6oWOUV8U7+3Jg4fWV/E9xZrIHgMAAAAAAAAAAAAAAAA7BG6u5M8KMnpMy772SQ338AxJ46sX3YDNZc6KkmN7H1sTmfM8pWR9ctW1dhE003V3WdkfHLtFRfZyya7yoy9Dy+si4v63Iy93fr17+7vdvcTk9wiyVdHLrv9JPQ9rzO7u1+R5AZJ3jly2YFJbjevM1dhU7+3Jr8wYWya/CK+t1gDwWMAAAAAAAAAAAAAAABgj9HdX07ymytctt8Gjvi/kfXLbaDmUkfN2PvAnM6YZSygWEmus4Dzx4yFF6+20C4216zg8YcW1sVFfTrJeSN72+L17+7/TXL3TH8e+ya59iac+a3JmSeNXHLDeZ85w9j31sWr6uA51L9ixn9hwiK+t1gDwWMAAAAAAAAAAAAAAABgj9Ld/5jktZtU/l0j6wdV1Tymh15/ZP1b3T1r8uy8/M+Mvdss4PwxHx9Zv9lWTWLeBDcZWf9Sd39joZ0s0d3fS/KZke3bLrCVDenuDyT515HtIzbpzFOTPG2RZ44Y+95KkmvNof71R9Y7WxuaZwrBYwAAAAAAAAAAAAAAAGBP9NAkJ29C3Q8kOXVk7xZzqD8W7j1+DrVX471JLhjZu8+CephmLLy4X7ZR+HUFdxhZf91Cu5hu7PW/eVUdtIgGquoBVfWoDZZ588j6/iNn3qqqnlRVl1jUmZuhu7+W5KMj2zefwxFj31sndPfpc6jPHAkeAwAAAAAAAAAAAAAAAHuc7j4lyUM2oe55SV4zsn2rjdSuqosl+YmR7edupPZqdfdpSd4zsn3jqjpmEX1M8ZYZe49eWBebpKouneQGI9svWGQvI8bCs/sm+c0F9fDzSZ5eVUdvoMZXRtZPGVm/WZI/mJy9qDM3yytH1jf0vTUxFppfyPcWayN4DAAAAAAAAAAAAAAAAOyRuvsN2ZzQ5t+OrP9iVe27gbr3T3LglPXPJ/n3DdRdq1fM2HvKwrpYoru/nOQdI9vHVtVY8HG7eFiSmrL+4e7+8KKbmeL1Sc4a2XtUVR2xoD4qyQM3cP/YlOEvrXDfg7bgzHl7fpJzp6z/zEZ+flV1xyRXn7J1VpKXrbcum0fwGAAAAAAAAAAAAAAAANiTPTLJSfMs2N0nJHnTlK3Dk9x7PTWrau8kjxrZflp393rqrtNLkpwxsneXqtrI9NeN+KsZe6+oqqsurJM5qqr9MwSPp3nsInsZ091nZjzEf2iS108mdi/CA6pqvdnJa01Z+1p3f3KF+25VVVeZ45lJ8vZ11luX7v56kudN2donya9toPTvjqz/7eR9w25G8BgAAAAAAAAAAAAAAADYY02Cbw9McsGcSz8qyTlT1p++zumhT0pyzSnr78j4hOVNMXnNnjzjkpdW1d0W1c+Fuvtfkrx3ZPtSSd5WVbdZYEvz8uwk094zr+zuNy66mRn+POOB9Jsl+beqOmoBfRyV5PZrvamqKtN/McDrVnN71j/1+BemrH2yuz+1znob8dgk35yy/odVNe37Z6aqeniSO07Z+nSS49Zaj8UQPAYAAAAAAAAAAAAAAAD2aN39jiTPnHPNE5M8fMrWEUn+uaoOXm2tqnpYkkdP2To7yYMXPO34Qs9I8j8je/sm+Zeq+seVpgxX1a6qumFV/XGSP55DXw9O8t2RvSsmeXtV/d1aQpRVdcmquklVPaSqDp1Dj6tWVY/K9EDryUl+a5G9rKS7v5HZPd06yUer6ver6vDV1q2qw6vqdlX14DW085dVdfU1XJ8Mn7EfW7Z2bpInrvL+h1fVnddyYFXdMslDp2xtySTr7v52kl/MRX8Rw8WTvKqqjlxtrckvH3j6lK3zkzyou8c+p2yxvbe6AQAAAAAAAAAAAAAAAIDdwB8l+akk15pXwe5+QVVdMRed7HmbJB+oqgd297vH7q+qyyZ5aoYg4HLnJrl7d39uXv2uRXefW1X3SvKeTJ/GW0l+KckvVdWJST6Q5BtJzkpyQJJDk1wtw+t90Bz7+kRV3TfJa5LsNdLXQ5M8tKpOyhCe/uKkryTZP8mBGZ7TZZJcKclhS+5/e5Jvz6vfMZP3zZOT3HfK9mlJfnoS9N2tdPeLq+o6SR4zcsklMzyvJ1XVR5J8PMlXk3wnyT5JLpHk4CSXTnLZJEdneL8kyVeSvGCVrVwnyYer6m+SPKO7vz524eSXAByX5JFTtn+vu7+0yjMPTvLGqnpVkid29//OOHOfDCH5p2Z43ku9JsmrV3nm3HX3f1TVryZ5fobPy4WuneRDVfWr3f2Gsfsnr+efJPmdaeUz/LKE98yxZeZM8BgAAAAAAAAAAAAAAABYqKraO8lVkhwzeVxz8ud1l136sqr6eJJPL3t8vrvPn2dP3X1OVd0/yXtz0SDgRuo+rqq+nuSvMkwCvtBVk/zXJHz59iSfSXJmkv2SXCHJTZPcdtk9F/pKknt193vn1ed6dPdnq+rYJG9MctSMS682eazkXUluNWX9FlX11iTvmDze193nzujrdVX1s0lekdmh5itNHqv1xQyh3/X6iaq68D38xQxB7LMnj+9kCNhePsmNk9w+ya4pNU5Mcrfu/sRqD51Mnb5pktuNXHKjqnpEkk8m+WR3f3m1tafp7t+tqtOSPD7Tn0MyBFqvN3ms1miQd8T+SX43yaOr6oNJ3pnk60m+leFzdpkkN0pyxyQXW3ZvJ3l8dz9rjWdWknsnuXdVfSbJW5N8Ickpk/1DM0xVvlOSaVOf/y3JL640xbyqLpbhM3VMhp/t2HV/kMnPNclnu/v7q3kS3f3Cqjo1yYszBPEvdESS10+e238k+VSGz8Q+GYLiN05yhwyv/XKnJ7n/rNDylP6PSHKLJHcdueTKk4nwH0ryke4+ZxX1bpTxz0Kq6tEZfqHCCbO+Z3YywWMAAAAAAAAAAAAAAABg0T6ZIXi8kstOHscuW/9shuDuXHX3CVX1hAyByXnW/buqekeG8PEdl23/2OSxGuck+fskx3X36XNscd26+/+q6kZJnpHk/vnRCamrdVKS/5fknzNMHr74sv19M7wHLnwfnDPlmuV9vaWqrj3p6+fX2dfS/v46yd9193c2UGevrD6Evdw5SZ6d4We/qh6q6qVJfjpD2HWW62R4fhfed1aGQOlTu/uV6+g13f3nVfW2JM9KcpP11FjifRkmA792hevGQrW7MoRzRwO6y3w+yUO6+22ruHZWkPeqWf331FkZpq7/9azQcVW9OUPY+IoZD3Uv9aQlfz+vqj6X5N3d/eCVbuzuf518hp6e5F7LzlvLczs/ycuS/H53f201N0ymlj8hK//vxBWSPGfy9/Oq6mNJHtXdb19W7y+S3C/Jkas4/mmTP79XVSckuUt3nzLrhp1G8BgAAAAAAAAAAAAAAABYtI3mmjYzF/XEJD+T5GbzLDqZUHunqrphkgdlmOB5xVXc+v0k70/yL0le0t3fnGdf89Dd30rygEm472FJ7pkhMD7LmRkmHL8oyWsvnGA9CQ7eeIV7l0+nHevrK0nuU1WPzQ9f82Oycgj5vAzTdd+V5F+TvHOlCbSr9KUk5yY5OkMIeSWd5P8yBLKfv9rQ5hI/kZVDx9MckGEq7DXXce8PTCZy37SqbpfklzKEoFd6XyRDCPcDGSaBv3oN051/MUOw/9YZPr/XyeyJ10t9J8l/JnlekjeuYaL6Xyf5cIYJujfPMMF5Nc8xGQK5H8wwVfil3X3mKu75qVXWnmbvJFfPMO15VSbTr+9TVVdP8uAkd09yjVXcekGGz9C/Jnlxd39hjb1eI6v75RRL7Z3h9Z82ff1mWV3oeKl9M/xMD8gPJ1bvEWo+33cA8zf5jRj/t2TpOt39sa3qh8Xa9Zg3+B8oAGAuLnjaXTbyGwrZoT7/zH399yYAMBdHP/J7/nuTH+G/NQGAefHfmkzjvzcBgHnx35t7Hv+/XIDdV1VdLkM48qgkB2cI1H4/Qwjyaxkm7X60u8/ZohbXraqukuG5XSHJJTOEfb89eXw+yYe7+7wt6OvgJNfNEPo+IsPk5L0yvObfyDBN+8Pd/d0NnHHbDKHZ5V7Q3b9SVftmmBZ7lQw/9wMmj4tlmGx84Wv0v5NQ945RVVfIEP6+QpJDMrz+nSFs/NUMk5Y/tobg70rnXTpD2PZySQ6cPPbPEC4/M8Pn7MQkn+juWdOL13LmJTMEZ4/KEHw+MMPPt5OcneF99rkMz3M1YePdSlUdlmFK+1FJLpXhZ3h+hs/Qyfnh99ZZW9UjG2PiMQAAAAAAAAAAAAAAAMAW6O6vZghb7jjd/dkMId7dSneflmGS8Va41KSH7yX5+OSxR+nuL2WY/Lyo807OEIZdmEmY+IOTx47T3adkmA7NDrVrqxsAAAAAAAAAAAAAAAAAgD3Axba6AYCVCB4DAAAAAAAAAAAAAAAAAACCxwAAAAAAAAAAAAAAAAAAgOAxAAAAAAAAAAAAAAAAAAAQwWMAAAAAAAAAAAAAAAAAACCCxwAAAAAAAAAAAAAAAAAAQASPAQAAAAAAAAAAAAAAAACACB4DAAAAAAAAAAAAAAAAAAARPAYAAAAAAAAAAAAAAAAAACJ4DAAAAAAAAAAAAAAAAAAARPAYAAAAAAAAAAAAAAAAAABIsvdWNwAAAAAAAAAAAAAAAAAA21lV7ZXk2klunOTOI5ddp6qemOTTFz66+5QFtQiwKoLHAAAAAAAAAAAAAAAAALBOVfX4JI9JcvEVLr18kv+37N5Tk7y6u39tk9oDWJNdW90AAAAAAAAAAAAAAAAAAGxjV8zKoeMxhyS5+hx7AdgQE48BAAAAAAAAAAAAAAAAYJ26+4FJHrjFbQDMhYnHAAAAAAAAAAAAAAAAAACA4DEAAAAAAAAAAAAAAAAAACB4DAAAAAAAAAAAAAAAAAAARPAYAAAAAAAAAAAAAAAAAACI4DEAAAAAAAAAAAAAAAAAABDBYwAAAAAAAAAAAAAAAAAAIILHAAAAAAAAAAAAAAAAAABABI8BAAAAAAAAAAAAAAAAAIAIHgMAAAAAAAAAAAAAAAAAABE8BgAAAAAAAAAAAAAAAAAAIngMAAAAAAAAAAAAAAAAAABE8BgAAAAAAAAAAAAAAAAAAIjgMQAAAAAAAAAAAAAAAAAAEMFjAAAAAAAAAAAAAAAAAAAggscAAAAAAAAAAAAAAAAAAEAEjwEAAAAAAAAAAAAAAAAAgAgeAwAAAAAAAAAAAAAAAAAAETwGAAAAAAAAAAAAAAAAAAAieAwAAAAAAAAAAAAAAAAAAETwGAAAAAAAAAAAAAAAAAAAiOAxAAAAAAAAAAAAAAAAAAAQwWMAAAAAAAAAAAAAAAAAACCCxwAAAAAAAAAAAAAAAAAAQASPAQAAAAAAAAAAAAAAAACACB4DAAAAAAAAAAAAAAAAAAARPAYAAAAAAAAAAAAAAAAAACJ4DAAAAAAAAAAAAAAAAAAARPAYAAAAAAAAAAAAAAAAAACI4DEAAAAAAAAAAAAAAAAAABDBYwAAAAAAAAAAAAAAAAAAIILHAAAAAAAAAAAAAAAAAABABI8BAAAAAAAAAAAAAAAAAIAIHgMAAAAAAAAAAAAAAAAAABE8BgAAAAAAAAAAAAAAAAAAIngMAAAAAAAAAAAAAAAAAABE8BgAAAAAAAAAAAAAAAAAAIjgMQAAAAAAAAAAAAAAAAAAEMFjAAAAAAAAAAAAAAAAAAAggscAAAAAAAAAAAAAAAAAAEAEjwEAAAAAAAAAAAAAAAAAgAgeAwAAAAAAAAAAAAAAAAAAETwGAAAAAAAAAAAAAAAAAAAieAwAAAAAAAAAAAAAAAAAAETwGAAAAAAAAAAAAAAAAAAAiOAxAAAAAAAAAAAAAAAAAAAQwWMAAAAAAAAAAAAAAAAAACCCxwAAAAAAAAAAAAAAAAAAQASPAQAAAAAAAAAAAAAAAACACB4DAAAAAAAAAAAAAAAAAAARPAYAAAAAAAAAAAAAAAAAACJ4DAAAAAAAAAAAAAAAAAAARPAYAAAAAAAAAAAAAAAAAACI4DEAAAAAAAAAAAAAAAAAABDBYwAAAAAAAAAAAAAAAAAAIILHAAAAAAAAAAAAAAAAAABABI8BAAAAAAAAAAAAAAAAAIAke291A2y9qtqV5JpJrpXkMkkumeS8JKcn+UySj3T3N7euw/Wrqr2TXD/JFZIcMnnsl+TUJN9O8o0kH+ruM7aqRwAAAAAAAAAAAAAAAACA3YHg8R6sqm6a5DeS/EySw2Zc2lX1wSQvTfKC7j5rEf2tV1UdmORXktw1yU2T7L/CLRdU1UeS/HuSv+3ukza3QwAAAAAAAAAAAAAAAACA3c+urW6Axauqo6rqjUnel+QBmR06TpJKcpMkf5XkpKp60Ca3uC5VdfGq+oskX0ryjCS3zcqh42T4HFw/ye8l+UxVvbqqrrBZfQIAAAAAAAAAAAAAAAAA7I5MPN7DVNVPJ3lFkgOXbZ2a5PVJ/ifJaUkOSvJjGaYGLw0mXyrJC6rqTkke1N3nbHLLq1JV10ryyiTXmbJ9TpJ/S/LhJF/PEKS+dJIbJPnJJBdbcu1eSe6Z5PZV9avd/drN7BsAAAAAAAAAAAAAAAAAYHcheLwHqap7JHlVhnDtUk9Pclx3nz3lnotlmAT82GX3/UKSw6vqzt39vU1qeVWq6pgk705y8JTt5yb53e4+feTeA5P8eZLfyI9OAD8kyaur6n7d/Yr5dgwAAAAAAAAAAAAAAAAAsPvZtfIl7ARVdZMkL89FQ8eP6u7HTAsdJ0l3n9Pdj09ynyQXLNs+Nsnz5t7sGlTVoUnemOmh4z/s7l8bCx0nSXef0d2/meRh08oneVFV3WIuzQIAAAAAAAAAAAAAAAAA7MYEj/cAVXWJJP+UZL9lW6/o7meupkZ3vybJcVO27l9V999YhxtyXJKrTFl/W3c/abVFuvsfkrxwytZ+SZ5TVbXO/gAAAAAAAAAAAAAAAAAAtgXB4z3D7ye52rK17yZ5zBrr/EWST01Zf0ZVHbSexjaiqo5M8tCR7cevo+Rjk3x/yvr1k9xzHfUAAAAAAAAAAAAAAAAAALYNweMdrqouneTRU7Ze0d1fWUut7v5+kidP2TosyR+so72N+uVcdIpzknwzybvWWqy7v5zkv0a2f3Wt9QAAAAAAAAAAAAAAAAAAthPB453vYUn2n7L+4nXWe3mSM6as/3pVXWKdNdfrjiPr7+ruXmfN/xhZv3VVTQs5AwAAAAAAAAAAAAAAAADsCILHO1hV7ZXkoVO2Ts34ZN+ZuvvcJG+YsnVwkl9aT831qKp9ktxiZPvEDZT+xMj6xZPcbAN1AQAAAAAAAAAAAAAAAAB2a4LHO9ttklxmyvq7u/v8DdQdmwr8CxuouVZHJBmbQPzlDdT9/Iy9y2+gLgAAAAAAAAAAAAAAAADAbk3weGf7uZH192+w7rtG1m9dVYdtsPZqzTrn7A3UPWvG3uEbqAsAAAAAAAAAAAAAAAAAsFsTPN7Zjh1Z/78N1v18ktOnrO9KcrsN1l6tA2bsnbuBuufM2LvkBuoCAAAAAAAAAAAAAAAAAOzWBI93qKo6IskxI9snbqR2d3eST4xs33YjtdfgzBl7F99A3f1n7E0LWwMAAAAAAAAAAAAAAAAA7AiCxzvXjWbsfXEO9T83sn7DOdReja/N2Js1DXklB67zTAAAAAAAAAAAAAAAAACAbU3weOe63sj6d7r7jDnU/9LI+nWrquZQf6bu/uaMHo7aQOmrztg7YQN1AQAAAAAAAAAAAAAAAAB2a4LHO9c1RtZPmVP9k0fWL5HkyDmdsZJ/H1m/5gZqXndk/cTu/vwG6gIAAAAAAAAAAAAAAAAA7NYEj3eusam/p86p/jfWcfa8vXBk/VZVtd86a/7MGs8CAAAAAAAAAAAAAAAAANgRBI93riuOrJ85p/qnrePsuerudyf5/6ZsXSLJz6+1XlXdLMn1p2x9Pcmz11oPAAAAAAAAAAAAAAAAAGA7ETzeuQ4bWT9rTvVPX8fZm+HhSb49Zf3xVXXQaotMJiQ/a8pWJ3lYd88rsA0AAAAAAAAAAAAAAAAAsFsSPN6BqmpXkgNHts+Z0zHfnbF3yJzOWFF3n5TkXrno8zo6yeuq6tCVakwCyq9OctMp28d1979usE0AAAAAAAAAAAAAAAAAgN3e3lvdAJviwCQ1sreI4PGqJw3PQ3e/vap+Osm/JDl4ydZtknyyqp6a5HXd/eml91XVNZLcJcmjk1xmWdkLkvxBdz91s/quqiOSHL5Z9XeIq2x1AwAAAAAAAAAAAAAAAACwpxA83pn2m7F3/pzOOG+d52+K7j6+qq6f5IVJbrdk6/AkT0nylKr6fpJvZghlH5Zkn5Fyn0nyK939zs3rOEnyG0mO2+QzAAAAAAAAAAAAAAAAAABWRfB4ZxoL1CbzCx7PqrPvnM5Yk+7+QlUdm+TZGUK9y+2T5HIrlHlrkrt399nz7g8AAIDdx1W+/JqtbgEA2CEu2OoGAAAAAAAAAABgjnZtdQNsilk/157TGbP+v1R7zemMNamquyX5WKaHjlfrDkk+U1W/XVVb8jwAAAAAAAAAAAAAAAAAALaCicc703kz9uYVNp8Vyv3+nM5Ylao6MMmLktxjyvZbk7wxyTuTnJzkWxne95dKcmSS2yW5W5KbLLnnMkmemeRBVfXz3X3iJrX+nCSv2qTaO8VVkrxuq5sAAAAAAAAAAAAAAAAAgD2B4PHONCv4O68pvrPqfG9OZ6yoqo5M8pYk11629ZkkD+7ud0257dwkZyf5YpL3JPnzqrpLhiDwkUuuu16S91XV3UbqbEh3fyPJN+Zddyepqq1uAQAAAAAAAAAAAAAAAAD2GPOafsvu5ZwZe/vM6Yz91nn+3FTVQUnenIuGjj+X5LZrCQt39xuS3CrJ55dtHZLk9VV1rY30CgAAAAAAAAAAAAAAAACwuxM83pnOSnL+yN7F5nTGxWfsnTanM1by90muM2X917v7K2st1t0nJXlAkl62dXCSV1fVvmutCQAAAAAAAAAAAAAAAACwXQge70Dd3RkP/84KDK/F/jP2xs6em6q6Y5L7TNl6d3f/x3rrTqYk/8uUrWsmefR66wIAAAAAAAAAAAAAAAAA7O4Ej3euk0fWLzmn+oes4+x5+r2R9dfOofY/jaw/sqr2mUN9AAAAAAAAAAAAAAAAAIDdjuDxzvWlkfUD51T/4Bl7X5zTGVNV1RWSHDuyffwcjvi3JD1l/Ygkd51DfQAAAAAAAAAAAAAAAACA3Y7g8c71hZH1Q+dU/9Iz9jY1eJzk1klqZO+zGy3e3Wcn+fzI9u03Wh8AAAAAAAAAAAAAAAAAYHckeLxzfWJk/VJVNRbaXYux4PGp3f31OdSf5cYj62d09+lzOuPEkfWbzak+AAAAAAAAAAAAAAAAAMBuRfB45/rIyPremT2teLWOHln/vznUXsnlRtbPmuMZYwHmsbMBAAAAAAAAAAAAAAAAALY1weOd64QkF4zsXXEO9a88sv6hOdReyUEj69+Z4xlnjqwfMsczAAAAAAAAAAAAAAAAAAB2G4LHO1R3n5bxqcfHbKR2Ve2b5Boj2+/YSO1VOn9kfa85nrH3Gs8GAAAAAAAAAAAAAAAAANjWBI93treNrF93g3Wvk2SfKevnJXnnBmuvxrdG1vef4xmXHFk/ZY5nAAAAAAAAAAAAAAAAAADsNgSPd7bXjqzfYoN1bzOyfnx3f3uDtVdjLHh80BzPuNTIuuAxAAAAAAAAAAAAAAAAALAjCR7vbP+d5AtT1m9cVZfYQN2fHFl/5QZqrsWnR9YvVlWXndMZ1xxZ/9Sc6gMAAAAAAAAAAAAAAAAA7FYEj3ew7u4kfzdla7+Mh4dnqqpDk9x+ytapSV62xlq3qqrHVNUjq+p6a7j1P2fsHbOWHkb6umySI0a237rR+gAAAAAAAAAAAAAAAAAAuyPB453vuUnOmLL+wHXW+9Uk+0xZf053f2c1BarqsKp6e5J3Jnlqkr9M8j9V9Yqq2n+l+7v7U0m+NLK9rkD1Mj83Y0/wGAAAAAAAAAAAAAAAAADYkQSPd7ju/laSp0zZ+pmqutZaalXVJZM8asrWKSNnjHllkttOWb9Pkmevssbfjqzfu6qmBaNXpap2JfmVke3XdvdY4BkAAAAAAAAAAAAAAAAAYFsTPN4zPD3JJ5at7UryrKqqNdR5UpLLTFn/7e6eNlX5Iqrqx5PcfsYlD6iqI1dR6q+SnDxl/egkv7maXkY8PMkNpqyfn+SPN1AXAAAAAAAAAAAAAAAAAGC3Jni8B+juc5L8UpJzlm0dm+QJq6lRVQ/JEMpd7sXd/bI1tHPzFfZ3JbnZSkW6+ztJHpGkp2w/qaruvoaekiRVdb8MIe1p/qy7l4e3AQAAAAAAAAAAAAAAAAB2DMHjPUR3n5Dkvhkm9y71R1X1d1V14LT7quoSVfWUJH8/Zfvfkzxkvp0mmR4mvuhF3a9O8jtTtvZN8uqq+puqOmKlOlV1lap6aZKXJtlnyiXP6+7HraYnAAAAAAAAAAAAAAAAAIDtau+tboDF6e5/raq7JXlFkgOWbD00yX2r6nVJTkhyWpIDk9wgyd2SHDKl3EuSPKS7v7/GNt69wv4FSd632mLd/cyqOj3JXyY5aMnWXkl+I8lDq+oDk3NPTvLtyd6lklw+yW2SXGesfJKnJvnD1fYDAAAAAAAAAAAAAAAAALBdCR7vYbr7TVV1/QwTjI9dsnVgkvtPHrN8PcmjuvsV6zz/vVX16iT3Grnk+d39lTXWfGFV/UeSpyX5ufzo1OK9ktx88liL/0zy/7r7/Wu8DwAAAAAAAAAAAAAAAABgW9q11Q2weN392e6+Q5LbJXl1krNWuOX8JO9K8mtJjl5v6HiJhyY5fsr6K5P89noKdveXu/sXMkwxfkySdyQ5Yw0lzkvy/iRPSHKd7j5W6BgAAAAAAAAAAAAAAAAA2JOYeLwH6+7jkxxfVfsluW6SayU5LMn+Sb6b5LQkn07yke4+fY7nfjvJ7arqtklukiH0+47uPmEOtb+Z5OlJnl5VleRqSY5JcnCGqc4HZgjcn5vk9CQnJ/lckhO7+5yNng8AAAAAAAAAAAAAAAAAsF0JHpPuPjfJByePRZ57fKZPPp5X/c4QnP70Zp0BAAAAAAAAAAAAAAAAALBT7NrqBgAAAAAAAAAAAAAAAAAAgK0neAwAAAAAAAAAAAAAAAAAAAgeAwAAAAAAAAAAAAAAAAAAgscAAAAAAAAAAAAAAAAAAEAEjwEAAAAAAAAAAAAAAAAAgAgeAwAAAAAAAAAAAAAAAAAAETwGAAAAAAAAAAAAAAAAAAAieAwAAAAAAAAAAAAAAAAAAETwGAAAAAAAAAAAAAAAAAAAiOAxAAAAAAAAAAAAAAAAAAAQwWMAAAAAAAAAAAAAAAAAACCCxwAAAAAAAAAAAAAAAAAAQASPAQAAAAAAAAAAAAAAAACACB4DAAAAAAAAAAAAAAAAAAARPAYAAAAAAAAAAAAAAAAAACJ4DAAAAAAAAAAAAAAAAAAARPAYAAAAAAAAAAAAAAAAAACI4DEAAAAAAAAAAAAAAAAAABDBYwAAAAAAAAAAAAAAAAAAIILHAAAAAAAAAAAAAAAAAABABI8BAAAAAAAAAAAAAAAAAIAIHgMAAAAAAAAAAAAAAAAAABE8BgAAAAAAAAAAAAAAAAAAIngMAAAAAAAAAAAAAAAAAABE8BgAAAAAAAAAAAAAAAAAAIjgMQAAAAAAAAAAAAAAAAAAEMFjAAAAAAAAAAAAAAAAAAAggscAAAAAAAAAAAAAAAAAAEAEjwEAAAAAAAAAAAAAAAAAgAgeAwAAAAAAAAAAAAAAAAAAETwGAAAAAAAAAAAAAAAAAAAieAwAAAAAAAAAAAAAAAAAAETwGAAAAAAAAAAAAAAAAAAAiOAxAAAAAAAAAAAAAAAAAAAQwWMAAAAAAAAAAAAAAAAAACCCxwAAAAAAAAAAAAAAAAAAQASPAQAAAAAAAAAAAAAAAACACB4DAAAAAAAAAAAAAAAAAAARPAYAAAAAAAAAAAAAAAAAACJ4DAAAAAAAAAAAAAAAAAAARPAYAAAAAAAAAAAAAAAAAACI4DEAAAAAAAAAAAAAAAAAABDBYwAAAAAAAAAAAAAAAAAAIILHAAAAAAAAAAAAAAAAAABABI8BAAAAAAAAAAAAAAAAAIAIHgMAAAAAAAAAAAAAAAAAABE8BgAAAAAAAAAAAAAAAAAAIngMAAAAAAAAAAAAAAAAAABE8BgAAAAAAAAAAAAAAAAAAIjgMQAAAAAAAAAAAAAAAAAAEMFjAAAAAAAAAAAAAAAAAAAggscAAAAAAAAAAAAAAAAAAEAEjwEAAAAAAAAAAAAAAAAAgAgeAwAAAAAAAAAAAAAAAAAAETwGAAAAAAAAAAAAAAAAAAAieAwAAAAAAAAAAAAAAAAAAETwGAAAAAAAAAAAAAAAAAAAiOAxAAAAAAAAAAAAAAAAAAAQwWMAAAAAAAAAAAAAAAAAACCCxwAAAAAAAAAAAAAAAAAAQASPAQAAAAAAAAAAAAAAAACACB4DAAAAAAAAAAAAAAAAAAARPAYAAAAAAAAAAAAAAAAAACJ4DAAAAAAAAAAAAAAAAAAARPAYAAAAAAAAAAAAAAAAAACI4DEAAAAAAAAAAAAAAAAAABDBYwAAAAAAAAAAAAAAAAAAIILHAAAAAAAAAAAAAAAAAABABI8BAAAAAAAAAAAAAAAAAIAIHgMAAAAAAAAAAAAAAAAAABE8BgAAAAAAAAAAAAAAAAAAIngMAAAAAAAAAAAAAAAAAABE8BgAAAAAAAAAAAAAAAAAAIjgMQAAAAAAAAAAAAAAAAAAEMFjAAAAAAAAAAAAAAAAAAAggscAAAAAAAAAAAAAAAAAAEAEjwEAAAAAAAAAAAAAAAAAgAgeAwAAAAAAAAAAAAAAAAAAETwGAAAAAAAAAAAAAAAAAAAieAwAAAAAAAAAAAAAAAAAAETwGAAAAAAAAAAAAAAAAAAAiOAxAAAAAAAAAAAAAAAAAAAQwWMAAAAAAAAAAAAAAAAAACCCxwAAAAAAAAAAAAAAAAAAQASPAQAAAAAAAAAAAAAAAACACB4DAAAAAAAAAAAAAAAAAAARPAYAAAAAAAAAAAAAAAAAACJ4DAAAAAAAAAAAAAAAAAAARPAYAAAAAAAAAAAAAAAAAACI4DEAAAAAAAAAAAAAAAAAABDBYwAAAAAAAAAAAAAAAAAAIILHAAAAAAAAAAAAAAAAAABABI8BAAAAAAAAAAAAAAAAAIAIHgMAAAAAAAAAAAAAAAAAABE8BgAAAAAAAAAAAAAAAAAAIngMAAAAAAAAAAAAAAAAAABE8BgAAAAAAAAAAAAAAAAAAIjgMQAAAAAAAAAAAAAAAAAAEMFjAAAAAAAAAAAAAAAAAAAggscAAAAAAAAAAAAAAAAAAEAEjwEAAAAAAAAAAAAAAAAAgAgeAwAAAAAAAAAAAAAAAAAAETwGAAAAAAAAAAAAAAAAAAAieAwAAAAAAAAAAAAAAAAAAETwGAAAAAAAAAAAAAAAAAAAiOAxAAAAAAAAAAAAAAAAAAAQwWMAAAAAAAAAAAAAAAAAACCCxwAAAAAAAAAAAAAAAAAAQASPAQAAAAAAAAAAAAAAAACACB4DAAAAAAAAAAAAAAAAAAARPAYAAAAAAAAAAAAAAAAAACJ4DAAAAAAAAAAAAAAAAAAARPAYAAAAAAAAAAAAAAAAAACI4DEAAAAAAAAAAAAAAAAAABDBYwAAAAAAAAAAAAAAAAAAIILHAAAAAAAAAAAAAAAAAABABI8BAAAAAAAAAAAAAAAAAIAIHgMAAAAAAAAAAAAAAAAAABE8BgAAAAAAAAAAAAAAAAAAIngMAAAAAAAAAAAAAAAAAABE8BgAAAAAAAAAAAAAAAAAAIjgMQAAAAAAAAAAAAAAAAAAEMFjAAAAAAAAAAAAAAAAAAAggscAAAAAAAAAAAAAAAAAAEAEjwEAAAAAAAAAAAAAAAAAgAgeb0hV/XZVvWCr+wAAAAAAAAAAAAAAAAAAgI0SPN6YRyd5wFY3AQAAAAAAAAAAAAAAAAAAGyV4vE5VdWSSI7e6DwAAAAAAAAAAAAAAAAAAmAfB4/W7xVY3AAAAAAAAAAAAAAAAAAAA87L3Vjcwb1V1aIZQ8KWTHJrk4klqE4667SbUBAAAAAAAAAAAAAAAAACALbEjgsdVtU+SX07yiCQ/tsXtAAAAAAAAAAAAAAAAAADAtrPtg8dVdfUkr0lyrWzOZOMxvcCzAAAAAAAAAAAAAAAAAABgU23r4HFVHZ3kPUkOyQ9DxwLBAAAAAAAAAAAAAAAAAACwRru2uoENenmSQyd/78ljkVOPAQAAAAAAAAAAAAAAAABgR9i2E4+r6g5JbpofTjieNvFYCBkAAAAAAAAAAAAAAAAAAFZh2waPk9xzyd8rPxpA7iSfTvKpJKcnuWATzr9hkutuQl0AAAAAAAAAAAAAAAAAAFi47Rw8vmV+GDbu/HC68T8keXJ3n7SZh1fVg5I8fzPPAAAAAAAAAAAAAAAAAACARdnOwePLL/n7hVOOH9LdL1jQ+R9a0DkAAAAAAAAAAAAAAAAAALDpdm11Axtw4OTPC0PHr1tg6DhJPpbk3AWeBwAAAAAAAAAAAAAAAAAAm2Y7B4/PXvbv5y/y8O4+P8lHFnkmAAAAAAAAAAAAAAAAAABslu0cPD5p2b8/sAU9PDDJ7bfgXAAAAAAAAAAAAAAAAAAAmKvtHDz+nyS15N/fWnQD3f2J7n7Hos8FAAAAAAAAAAAAAAAAAIB5287B439b9u99t6QLAAAAAAAAAAAAAAAAAADYAbZz8Pjfk1yw5N+X3KpGAAAAAAAAAAAAAAAAAABgu9u2wePu/naS9yxZuvRW9QIAAAAAAAAAAAAAAAAAANvdtg0eTzx/yd+vsOjDq+rFVfXZRZ8LAAAAAAAAAAAAAAAAAADztt2Dx69Mcurk71fZgvN/MsmVtuBcAAAAAAAAAAAAAAAAAACYq20dPO7uc5K8MEklue4iz66qyyc5YpFnAgAAAAAAAAAAAAAAAADAZtnWweOJpyU5J8n1F3zujRZ8HgAAAAAAAAAAAAAAAAAAbJq9t7qBOTgtyauT3LuqbpOkF3TuXRd0DgAAAAAAAAAAAAAAAAAAbLptGzyuqisk+WCSwy5cSvKfW9cRAAAAAAAAAAAAAAAAAABsX9s2eJxk3ySHL/l3ZwgfAwAAAAAAAAAAAAAAAAAAa7Sdg8cX6pG/L4KgMwAAAAAAAAAAAAAAAAAAO8KurW4AAAAAAAAAAAAAAAAAAADYeoLHAAAAAAAAAAAAAAAAAABA9t7qBubk5CTnLvjMQ5IcuOAzAQAAAAAAAAAAAAAAAABgU+yU4PHNuvtLizywqh6e5K8XeSYAAAAAAAAAAAAAAAAAAGyWXVvdwBx8Y9Gh44n3bMGZAAAAAAAAAAAAAAAAAACwKXZC8PgDW3TuR5J8Z4vOBgAAAAAAAAAAAAAAAACAuRI8XqfuPj/JB5PUVpwPAAAAAAAAAAAAAAAAAADztPdWN7Be3f3ZbHFwurtvu5XnAwAAAAAAAAAAAAAAAADAvOyEiccAAAAAAAAAAAAAAAAAAMAGCR4DAAAAAAAAAAAAAAAAAACCxwAAAAAAAAAAAAAAAAAAQLL3VjewSFV12SSXT3JEkv2T7Jfk7CSnJzktyalJvtDdvVU9AgAAAAAAAAAAAAAAAADAVtjRweOqumGSuya5TZLrJTloFbedXVUnJPlAkrcnebMgMgAAAAAAAAAAAAAAAAAAO92OCx5X1V5JHpDkd5Jcc+nWKksckORWk8fvJPlKVT03yT9098nz7BUAAAAAAAAAAAAAAAAAAHYXu7a6gXmqqpsm+XCS5ya5Voaw8YWPXsNj6X1HJnlckk9W1QMW92wAAAAAAAAAAAAAAAAAAGBxdkzwuKoekuSdSa6dH043XhomTn40UDz2WH7fhUHkg5K8oKreUFWX3OznAwAAAAAAAAAAAAAAAAAAi7QjgsdV9etJ/i7JvvnR6ca17NLVTDv+kdLL7qskd07ytqo6YO5PBAAAAAAAAAAAAAAAAAAAtsi2Dx5X1U8keVZ+NHB8obVMOh6bfLzUheHjGyV50XyfCQAAAAAAAAAAAAAAAAAAbJ29t7qBjaiqfZI8P8PzGJtWfEqS9yb5XJIvJPlyku8k+e7ksW+Si08ehye5UpKjklw/yTWX1Oslf1aSe1TVvbv7n+f5nAAAAAAAAAAAAAAAAAAAYCts6+Bxkl9NcrX8aOi4kpyc5G+S/Et3f2y9xavq8CR3TPIbSW6Zi4aPn1hVr+ru5aFnAAAAAAAAAAAAAAAAAADYVnZtdQMb9Fv5YRi4klyQ5A+THNXdf7aR0HGSdPc3u/tl3f0TSW6V5PP54STlJDk6yV03cgYAAAAAAAAAAAAAAAAAAOwOtm3wuKqum+QaF/4zydlJ7tjdT+7u7837vO5+d5IbJPn3/Gj4+N7zPgsAAAAAAAAAAAAAAAAAABZt2waPk9xp8mdlmHr82919/GYe2N1nZggaf3ZyZi3pAwAAAAAAAAAAAAAAAAAAtq3tHDy+yeTPTvJf3f2CRRza3WckeUh+OPX40Ko6ehFnAwAAAAAAAAAAAAAAAADAZtnOweOrLfn7ixd58GSy8ieWLF1jkecDAAAAAAAAAPz/7N15mGxnVS/g3zo5GUgggeSAEEKYpzDJJEFkFi6IioBcwcugKOAAKoIDcgFRcUZFkItcma4MMglXhCsOIcggEkgYDQlCGMKUABlIIPO6f1S1p9Lp7pzurqrdVbzv8+xn7/q+2t9a1Sf58/csAAAAAAAAmLZFDh4fNfH89wPU/5eJ56PW/RYAAAAAAAAAAAAAAAAAACyARQ4eX3V8v7i7zxig/qkTz4cNUB8AAAAAAAAAAAAAAAAAAKZmkYPHBybpJF8dqP65E88HDdQDAAAAAAAAAAAAAAAAAABMxSIHjy9IUkkOHaj+ARPPlwzUAwAAAAAAAAAAAAAAAAAATMUiB49XJg4fWlVDTBy+7sTzeQPUBwAAAAAAAAAAAAAAAACAqVnk4PHpE8+3H6D+nSeevzhAfQAAAAAAAAAAAAAAAAAAmJpFDh6fOvH8mHkWrqo9Se4zsfSpedYHAAAAAAAAAAAAAAAAAIBpW+Tg8QfG90ryP6rqJnOs/cdJDho/n5/kP+ZYGwAAAAAAAAAAAAAAAAAApm6Rg8fvGN87yVWTvKmqrjbrolX1SxlNWO7xdVx396zrAgAAAAAAAAAAAAAAAADALC1s8Li7T0ny8ZWPSW6T5MSquvMs6lXVIVX1siTPG9er8dZrZ1EPAAAAAAAAAAAAAAAAAADmaWGDx2N/nr0B4E5y4yT/VlV/X1U/VFUHbbdAVd2mqv4kyeeSPHaiXpJ8Mckbt1sDAAAAAAAAAAAAAAAAAACGtnvoBrbpFUmekuQW48+dUZj6gePrkqr6aJITk5ye5EtJzkzy7SQXjq/9kxyY5KAkV09ynSRHJjkmyfckOWx89mTAucb3Z3T3pbP6cQAAAAAAAAAAAAAAAAAAMC8LHTzu7kuq6qeSHJ9RgDjZGwzOeO2OSe6wxRKT04171fNbu/uvt3guAAAAAAAAAAAAAAAAAADsKLuGbmC7uvv9SX5m9fLElYwCxFu5Vp+zctZJSR49/V8DAAAAAAAAAAAAAAAAAADDWPjgcZJ09yuSPDbJhWttb+NarZK8M8n3d/c3p/ojAAAAAAAAAAAAAAAAAABgQEsRPE6S7n5Vku/NaBpxrfO1fZlyvN57FyR5ZpL7dffZU2scAAAAAAAAAAAAAAAAAAB2gKUJHidJd384yZ2TPCrJR3LFQPFmphyvvHdekj9PcvPufm53XzbzHwIAAAAAAAAAAAAAAAAAAHO2e+gGpq27O8lrkrymqm6T5MFJ7pPk9kkO24cjLknyqSTvTvKOJG/v7gtn1C4AAAAAAAAAAAAAAAAAAOwISxc8ntTdH0vysSS/kyRVdZ0k10tyrSSHJDkgo6DxBUm+keTLSU7r7osHaRgAAAAAAAAAAAAAAAAAAAay1MHj1br7yxmFiwEAAAAAAAAAAAAAAAAAgAm7hm4AAAAAAAAAAAAAAAAAAAAYnuAxAAAAAAAAAAAAAAAAAAAgeLwdVXWPqnrM0H0AAAAAAAAAAAAAAAAAAMB2CR5vz+8lefnQTQAAAAAAAAAAAAAAAAAAwHYJHm/PzYduAAAAAAAAAAAAAAAAAAAApkHweIuqak+Sw4fuAwAAAAAAAAAAAAAAAAAApkHweOtMOwYAAAAAAAAAAAAAAAAAYGkIHm/dLYZuAAAAAAAAAAAAAAAAAAAApmX30A0kSVU9IMmTk9woyWeTvKC7334l71w/yWNn39267j1gbQAAAAAAAAAAAAAAAAAAmKrBg8dV9ctJ/mjlY5KbJ7l/VT25u1+0was3SPKbSXqmDQIAAAAAAAAAAAAAAAAAwHeAXUMWr6obJvn9jALHlb0h4kryR1V19L4eNcAFAAAAAAAAAAAAAAAAAABLY9DgcZIfyGjqcmdv6HjlflCSH9zHc3qACwAAAAAAAAAAAAAAAAAAlsbQweODJ57XmiR8cAAAAAAAAAAAAAAAAAAAgJnbPXD990w8d64YPH73Pp6z+j0AAAAAAAAAAAAAAAAAAGATBg0ed/e/VdWbkjwso+BxT2z/n+7+93086h+TfHna/V2J2ye57ZxrAgAAAAAAAAAAAAAAAADATAw98ThJHpnkN5I8NcnVkpyf5E+S/PYmzvjZ7j5tBr2tq6p+JsmL5lkTAAAAAAAAAAAAAAAAAABmZfDgcXdfkuS3quq5Sa6Z5GvjtX117rxDx2OfHKAmAAAAAAAAAAAAAAAAAADMxODB4xXdfWmSr2zh1Y9Ou5d9dMpAdQEAAAAAAAAAAAAAAAAAYOp2Dd3AFHxkiKLd/eUk3xyiNgAAAAAAAAAAAAAAAAAATNsiB48/m+Q5SV41YA+nDlgbAAAAAAAAAAAAAAAAAACmZvfQDWxVd38uo+DxkP4wyTED9wAAAAAAAAAAAAAAAAAAANu2sMHjnaC73zB0DwAAAAAAAAAAAAAAAAAAMA2Cx1tQVf89ybWTnNzd/zR0PwAAAAAAAAAAAAAAAAAAsF0LHTyuqnuMH7/d3SfMsfTDkzw0yblVdXR3f3OOtQEAAAAAAAAAAAAAAAAAYOp2Dd3ANh2f5J1JXjXnuv+RpJIcmlEIGQAAAAAAAAAAAAAAAAAAFtqiB4+TUQC45lzz8xPPD5tzbQAAAAAAAAAAAAAAAAAAmLplCB73ADXPGt8ryT2qat7BZwAAAAAAAAAAAAAAAAAAmKplCB4P4ZyJ54OT3HKoRgAAAAAAAAAAAAAAAAAAYBoEj7fm8FWfjxmkCwAAAAAAAAAAAAAAAAAAmBLB4615+KrPewbpAgAAAAAAAAAAAAAAAAAApkTweJOq6ilJfjRJTyxffZhuAAAAAAAAAAAAAAAAAABgOnYP3cBGquox+/jVq23iu1txYJKjk/xgktuusf/tGdYGAAAAAAAAAAAAAAAAAICZ29HB4ySvyOUnC6+lklwryctn3s2oVnLFnr4wh9oAAAAAAAAAAAAAAAAAADAzOz14nIzCvp29od/1vjMvq0PHlyU5fo71AQAAAAAAAAAAAAAAAABg6nYN3cCVuH2SN2QU7k1God/JK+usz/KaDDl3kld39zem95MBAAAAAAAAAAAAAAAAAGD+dnTwuLs/0t0/luQWSf4qyUWZ73TjtawEnivJKUl+ecBeAAAAAAAAAAAAAAAAAABgKnZ08HhFd3+6u5+Q5IZJ/jjJeRkFfydDwPO8Osmrk3yfaccAAAAAAAAAAAAAAAAAACyD3UM3sBnd/ZUkv1pVz03ylCTPyigEfEGSD8yydEZh5zOSnJjkrd39hRnWAwAAAAAAAAAAAAAAAACAuVqo4PGK7j4nyW9W1Y8nuUmSL3b3vQduCwAAAAAAAAAAAAAAAAAAFtauoRvYpjcP3QAAAAAAAAAAAAAAAAAAACwDwWMAAAAAAAAAAAAAAAAAAGCxg8fd/f4kXxm6DwAAAAAAAAAAAAAAAAAAWHS7h25gCu6f5OChmwAAAAAAAAAAAAAAAAAAgEW28MHj7v740D0AAAAAAAAAAAAAAAAAAMCiW9jgcVV9MxtPOu7uXtjfBwAAAAAAAAAAAAAAAAAA87Rr6Aa24fNJap3rwiR/PFxrAAAAAAAAAAAAAAAAAACwWBY5ePze8b3HV5JcmuTlSW7a3b8+SFcAAAAAAAAAAAAAAAAAALCAFjl4/P8mniuj8PG9uvunuvuLA/UEAAAAAAAAAAAAAAAAAAALaZGDx29Pcu6qtbMH6AMAAAAAAAAAAAAAAAAAABbewgaPu/vCJK/OaNrxij0DtQMAAAAAAAAAAAAAAAAAAAttYYPHYy9M0uMrSW42z+JV9dKq+vQ8awIAAAAAAAAAAAAAAAAAwCwsdPC4u09O8obsnXp8yzm3cPckN5hzTQAAAAAAAAAAAAAAAAAAmLqFDh6PPTvJZePn75lX0araP8kN51UPAAAAAAAAAAAAAAAAAABmaeGDx919SpJXZzT1+E5VddCcSt80yX5zqgUAAAAAAAAAAAAAAAAAADO18MHjsacn+WaS/ZPce041bzGnOgAAAAAAAAAAAAAAAAAAMHNLETzu7i8l+eWMph7/9zmVFTwGAAAAAAAAAAAAAAAAAGBp7B66ga2qqsOSvCDJnvF1zfHWY6rqMYM1BgAAAAAAAAAAAAAAAAAAC2hhg8dJrprkUUk6o0nHK2rtrwMAAAAAAAAAAAAAAAAAAOtZ5ODxenqOtYScAQAAAAAAAAAAAAAAAABYCssSPF4JG1fmFwaeZ8AZAAAAAAAAAAAAAAAAAABmalmCxyuEgQEAAAAAAAAAAAAAAAAAYAuWJXg8rynHAAAAAAAAAAAAAAAAAACwlJYlePyYJO+ec82fTfKrc64JAAAAAAAAAAAAAAAAAAAzsSzB43/o7q/Ns2BV/XMEjwEAAAAAAAAAAAAAAAAAWBK7hm5gCr4w79Dx2AlJeoC6AAAAAAAAAAAAAAAAAAAwdcsQPP7QEEW7+5wknx6iNgAAAAAAAAAAAAAAAAAATNvuoRvYhnOTPCfJewbs4ZlJbjFgfQAAAAAAAAAAAAAAAAAAmIqFDR539zczCh4P2cPrhqwPAAAAAAAAAAAAAAAAAADTsmvoBgAAAAAAAAAAAAAAAAAAgOEJHgMAAAAAAAAAAAAAAAAAANk9dANDqKqDkxyc5MAk5yc5p7t72K4AAAAAAAAAAAAAAAAAAGA4Sx08rqrdSb4vyT2TfHeSY5IcmVHoePV3z0tyVpJPJDlhfL2vu8+aV78AAAAAAAAAAAAAAAAAADCUpQweV9VNkjwlyY8lucbk1gavXW18XS/JA8ZrF1XVm5K8pLv/dRa9AgAAAAAAAAAAAAAAAADATrBUweOqOizJHyT5qSS7csWgce/LMRPPByZ5ZJJHVtW/J/nJ7j5lGr3uJFW1K8ktM5oIfe2MAtiXJDknyX8m+Wh3nzlch9NTVTfM6HdeP8lhGf13csH4+nqSryT5cpLPdveFQ/UJAAAAAAAAAAAAAAAAADBvSxM8rqrbJ/nbJEdnb3h4vaDxWpOPe9V99XePTXJSVT2zu5+3nV53iqr6niQ/l+RBSfZs8NWuqg8meVWSl3X3efPob1qq6k5JHpvkhzIKHO+Ly6rq9CSfTHJSkrd197tn1CIAAAAAAAAAAAAAAAAAwOCWInhcVccm+Yckh46XJsPDlSuGifd18nGv+u5BSf6wqm7a3T+zxXYHV1XXT/IXGQWO9+mVJHceX8+qql/p7pfPqr9pqaq7JXlukntu4fVdGYXYj05y/yRHJRE8BgAAAAAAAAAAAAAAAACW1sIHj6vqqCR/l1HoeK1A8craWlOO17M6cDy5XkkeX1Wnd/fvbKbXnaCqHpjkb7I3pL3irIz+jh9OcnaSw5LcNskP5/LTkI9I8rKqun+Sn+zuC2bc8qZV1UFJ/jDJk3LFf/dvJ/nHJCck+UpG/w9cM8ktk9whyS3m1ykAAAAAAAAAAAAAAAAAwM6x8MHjJC/NKBi7Oig8GTg9N8lnk3wuyelJvpVRAPXbSQ5IcpXxdc0kN0hy/STXmXi/Vz1XkmdX1du6+6Qp/Y6Zq6qHJHlDkv1WbT0vybO7+/w13jkoya8medaq9x6R5JpV9QPdfdGMWt60qtqTUYD6rqu2Lkry+0n+pLvP2eD96yV5cJInJ7nZrPoEAAAAAAAAAAAAAAAAANhpFjp4XFU/kOR+uXwweCVwfFySNyc5vrs/sYWzr5XkHuPzfzzJIavq7JfkT5Pca9OND6Cq7pzktbli6Pgp3f1n6703nmj8W1X1iSSvT7JrYvu+Sf4qyWOm2+3WVNU1krwzya1XbX0lyYO6+8QrO6O7v5DkhVX1v5J8PaPJzwAAAAAAAAAAAAAAAAAAS2/XlX9lR3vaqs+V5B1Jbt/d39/df7GV0HGSdPcZ3f3G7n5ikqOSPDOjqbnJ3gDy3avqTls5f56q6pAkr05y4Kqtv9kodDypu9+U5NlrbD26qh69vQ63r6r2T/LWXDF0fFaSe+1L6HhSd1+a5D1Tag8AAAAAAAAAAAAAAAAAYMdb2OBxVR2Z5J4ZhYBXphw/q7sf2N0fmWat7j6nu5+b5G5JPrdqe/DQ7T74tSQ3XbX27VwxuH1l/iDJKWus/0lVDT0Z+Hcz+vdZ7bHdvVbP++L4rbcDAAAAAAAAAAAAAAAAALBYFjZ4nOQHsjdw3Ele2N2/M8uC46m5D0ryrewNPP/gLGtuV1V9V5KnrrH1N939xc2c1d0XJ/n9Nbb2JPn1LbQ3FVV116z/G9+6jaPftY13AQAAAAAAAAAAAAAAAAAWyiIHj48d3yvJp7P56b1b0t0nJ3lK9oaeb1BVe+ZRe4t+NsnBa6y/covnvTbJuWus/0xVHbLFM7esqirJn2fvv8eKS5I8Y5vHn5i1fysAAAAAAAAAAAAAAAAAwNJZ5ODxMeN7J3n5eBrvvLw8yVcnPt96jrX3WVXtl+SJa2ydleQ9Wzmzuy9MstYU4asnedRWztymhyS50xrrb+nuz2zn4O6+NKOA+52TPHM7ZwEAAAAAAAAAAAAAAAAA7HSLHDy+3sTz6+dZeBxIfcfE0tHzrL8J90xy7TXW3zv+DVv1T+usP2IbZ27Vr6yz/r+ncXh3n9zdH+zu06ZxHgAAAAAAAAAAAAAAAADATrXIweOrj++XJRkiFPrxiecjBqi/Lx66zvoHtnnuu9dZv0dV7dnm2fusqu6Q0UTi1b6e5Lh59QEAAAAAAAAAAAAAAAAAsAwWOXh8UJJOcmZ3XzZA/a9NPF9lgPr74r7rrH98nfV9dVqSc9ZY35Xk3ts8ezMevc76P3f3JXPsAwAAAAAAAAAAAAAAAABg4S1y8PjiJJXhfkNNPPdAPayrqq6V5BbrbH9qO2d3dyc5eZ3te23n7E16+Drrph0DAAAAAAAAAAAAAAAAAGzSIgePzx/f91TVfgPU3zPx/K0B6l+ZO26w9/kpnP+ZddbvMIWzr1RV3SrJddfZPmEePQAAAAAAAAAAAAAAAAAALJNFDh5/aXyvJDceoP5tJ56/OkD9K3O7dda/1d3nTuH8L6yzfpuqqnX2pum+66xfkuQTc6gPAAAAAAAAAAAAAAAAALBUFjl4fNrE8yPnWbiqDkjygIml9ab/Dunm66x/bUrnrxe2PiTJUVOqsZE7r7P++e6+aA71AQAAAAAAAAAAAAAAAACWyiIHjz84vleSx1XVVedY+8lJjhg/X5Lko3Osva+uv876WVM6/4wt1J6m26yz/rk51AYAAAAAAAAAAAAAAAAAWDqLHDw+fnzvjCbsvnQeRavq7kl+b1y3k5zQ3RfMo/YmHb3O+jendP7ZW6g9FVVVSW6xzvZ6k5gBAAAAAAAAAAAAAAAAANjAIgeP35u9IdNK8qNV9fqqOmxWBavqMUnemmT3uGaSvHFW9bZpzzrr503p/HO2UHtarpnkwHX2vjHj2gAAAAAAAAAAAAAAAAAAS2n30A1sVXd3Vb0kyTMzmjxcSR6W5Niq+vMkL+/ur2+3TlXtSvKDSZ6U5L7jOiv1zk/yiu3WmLZxz4eusz2t6czf3mDvGlOqsZ7rbLB37uqFcRj97klul+S2SW6e5PAkhyU5OKPpzV9P8oUk70nyriTv7u5Lp9o1AAAAAAAAAAAAAAAAAMAOtrDB47HnJ/n5jIKuK2Hgo5L8QZLfrqoPJfm3JCcmOT3Jl5KcmeTb3X3xyiFVtV+Sg5JcPaNQ65FJjklybJK7Zu8E38nQcSd5fnefPcsfuEWHZu9E5tXmETye2dTpsWttsHdRklTV9ZI8MsmDknxvNv5vfc/4unmS7x+vfaaq/jjJy7r7wm13DAAAAAAAAAAAAAAAAACwwy108Li7v1FVT0vysoyCwD3eqiQHZhQavuta71ZVMgqp7k6ya4MykwHenrifkuR3ttr7jB24wd60pvhessX603DwBnt3qKq3JXlANv53vTI3SvKiJI+vqod192nbOGtNVXWtJNec9rlL5sZDNwAAAAAAAAAAAAAAAAAA3ykWOnicJN39iqo6NskTcvlgcLL+1N8V+xKQ7VWfK8k3kjxkB0/C3X+DvWkFjzc654Ap1VjPQRvs/eDE8/kZTbv+QJJPJvl0ks8mOTfJeRn99/9dSe6S5OFJHrLGebdP8sGqul93n7jtzi/v55I8e8pnAgAAAAAAAAAAAAAAAABsycIHj8d+NqPptj+dyweFV4eGt6uSfDXJA7v7lCmfPU0bTfqd1t/ksg329ptSjfVsFBg/Ockbk/y/JB/o7o0C0hcm+cz4em1V3SfJG5Icvup7hyd5U1Xdsbu/sfW2AQAAAAAAAAAAAAAAAAB2ro0CqgujR56QUQD5/Kw96bjWuPZlb3L/n5Pcobs/PM3+Z+CSDfam9W++Ubj44inVWM9Goec/7u5ndfe/XUno+Aq6+7gkD8ra/d8gyYs2cx4AAAAAAAAAAAAAAAAAwCJZlonHSZLu/suqemuS30zy6OydjNvZeNLvensrAeSPJPmd7n7TNPqcg42Cv9OaRrzRORdNqcZWzt/W7+vu91fVXyZ50hrbD6+qZ3b3p7ZTY8KLMpqwzPpunOT/Dt0EAAAAAAAAAAAAAAAAAHwnWKrgcZJ095eSPKGqnpHkEUkenOR7kxy0yaNOTfKOJK/r7vdNt8uZu2CDvf2nVOPADfY2qj8NF26wN43f9wdZO3i8K8lTk/zMFGqku89IcsY0zlpWVWsNLwcAAAAAAAAAAAAAAAAAZmHpgscruvvMJC9I8oKqOiDJMUlumeR6Sa6V5JAkByS5JKOg7DeSfDnJp5J8fPz+ojovyaVZe/rvZgPY67nKBntnT6nGVs4/ZLuHd/fpVXVikjussf1DmVLwGAAAAAAAAAAAAAAAAABgJ1na4PGk7r4oyYfH19Lr7q6qs5Mcscb2RoHhzTh4g72zp1RjPV/bYG/bweOx47N28PjIqrpxd396SnUAAAAAAAAAAAAAAAAAAHaEXUM3wMx8dZ31q03p/Gtsofa0nLHB3uFTqnHqBnt3nVINAAAAAAAAAAAAAAAAAIAdQ/B4eX1hnfVDp3T+1TfY+/yUaqypu89Mcv4623umVOY/N9i7zpRqAAAAAAAAAAAAAAAAAADsGILHy+tz66xPayLwd22wN9Pg8dhn1lm/9pTOP2eDvWn9DQEAAAAAAAAAAAAAAAAAdgzB4+V18jrrR1RVTeH89YLHZ3X3V6Zw/pX5xDrrR0/p/PUmKifJNaZUAwAAAAAAAAAAAAAAAABgx9g9dAPzUFW7k9w6yW2THJHksPF1cJLzMppue3aSM5Kc1N2nDNPpVH10nfXdGYWGtxsOvuE66x/f5rn76oNJHrHG+tFVtX93X7zN8y/aYO+SbZ4NAAAAAAAAAAAAAAAAALDjLG3wuKq+O6Ng6n2S3CbJAZt497wkJyV5S5JXdffXZtDirJ2Y5LKsPdX66Gw/eHyjddY/tM1z99X711nfP8lNk/zHNs8/aIO9s7Z5NgAAAAAAAAAAAAAAAADAjrNWKHWhVdV/q6r3ZRSA/ZUkd0pyYJLaxHW1JHdP8rwkp1fVG6rqtnP+KdvS3Wdn/anHt9jO2VV1QJKbr7P9ru2cvQn/ntGk6rXcYQrnH7zB3jemcD4AAAAAAAAAAAAAAAAAwI6yNMHjqjqiqt6c5O1J7pK9IeIk6S1cK+8fkOShSU6oqueOQ7eL4l/WWb/NNs+9dUaThVe7JMm/bvPsfdLdlyT5x3W27zaFElffYO/LUzgfAAAAAAAAAAAAAAAAAGBHWYrgcVXdPKMJxz+cvYHhyRBxcsWpxllnfa2wcmUUtP31JB+qquvO8OdM09+us37XbZ57z3XWj+/ueU4Dfs066/efwtk33GDv/VM4HwAAAAAAAAAAAAAAAABgR1n44HFVXS/JcUmOzuUDx6sDxqsnGq+3Prm3+juV5FZJ3lNV157qD5mNf0vyuTXW71RVh2zj3P+2zvrrtnHmVrwtyRlrrN+oqrY71Xm94PEXu/uz2zwbAAAAAAAAAAAAAAAAAGDHWejgcVXtSvL6JNfJ5cPBycbTjle+c8k6e6tDyytWzrt+kjeP6+9Y3d1JXrzG1oFZPzy8oao6PMl91tg6K+tPIF7vrLtX1dOq6peq6nab7aW7L07y5+tsP26z563yfeusH7fNcwEAAAAAAAAAAAAAAAAAdqQdHZzdBz+d5C65fMB4ddj4s0lekOQxSY5Nct0kB3X3ft19YJL9khya5NpJbpfkoUl+JaNA89ez9uTkJPmeJE+dxY+asv+d5Nw11n9ii+f9dJL911h/UXd/a18OqKo9VfXOJP+a5I+S/GmSD1fV31TVwZvs54VJvrHG+k9W1TU2edZKf1fL6L+r9eoBAAAAAAAAAAAAAAAAACydhQ0eV1Ul+Y3sDQInl594/Jokd+zuG3f3L3b3q7r7A9395e6+6L9eGDmvu8/o7o9191u6+3nd/YjuvlZGAdT/k+TiXH6aciV5elUdOuOfui3d/fUkf7jG1oOq6pjNnDUO5D5lja2vrVNjPa9Lcq811n8smwz2dvc5SX5tja3DkjxzM2dNWC9c/Z7u/sAWzwQAAAAAAAAAAAAAAAAA2NEWNnic5L5Jjl61Vkm+kOSu3f2o7j5pu0W6+4Tu/okkN0ryL7n89OPDkjx2uzXm4HlJTl61tivJn48D3Pvq9zKaDL3aL3b3WlOVr6Cq7pbkPht85bFVddQmekqSlyZ5xxrrv1BV99zMQVV1WJKnrbF1aZKnb7IvAAAAAAAAAAAAAAAAAICFscjB4weu+lxJPpPk+2Yxlba7v5Tk/kn+bFxrZdLyj0+71rR19wVJHpXkglVb903y2/tyRlU9PsnPr7H1yu5+zSbaOfZK9ndlNGV6n3V3Z/Tv8JlVW/sleVNV3X5fzqmq3UnekOTINbaf1d3v2UxfAAAAAAAAAAAAAAAAAACLZJGDx3eeeF4JAv90d39hVgXHAdenZu/k40pyx6q66qxqTkt3n5jkkRlN7p30jKp6cVUdutZ7VXVIVf1hkr9cY/sfkzx+up0m2Rvq3vcXur+R0STl01ZtHZHkX6vq58bB4jVV1XcneX+S+62x/TcZTXsGAAAAAAAAAAAAAAAAAFha6wYxF8CNMwqoroSO/6G7j5910e7uqvqFJJ8YL+2X5HZJ3jvr2tvV3W+pqgdnFKSdDEs/Mckjq+r/JjkxydlJDk1y+yQPTnKNNY77P0ke390Xb7KNK/s7XZbk3zd5ZpKkuz9XVcdm9PvuPbF11SR/keR/VtXfJ/l4knOTHJ7RdOP7JbntWkcm+a0kzxmHzgEAAAAAAAAAAAAAAAAAltYiB49Xh2HfNK/C3X1yVb0/ybHjpRtlAYLHSdLdbxtP9/3LJPed2Do0yaPH10a+kuQp3f03W6z//qp6Y5IfXecrL+3uL27l7PH5Z1TV/TIKU/9WRhOPV1wn+z6h+X1JntXd/7LVXgAAAAAAAAAAAAAAAAAAFsmuoRvYhlr1ed7B3/dMPO+Zc+1t6e5Pd/f3ZzQV+I1JzruSVy5N8u4kT0hyw62Gjic8Mcnxa6y/LskvbvPsdPel3f2iJNcf13pXkn2ZzHz2uIf7dffdhI4BAAAAAAAAAAAAAAAAgO8kizzx+Mwk1534/JU51z994vngOdeeiu4+PsnxVXVgktskOSajEPXBSb6dURD31CQf7e5zplj3G0nuXVX3SnLnJJckeVd3nzitGuM65yd5SZKXVNUhSW6b5GbZ+xsvTvLNJF9McnKSU7u7p9kDAAAAAAAAAAAAAAAAAMCiWKbg8TfnXP/sieeL5lx7qrr7wiQfHF/zrHt81p58PIta5yf5t/EFAAAAAAAAAAAAAAAAAMAqu4ZuYBs+kaQmPs976vBkvfO2ckBVPbOqXjqlfgAAAAAAAAAAAAAAAAAAYMsWOXj8rlWfD59z/UMmnrc6bflJSX5i+60AAAAAAAAAAAAAAAAAAMD2LHLw+LhVn4+ec/3JicfnbvblqjosyTWn1w4AAAAAAAAAAAAAAAAAAGzdwgaPu/u0XD58fMs5t7Bn4vm0Lbx/02k1AgAAAAAAAAAAAAAAAAAA27WwweOxF04833HOtVcmLHeSU7fw/s2m2AsAAAAAAAAAAAAAAAAAAGzLQgePu/stSd6bpJI8cM7lVyYWf767L9zC+4LHAAAAAAAAAAAAAAAAAADsGLuHbmCrqmq/JP8jyT8luVuSo6rq9UnOm1MLN81o2vHFVfWMJEckOWgT799zJl0BAAAAAAAAAAAAAAAAAMAWLGzwOKOQ7ysyCv8mo6nHD5tj/Rrfb5Lkt+ZYFwAAAAAAAAAAAAAAAAAApm6Rg8erdfaGgedZb6s1+8q/AgAAAAAAAAAAAAAAAAAA87FMwePKMGFeAWIAAAAAAAAAAAAAAAAAABbesgSPhwr/Ch0DAAAAAAAAAAAAAAAAALAUliV4XEM3AAAAAAAAAAAAAAAAAAAAi2xZgsf/kOR1QzexSY9Kct+hmwAAAAAAAAAAAAAAAAAAgGR5gsd/3d2vHbqJzaiqq0TwGAAAAAAAAAAAAAAAAACAHWLX0A1MybuHbmALPjh0AwAAAAAAAAAAAAAAAAAAsGIZgsef7+7Th25iCz6a5OKhmwAAAAAAAAAAAAAAAAAAgCTZPXQD23BBkp9Msoih43T3RVX16iQ3HLoXAAAAAAAAAAAAAAAAAABY2OBxd1+a5JVD97Ed3f24oXsAAAAAAAAAAAAAAAAAAIAk2TV0AwAAAAAAAAAAAAAAAAAAwPAEjwEAAAAAAAAAAAAAAAAAgOweuoEhVNXBSQ5OcmCS85Oc0909bFcAAAAAAAAAAAAAAAAAADCcpQ4eV9XuJN+X5J5JvjvJMUmOzCh0vPq75yU5K8knkpwwvt7X3WfNq18AAAAAAAAAAAAAAAAAABjKUgaPq+omSZ6S5MeSXGNya4PXrja+rpfkAeO1i6rqTUle0t3/OoteAQAAAAAAAAAAAAAAAABgJ9g1dAPTVFWHVdWLk5yc5GeSHJ5R2Hjl6n24Jr9/YJJHJnlnVb2vqm4+1x8EAAAAAAAAAAAAAAAAAABzsjTB46q6fZIPJ3l8kv2ydtD4v76+xrVivSDysUlOqqqnzvJ3AAAAAAAAAAAAAAAAAADAEJYieFxVxyZ5Z5Lr5/KB4+TyoeIVa006vsKxa3z3oCR/OJ6qDAAAAAAAAAAAAAAAAAAAS2Phg8dVdVSSv0tyaNYOEU8GkPf1mnxv9VmV5PFV9T+n9ysAAAAAAAAAAAAAAAAAAGBYu4duYApemmRPrhgUnpx0fG6Szyb5XJLTk3wrybfH1wFJrjK+rpnkBhlNTr7OxPu96rmSPLuq3tbdJ03pdwAAAAAAAAAAAAAAAAAAwGAWOnhcVT+Q5H65fDB4JXB8XJI3Jzm+uz+xhbOvleQe4/N/PMkhq+rsl+RPk9xr040DAAAAAAAAAAAAAAAAAMAOs2voBrbpaas+V5J3JLl9d39/d//FVkLHSdLdZ3T3G7v7iUmOSvLMJBetbI/vd6+qO23lfAAAAAAAAAAAAAAAAAAA2EkWNnhcVUcmuWdGIeCVKcfP6u4HdvdHplmru8/p7ucmuVuSz63afvQ0awEAAAAAAAAAAAAAAAAAwBAWNnic5AeyN3DcSV7Y3b8zy4LdfWKSByX5VvYGnn9wljUBAAAAAAAAAAAAAAAAAGAeFjl4fOz4Xkk+neRp8yja3ScneUr2hp5vUFV75lEbAAAAAAAAAAAAAAAAAABmZZGDx8eM753k5d198RxrvzzJVyc+33qOtQEAAAAAAAAAAAAAAAAAYOoWOXh8vYnn18+zcHdfmuQdE0tHz7M+AAAAAAAAAAAAAAAAAABM2yIHj68+vl+W5LQB6n984vmIAeoDAAAAAAAAAAAAAAAAAMDULHLw+KAkneTM7r5sgPpfm3i+ygD1AQAAAAAAAAAAAAAAAABgahY5eHxxkspwv6EmnnugHgAAAAAAAAAAAAAAAAAAYCoWOXh8/vi+p6r2G6D+nonnbw1QHwAAAAAAAAAAAAAAAAAApmaRg8dfGt8ryY0HqH/bieevDlAfAAAAAAAAAAAAAAAAAACmZpGDx6dNPD9ynoWr6oAkD5hY+sw86wMAAAAAAAAAAAAAAAAAwLQtcvD4g+N7JXlcVV11jrWfnOSI8fMlST46x9oAAAAAAAAAAAAAAAAAADB1ixw8Pn587yRHJXnpPIpW1d2T/N64bic5obsvmEdtAAAAAAAAAAAAAAAAAACYlUUOHr83yVfHz5XkR6vq9VV12KwKVtVjkrw1ye5xzSR546zqAQAAAAAAAAAAAAAAAADAvCxs8Li7O8lLMgoA9/j+sCQfq6qnVdUR06hTVbuq6oer6h+TvDzJoeN6SXJ+kldMow4AAAAAAAAAAAAAAAAAAAxp99ANbNPzk/x8kmtkb/j4qCR/kOS3q+pDSf4tyYlJTk/ypSRnJvl2d1+8ckhV7ZfkoCRXT3KdJEcmOSbJsUnummTPylcn6nSS53f32bP8gQAAAAAAAAAAAAAAAAAAMA8LHTzu7m9U1dOSvCyjIPDKJOJKcmBGoeG7rvVuVSXJRRn9DTaa/FyTJSfupyT5na32DgAAAAAAAAAAAAAAAAAAO8lGgduF0N2vSPKSXDEgvDKZeKPrwCT7Xcl3OlcMNZ+V5CHdfeHsfhkAAAAAAAAAAAAAAAAAAMzPQk88nvCzGYWofzp7A8JZ9TwNleSrSR7Y3adM+WwAAAAAAAAAAAAAAAAAABjMwk88TpIeeUJGAeTzc/npxyvWmma8L3uT+/+c5A7d/eFp9g8AAAAAAAAAAAAAAAAAAENbiuDxiu7+yyS3SPJXSS7K5UPEvcaVK9lbef8jSR7e3ffv7i/P+GcAAAAAAAAAAAAAAAAAAMDcLVXwOEm6+0vj6cdHJ/nFJMcluTBrTzXe6PpUkhck+b7uvn13v2nOPwUAAAAAAAAAAAAAAAAAAOZm99ANzEp3n5lRcPgFVXVAkmOS3DLJ9ZJcK8khSQ5IckmSC5J8I8mXMwocf3z8PgAAAAAAAAAAAAAAAAAAfEdY2uDxpO6+KMmHxxcAAAAAAAAAAAAAAAAAALDKrqEbAAAAAAAAAAAAAAAAAAAAhid4DAAAAAAAAAAAAAAAAAAAZPfQDWxVVT0jyX4bfKW7+7fn1Q8AAAAAAAAAAAAAAAAAACyyhQ0eJ3lSkmuts1dJvplE8BgAAAAAAAAAAAAAAAAAAPbBrqEb2IaPZRQwXn1dkuQvktxkuNYAAAAAAAAAAAAAAAAAAGCxLHLw+J3je0/c35Dklt395O4+c5i2AAAAAAAAAAAAAAAAAABg8Sxy8PiNa6w9vbs/M/dOAAAAAAAAAAAAAAAAAABgwS1s8Li7P5XkA6uWDx+iFwAAAAAAAAAAAAAAAAAAWHQLGzwee3GSmvh81DyLV9U9quox86wJAAAAAAAAAAAAAAAAAACzsOjB49ckOX3i8y3nXP/3k7x8zjUBAAAAAAAAAAAAAAAAAGDqFjp43N0XJXnuxNJt5tzCLeZcDwAAAAAAAAAAAAAAAAAAZmKhg8djL01yWpJKcvd5Fa2qayW5+rzqAQAAAAAAAAAAAAAAAADALC188Li7L0nyP8cfj6yqG8+ptGnHAAAAAAAAAAAAAAAAAAAsjYUPHidJd782yT+PP/7wnMoKHgMAAAAAAAAAAAAAAAAAsDR2D93AVlVVJblhkj3j611Jvj/Jz1XV1ebQwn3mUAMAAAAAAAAAAAAAAAAAAOZiYYPHSY5M8p9JetX6jZI8e/7tAAAAAAAAAAAAAAAAAADA4lrk4PGKupLPs7I68AwAAAAAAAAAAAAAAAAAAAtrGYLHkwHgikAwAAAAAAAAAAAAAAAAAABs2q6hG5gyoWMAAAAAAAAAAAAAAAAAANiCZZh4nIwmHQMAAAAAAAAAAAAAAAAAAFu0LMHjdyb5/Jxr3iHJbeZcEwAAAAAAAAAAAAAAAAAAZmJZgse/1N0fm2fBqnpskpfPsyYAAAAAAAAAAAAAAAAAAMzKrqEbmIILknxigLofGKAmAAAAAAAAAAAAAAAAAADMxDIEjz/a3ZcNUPeTSb45QF0AAAAAAAAAAAAAAAAAAJi6ZQgef2iIot3dSU5MUkPUBwAAAAAAAAAAAAAAAACAado9dANb1d1fzMDB6e6+95D1AQAAAAAAAAAAAAAAAABgWpZh4jEAAAAAAAAAAAAAAAAAALBNgscAAAAAAAAAAAAAAAAAAIDgMQAAAAAAAAAAAAAAAAAAkOweuoF5qKrdSW6d5LZJjkhy2Pg6OMl5Sc5JcnaSM5Kc1N2nDNMpAAAAAAAAAAAAAAAAAAAMY2mDx1X13UkekeQ+SW6T5IBNvHtekpOSvCXJq7r7azNoEQAAAAAAAAAAAAAAAAAAdoxdQzcwbVX136rqfUk+lORXktwpyYFJahPX1ZLcPcnzkpxeVW+oqtvO+acAAAAAAAAAAAAAAAAAAMDcLE3wuKqOqKo3J3l7krtkb4g4SXoL18r7ByR5aJITquq5VbXPk5MBAAAAAAAAAAAAAAAAAGBRLEXwuKpuntGE4x/O3sDwZIg4ueJU46yzvlZYuZLsn+TXk3yoqq47w58DAAAAAAAAAAAAAAAAAABzt/DB46q6XpLjkhydyweOVweMV080Xm99cm/1dyrJrZK8p6quPdUfAgAAAAAAAAAAAAAAAAAAA1ro4HFV7Ury+iTXyeXDwcnG045XvnPJOnurQ8srVs67fpI3j+sDAAAAAAAAAAAAAAAAAMDC2z10A9v000nukssHjCefk+S0JH+f5IQkpyb5QpKvd/dFSVJVleSQJAcn+a4kNx5fd05ynyR7xuf0xL2SfE+Spyb5oxn8LgAAAAAAAAAAAAAAAAAAmKuFDR6PA8O/kb2B4GRvKLiTvCbJ87r7pI3O6e5Oct74OiPJx1bVuXOSn0/yiCQH5PKTlZ9eVX/Z3edO4zcBAAAAAAAAAAAAAAAAAMBQdg3dwDbcN8nRq9Yqo4nGd+3uR11Z6HhfdPcJ3f0TSW6U5F+yd5JykhyW5LHbrQEAAAAAAAAAAAAAAAAAAENb5ODxA1d9riSfSfJ93f2BaRfr7i8luX+SP8veqcpJ8uPTrgUAAAAAAAAAAAAAAAAAAPO2yMHjO088rwSBf7q7vzCrgt3dSZ6avZOPK8kdq+qqs6oJAAAAAAAAAAAAAAAAAADzsMjB4xtnFDZeCR3/Q3cfP+ui4/DxL0ws7ZfkdrOuCwAAAAAAAAAAAAAAAAAAs7TIweNrrPr8pnkV7u6Tk7x/YulG86oNAAAAAAAAAAAAAAAAAACzsMjB41r1+b1zrv+eiec9c64NAAAAAAAAAAAAAAAAAABTtcjB4zNXff7KnOufPvF88JxrAwAAAAAAAAAAAAAAAADAVC1T8Pibc65/9sTzRXOuDQAAAAAAAAAAAAAAAAAAU7XIweNPJKmJz/OeOjxZ77ytHFBVz6yql06pHwAAAAAAAAAAAAAAAAAA2LJFDh6/a9Xnw+dc/5CJ561OW35Skp/YfisAAAAAAAAAAAAAAAAAALA9ixw8Pm7V56PnXH9y4vG5m325qg5Lcs3ptQMAAAAAAAAAAAAAAAAAAFu3sMHj7j4tlw8f33LOLeyZeD5tC+/fdFqNAAAAAAAAAAAAAAAAAADAdi1s8HjshRPPd5xz7ZUJy53k1C28f7Mp9gIAAAAAAAAAAAAAAAAAANuy0MHj7n5LkvcmqSQPnHP5lYnFn+/uC7fwvuAxAAAAAAAAAAAAAAAAAAA7xu6hG9iqqtovyf9I8k9J7pbkqKp6fZLz5tTCTTOadnxxVT0jyRFJDtrE+/ecSVcAAAAAAAAAAAAAAAAAALAFCxs8zijk+4qMwr/JaOrxw+ZYv8b3myT5rTnWBQAAAAAAAAAAAAAAAACAqVvk4PFqnb1h4HnW22rNvvKvAAAAAAAAAAAAAAAAAADAfCxT8LgyTJhXgBgAAAAAAAAAAAAAAAAAgIW3LMHjocK/QscAAAAAAAAAAAAAAAAAACyFZQke19ANAAAAAAAAAAAAAAAAAADAIluW4PE/JHnd0E1s0qOS3HfoJgAAAAAAAAAAAAAAAAAAIFme4PFfd/drh25iM6rqKhE8BgAAAAAAAAAAAAAAAABgh9g1dANT8u6hG9iCDw7dAAAAAAAAAAAAAAAAAAAArFiG4PHnu/v0oZvYgo8muXjoJgAAAAAAAAAAAAAAAAAAIEl2D93ANlyQ5CeTLGLoON19UVW9OskNh+4FAAAAAAAAAAAAAAAAAAAWNnjc3ZcmeeXQfWxHdz9u6B4AAAAAAAAAAAAAAAAAACBJdg3dAAAAAAAAAAAAAAAAAAAAMDzBYwAAAAAAAAAAAAAAAAAAQPAYAAAAAAAAAAAAAAAAAAAQPAYAAAAAAAAAAAAAAAAAACJ4DAAAAAAAAAAAAAAAAAAARPAYAAAAAAAAAAAAAAAAAACI4DEAAAAAAAAAAAAAAAAAABDBYwAAAAAAAAAAAAAAAAAAIILHAAAAAAAAAAAAAAAAAABABI8BAAAAAAAAAAAAAAAAAIAIHgMAAAAAAAAAAAAAAAAAABE8BgAAAAAAAAAAAAAAAAAAIngMAAAAAAAAAAAAAAAAAABE8BgAAAAAAAAAAAAAAAAAAIjgMQAAAAAAAAAAAAAAAAAAEMFjAAAAAAAAAAAAAAAAAAAggscAAAAAAAAAAAAAAAAAAEAEjwEAAAAAAAAAAAAAAAAAgAgeAwAAAAAAAAAAAAAAAAAAETwGAAAAAAAAAAAAAAAAAAAieAwAAAAAAAAAAAAAAAAAACTZPXQDs1RVhye5fZKbJTkyyWFJDsre3/3V7n76QO0BAAAAAAAAAAAAAAAAAMCOsXTB46rak+Snkjw8o9DxRj6dZFPB46q6fpIbJ/lid5+ypSYBAAAAAAAAAAAAAAAAAGCHWZrgcVUdmORZSX4po6nGNaNS90zyiiRnVtXNuvucGdUBAAAAAAAAAAAAAAAAAIC52TV0A9NQVTdMcmKSX09ylewNHfcG11Z9eHzfk1HIGQAAAAAAAAAAAAAAAAAAFt7CB4+r6jpJ3pvkFhkFjifDxbOYenzqxPMTq2q/GdQAAAAAAAAAAAAAAAAAAIC5WujgcVXtSvLaJNceL62eZLz6c2WbYeTuviDJl8fnfFeS+23nPAAAAAAAAAAAAAAAAAAA2AkWOnic5GeS3CPrB4xXQsZfS/IfST6U0XTk7U5C/vzE8w9v8ywAAAAAAAAAAAAAAAAAABjc7qEb2KZfWPW5knw7yd8m+cckJyT5z+6+5HJfqrosVwwrb8ZXJp7vto1zAAAAAAAAAAAAAAAAAABgR1jY4HFV3SvJzTIKENf4/uIkT+/uc2Zc/oyVNpIcU1VX7e7zZlwTAAAAAAAAAAAAAAAAAABmZtfQDWzDPcb3ldDxE7r75+YQOk6SyZDxriR3mENNAAAAAAAAAAAAAAAAAACYmUUOHh87vneSv+7ul86x9rdWfb7BHGsDAAAAAAAAAAAAAAAAAMDULXLw+MYTz38659qr/2575lwfAAAAAAAAAAAAAAAAAACmapGDx4eP7xd390fmXPtqqz5fZc71AQAAAAAAAAAAAAAAAABgqhY5eHxYkk7y1QFq32DV50sG6AEAAAAAAAAAAAAAAAAAAKZmkYPHFyep7J18PE93yij0vOJbA/QAAAAAAAAAAAAAAAAAAABTs8jB47PG94Or6sh5Fa2qOya59qrlIaYuAwAAAAAAAAAAAAAAAADA1Cxy8PhzE8+PmmPdX11j7XNrrAEAAAAAAAAAAAAAAAAAwMJY5ODxSeN7JXlKVX3XrAtW1UOTPDxJTyxfluRjs64NAAAAAAAAAAAAAAAAAACztMjB4+PH905yrSRvqKrDZlWsqu6S5CXZGzqu8f0j3f2tWdUFAAAAAAAAAAAAAAAAAIB5WOTg8duTnD/x+W5JTqiqe06zSI08LslxSa6xaruTvHma9QAAAAAAAAAAAAAAAAAAYAgLGzweTxn+q+ydPFxJbpLkuKp6d1U9saquv9Xzq+r6VfXEJP+R5H8nucoaX7s4ycu3WgMAAAAAAAAAAAAAAAAAAHaK3UM3sE2/l+QxSa6e0fThZBRA/t7xlar6epJPJflckm8m+dbE+1evql9LclCSg5MckeToJDcd31fOy8T5K2ud5KXd/aWp/iIAAAAAAAAAAAAAAAAAABjAQgePu/uMqnpSkldnbzC4szcsnCR7MgoUH7vq9Rqv/+4aR0++32vsJ8kXk/zGZnsGAAAAAAAAAAAAAAAAAICdaNfQDWxXd782yXNyxbDw5FWrrhWr11euyXezxjvnJfmR7j5nyj8HAAAAAAAAAAAAAAAAAAAGsfDB4yTp7uck+eUkl673lVwxTLzW+uqwcU18b2XtjCTf390nTqt/AAAAAAAAAAAAAAAAAAAY2lIEj5Oku/8syd2TfDhXnGy8nrWmIP/XkbnixOPXJblNd39gO70CAAAAAAAAAAAAAAAAAMBOszTB4yTp7n/v7jsm+ZEk/5jRBOS1wsXrTTnOqu9Xkm8leWWSO3X3I7v7zBn/DAAAAAAAAAAAAAAAAAAAmLvdQzcwC939d0n+rqqOSHLfJHdLcuskN03yXUn2X+O1S5Ocm+QzST6R5D+SfCjJu7v7onn0DQAAAAAAAAAAAAAAAAAAQ1nK4PGK7v56ktePr/9SVYcmuUpGAeQLkpzX3RfMv0MAAAAAAAAAAAAAAAAAANgZljp4vJ7uPjej6cYAAAAAAAAAAAAAAAAAAECSXUM3AAAAAAAAAAAAAAAAAAAADG+hg8dVdWlVHTd0HwAAAAAAAAAAAAAAAAAAsOgWOnicpJJ8T1XtN3QjAAAAAAAAAAAAAAAAAACwyBY9eJwkV0ny3UM3AQAAAAAAAAAAAAAAAAAAi2wZgsdJ8tyqOnboJgAAAAAAAAAAAAAAAAAAYFEtS/D4fkneW1UfrKrHVtUBQzcEAAAAAAAAAAAAAAAAAACLZFmCx0lSSe6Q5GVJTq+q362q6w3cEwAAAAAAAAAAAAAAAAAALIRlCR7X+N7j5z1Jfi3Jp6vqjVV1r4H6AgAAAAAAAAAAAAAAAACAhbAsweM3J3lLkkvHn3t8353kIUn+pao+VlVPrKqDB+gPAAAAAAAAAAAAAAAAAAB2tGUJHr++ux+a5PpJfjPJ6dk7BTnj51sleVGSL1bVn1TVTebeJQAAAAAAAAAAAAAAAAAA7FDLEjz+jyTp7i93928luWGSH0ny/7J3+nFnFEA+LMkvJvlkVb2tqh4w/3YBAAAAAAAAAAAAAAAAAGBnWYbg8aVJPjm50N2XdfffdfeDktwoye8l+eqq93YleUCSt1XVqVX1i1V16Fw6BgAAAAAAAAAAAAAAAACAHWYZgsef7u6L19vs7s939zOSXC/Jf0/yL6u+UklukuRPkpxeVS+qqlvNrFsAAAAAAAAAAAAAAAAAANiBFj14/K9J/nZfvtjdl3b3G7v7fkluluR5Sb6+6mtXTfLEJB+tquOq6keqqqbaMQAAAAAAAAAAAAAAAAAA7EALHTzu7nuNpxlv9r1Pd/evJDkqyaOSvDujyccrKsk9k7wpyWer6teq6ohp9AwAAAAAAAAAAAAAAAAAADvRQgePt6u7L+ru13T3PZMck+QFSc4Zb9f4ul6S303yhap6WVXdYZhuAQAAAAAAAAAAAAAAAABgdr6jg8eTuvuT3f2LSY5M8rgk/z6xXUkOSvLYJCdU1fuq6hFVtXuAVgEAAAAAAAAAAAAAAAAAYOoEj1fp7gu6+xXdfdckt0/y4iQXJOnsnYJ8lySvTvL5qnp2VV17sIYBAAAAAAAAAAAAAAAAAGAKBI/XUVW7ktw0ya0ymnacjMLHkwHkayd5VpLPDtAiAAAAAAAAAAAAAAAAAABMze6hG9hpquqaSZ6Q5IlJrju5NfHcq9b3n0NrAAAAAAAAAAAAAAAAAAAwM4LHY1V15yRPTvLwJAfkikHjWuu9sQtn2BoAAAAAAAAAAAAAAAAAAMzcd3TwuKr2T/JjSZ6U5M4ry+P76qnGqz8nyVeTvDjJ/5phmwAAAAAAAAAAAAAAAAAAMHMLHTyuqmcl+WR3v36T7x2Z5GeTPD7JNVeWx/e1Ase96jsnJXl+ktd298VbaB0AAAAAAAAAAAAAAAAAAHaUhQ4eJ/nNJB9Nsk/B46q6e5InJ3lwRr+9JravLHB8aZL/m+T53f3ubXUNAAAAAAAAAAAAAAAAAAA7zKIHj5PkFlW1u7svWWuzqg5K8qgkT0pym5Xl8X112HhlbTJwfHaSlyZ5YXd/bop9AwAAAAAAAAAAAAAAAADAjrEMweP9k9wyyccmF6vqBkl+Psnjklw9m5tunCSnJnlBkld09/nTbhoAAAAAAAAAAAAAAAAAAHaSZQgeJ8ntMg4eV9X9kjw5yQOT7MrmA8f/lOT53f32WTYMAAAAAAAAAAAAAAAAAAA7ybIEj+9WVVfPaMLxzcZrK0Hi1WHjlbXJwPG3k/x1RoHjk2fbKgAAAAAAAAAAAAAAAAAA7DzLEjx+wvi+2enGpyf5iyQv6e6zZtohAAAAAAAAAAAAAAAAAADsYMsSPF5ruvHK+lqB4/cn+bMkb+ruS2feHQAAAAAAAAAAAAAAAAAA7HDLEjxePd14ZW0ycHxxkjcmeX53f2COvQEAAAAAAAAAAAAAAAAAwI63LMHj9cLGSfK1JC9J8qLu/tK8GwMAAAAAAAAAAAAAAAAAgEWwLMHjtSYefzzJ85O8ursvmH9LAAAAAAAAAAAAAAAAAACwOJYleJyMAsed5O+T/Fl3HzdwPwAAAAAAAAAAAAAAAAAAsDCWJXh8XpJXJPnz7v70wL0AAAAAAAAAAAAAAAAAAMDCWZbg8a9194uHbgIAAAAAAAAAAAAAAAAAABbVrqEbmJJ3Dt0AAAAAAAAAAAAAAAAAAAAssmUIHn+5u08ZugkAAAAAAAAAAAAAAAAAAFhku4duYJuek+TUoZsAAAAAAAAAAAAAAAAAAIBFt9DB4+5+zpD1q+rwJFft7s8P2QcAAAAAAAAAAAAAAAAAAGzXrqEbWHCvS/KZoZsAAAAAAAAAAAAAAAAAAIDtEjzenpsnqaGbAAAAAAAAAAAAAAAAAACA7RI83qKqOiTJUUP3AQAAAAAAAAAAAAAAAAAA0yB4vHU3G7oBAAAAAAAAAAAAAAAAAACYFsHjrbvF0A0AAAAAAAAAAAAAAAAAAMC07B66gSSpqmsleWySGyX5bJJXdvdXruSdw5Lcbvbdreu+A9YGAAAAAAAAAAAAAAAAAICpGjx4XFX3SvLmJIdOLD+9qn6ou9+9wavfneS42XUGAAAAAAAAAAAAAAAAAADfOXYNWXw8tfiNSQ5LUhPXoUleVVVXu7IjBr4AAAAAAAAAAAAAAAAAAGApDBo8TvLgJIcn6VVXkhyV5CH7cMbqd+d5AQAAAAAAAAAAAAAAAADAUhg6eHzkxPNaU4SvM8deAAAAAAAAAAAAAAAAAADgO9bQweOTt7kPAAAAAAAAAAAAAAAAAABMwe6B6/99kk8kuVWSXrX3gSRv3cdzzkzy7Sn2tS+ukeTQOdcEAAAAAAAAAAAAAAAAAICZGDR43N2XVtUDk7wyyb0ntt6V5NHdvTqMvJ77dffHpt7gBqrql5P88TxrAgAAAAAAAAAAAAAAAADArAw98TjdfXqS+1bV9yS5UZLPdvf7N3HERcn/Z+8+w227q3rxf8fJSQ8JIYUiJEAIvQYQFaVF8Qr+pQiCiJSLAmJBEND/5QqK96pYEAu2KyCIFAMIKOgF6aCIBCEiIKFKD5BeTkgZ98Ve27POPnvts8vaa6618/k8z3zmXL855xhj7nPefp9fProtw63t4wP0BAAAAAAAAAAAAAAAAACAbTF48HhZd78/yfs38epHu/uqac+zDv8xQE8AAAAAAAAAAAAAAAAAANgWu4YeYAo+PFDfz2Rpt2UAAAAAAAAAAAAAAAAAAFh4ixw8Pj/JO5P8/RDNu/vqJJ8cojcAAAAAAAAAAAAAAAAAAEzb7qEH2Kzu/nCSew88xuuTfG3gGQAAAAAAAAAAAAAAAAAAYMsWNng8D7r7mUPPAAAAAAAAAAAAAAAAAAAA07Br6AEAAAAAAAAAAAAAAAAAAIDhCR4DAAAAAAAAAAAAAAAAAACCxwAAAAAAAAAAAAAAAAAAQLJ76AHmSVXdNckDk5yW5MQkRyT5epLPJ3l7kjd295cGGxAAAAAAAAAAAAAAAAAAALaJ4HGSqjo1yQuSnD6+PDrffHR+WJIrqupPkzy7u8+b4YgAAAAAAAAAAAAAAAAAALCtFjp4XFWPSHLYhNsf6O6z1lHjnkn+Oskx2Rs2XtYr1g5J8pNJvqeq7tvdn9/41AAAAAAAAAAAAAAAAAAAMH8WNnhcVUck+Ys1HvnFJGsGj6vq1kn+NsmRo6Ve5bGVa5XkFkneVlV36O5L1zcxAAAAAAAAAAAAAAAAAADMr11DD7AFt8re3Yhr7Ogkfz86JqqqXUlelaXQcWfv7sYrdz1eubYcRL5pkt/c/PgAAAAAAAAAAAAAAAAAADA/Fjl4fJux607yhSTPSnJyd9+/uz94gPd/bFRjOUi8HC4eDyB/Icn7srRz8qWrPPP4qrrhFr8DAAAAAAAAAAAAAAAAAAAGtxOCx5Xkm0nu293/q7u/uM73n5J9Q8fj169LctvuPrm7v6O775jkOkkemuQz2RtA3pXkcVv5CAAAAAAAAAAAAAAAAAAAmAeLHDy++ejcSc7o7o+v98WqukeSWyz/zN4djDvJ73b3g7v7o+PvdPcV3f2aJN+R5Oyxd354S18BAAAAAAAAAAAAAAAAAABzYJGDx98ydv1XG3z3CWPX46Hjf0zy1LVe7O5zkjwpe3c9PrWqTthgfwAAAAAAAAAAAAAAAAAAmCuLHDy+wdj1+9f7UlVdK8mDshQ0Xulnu3u19X1091uT/MfY0m3W2x8AAAAAAAAAAAAAAAAAAObRIgePjxqdLxrtQrxeD0hy2Njv5d2O39XdZ26gztvHrk/awHsAAAAAAAAAAAAAAAAAADB3Fjl4fHiWAsMXbPC9h09Yf9EG64zveHz8Bt8FAAAAAAAAAAAAAAAAAIC5ssjB46tG54PW+0JVHZ/ke7IUWB53RZLXb7D/eOD5sIlPAQAAAAAAAAAAAAAAAADAAljk4PF5SSrJcVW13vDxo5IcPPa7shRCfmt3X7jB/uNh46smPgUAAAAAAAAAAAAAAAAAAAtgkYPH54zOhyT51gM9XFWHJHly9t/tOEnO2ET/48euL9rE+wAAAAAAAAAAAAAAAAAAMDcWOXh85tj1z6zj+WckudEq65clefUm+t9q7HqjuyUDAAAAAAAAAAAAAAAAAMBcWeTg8T+NzpXkh6rqxyc9WFXfn+RZ2Xe34xr9fl13X7yJ/t89dn3eJt4HAAAAAAAAAAAAAAAAAIC5scjB49ck2ZOl8HAl+eOqellVfWdVHVlVh1XVbarqd5K8Nsnu0Xu1os5LNtq4qu6f5ISxpU9tfHwAAAAAAAAAAAAAAAAAAJgfuw/8yHzq7vOr6lVJHp294eMfHh0r1dgz4+cPdfdbNtH+WWPXVyX55CZqAAAAAAAAAAAAAAAAAADA3FjkHY+T5BeSnD+6Xg4Ur3b02DMZu37qRhtW1c8nuetYrc9295UbrQMAAAAAAAAAAAAAAAAAAPNkoYPH3f3VJP89S7sOJ0th4NWO1fyv7n7nevpU1RFV9diqeleSX82+uyafufkvAAAAAAAAAAAAAAAAAACA+bDQweMk6e7XJfmhJBdlKQy8luX7v9Ldv3Sg2lV1m6p6UZKvJPmzJHcfbz06/9NG5gUAAAAAAAAAAAAAAAAAgHm08MHj5L/Cx7dI8uIkF2cpYLzySJL3JrlHdz97naUfmeQxSY5ao+abt/wBAAAAAAAAAAAAAAAAAAAwsN1DDzAt3f3VJI+rqicl+a4kJyc5IUtB5K8keW93f3mDZX8/yavXuH9Fd398M/MCAAAAAAAAAAAAAAAAAMA82THB42XdfXmSf5hSrS8l+dI0agEAAAAAAAAAAAAAAAAAwDzbNfQAAAAAAAAAAAAAAAAAAADA8ASPAQAAAAAAAAAAAAAAAAAAwWMAAAAAAAAAAAAAAAAAAEDwGAAAAAAAAAAAAAAAAAAASLJ76AHmSVXtTnLvJKclOTHJEUm+nuTzSd7e3WcPOB4AAAAAAAAAAAAAAAAAAGwbweMkVXVIkqcleXqSo9d47uNJfrG7Xzur2QAAAAAAAAAAAAAAAAAAYBYWOnhcVSdl8jd8o7svWEeN6yb5uyR3SFIHePxWSc6oqlcneWR3X7GReQEAAAAAAAAAAAAAAAAAYF4tbPC4qg5KcnYmf8MvJvnVA9Q4Jsm7k9xstNTraZ3kIUmOSnL/dQ0LAAAAAAAAAAAAAAAAAABzbtfQA2zBqUkOzlIQeOVxfpKPraPGi7IUOu7sDR0faNfjHj3z36rqJzc8NQAAAAAAAAAAAAAAAAAAzKFFDh7fZnTuseNtSX4kyQ26+6/XermqTk/yoOwbOK5Vfq88lntWkl+tqiOn8TEAAAAAAAAAAAAAAAAAADCknRA8Xg4DP6i7v7u7X9Hdl6/j/WeOXS8HjpcDxZ9L8lNJTklyWJLrJPnOJC9IcuXYe0dlKegMAAAAAAAAAAAAAAAAAAALbZGDx7canTvJ27r7Det9sapOTXKv7A0aL5+T5J1JTuvuP+zuz3T3N7v7/O7+x+7+6ST3TnJx9u6M/JgtfwkAAAAAAAAAAAAAAAAAAAxskYPHNxy7ftkG33382HWPXX8+yYO7+/xJL3b3PyZ5RpaCypXkLlV15Ab7AwAAAAAAAAAAAAAAAADAXNkpweP3rPelqjooyaOzb+B4edfjZ3T3eeso88IkXxtdH5TkNuvtDwAAAAAAAAAAAAAAAAAA82iRg8fHjM57uvtTG3jv9CTHr7L+ie7+q/UU6O4rk7x5bOmmG+gPAAAAAAAAAAAAAAAAAABzZ/fQA2zB4Vnapfj8Db738BW/l3c7fuEG65yV5EdG1ydu8N25UlW7ktwqya2TXC/JtZJcmeSCJJ9MclZ3f21yBQAAAAAAAAAAAAAAAAAAFt0iB48PGp2/ud4XqurQJA/KUtB4pVdtsP+5Y9dHbvDduVBV35rkSUnun9V3gV7WVfWBJC9L8qLuvngW881aVf16kp8fX+vuGmgcAAAAAAAAAAAAAAAAAICZ2jX0AFtwfpZ2Kz5uA+88OMkxY7+XQ6VndvfntzDLQoVTq+rkqvrbJP+c5NFZO3ScLH3fXZP8bpLPVtVjt3nEmauq+yR5+tBzAAAAAAAAAAAAAAAAAAAMZZF3PD43S4HZI6vqFt39H+t458mrrHWSMzbRfzysuzA7AFfV9yV5ZZKjV9w6L8kbknwoS6HuY5LcPskPZN9vPS7Ji6rqvkke2917tnnkbVdVxyV5aRY7iA8AAAAAAAAAAAAAAAAAsCWLHDw+K8nNR9ePSvLMtR6uqgcn+dYsBY3HdZJXbKL/yWPXF27i/ZmrqgdlKWR90Ipbv53k2d19ySrvHJbkGUmeteK9hyc5oaru193f3KaRZ+XPknzL0EMAAAAAAAAAAAAAAAAAAAxpkXd4/efRuZI8papOm/RgVd0kyZ9k39BxjX6/o7u/sIn+3z12fcEm3p+pqrprlgLWK0PHT+nup60WOk6S7t7T3c9J8rAkV6+4fXqWQrsLq6qemOSBQ88BAAAAAAAAAAAAAAAAADC0RQ4e/3WWgsOd5LAkb6uqH6uqQ8YfqqoHJHlPkuOWl1bUeclGG1fV7ZPcbGzpcxutMUtVdWSSv0xy6Ipbr+zu56+nRne/JsmzV7n1o1X1o1ubcBhVdaskzxt6DgAAAAAAAAAAAAAAAACAebCwwePu/nSSt2fvzsVHZ2lX43Or6l+q6n1VdU6S1ya5/uiZ5WeXfSXJGZto/z9W/P6PTdSYpZ9PcuqKtcuSPG2DdZ6b1b/1eVV1zGYGG0pVHZqlHaAPH3oWAAAAAAAAAAAAAAAAAIB5sLDB45FfSHLV6Ho5WHxEkjsn+dYkx2f/sHHG1n65u/dspGFVfV+Sh47V/HJ3X7Kp6Wegqq6b5OdWufXK7v7iRmp19xVJfn2VW8dn6d9ikTw3yR2GHgIAAAAAAAAAAAAAAAAAYF4sdPC4uz+Q5NeyFCROlsLA4yHj8d8rA8hv7O4/XW+vqrpJVT0nyctGtZbrfXhz08/MT2QpjL3SSzZZ7xVJLlxl/YlVdeQma87UKDz+M2NLHxlqFgAAAAAAAAAAAAAAAACAebHQweMk6e5nJfnt7A0fJ/sHkJN9A8hvTfLwA9WuqsOr6lFV9fYkZyd5ZpJrr6j9vs1Nvv2q6qAkT1jl1nlJ3rOZmt19eZK/WeXWtZM8cjM1Z2m0A/SfZ+//l39L8vTBBgIAAAAAAAAAAAAAAAAAmBMLHzxOku5+epLvT/Lp7N2NeLXjsiT/M8n9uvvSdZT+xSyFVO+Zpb/VeK1lb5/KR2yPeya53irr7+3uq7ZQ9y0T1g8Y5p4DL05y4uh6T5JHjM4AAAAAAAAAAAAAAAAAANdou4ceYFq6+01J3lRV35HkfklOTnJCkouTfCVLO/y+sbsv2kDZNyX5xhr3r+juTe0cPCMPnrD+/i3WffeE9XtU1fHd/fUt1t8WVfXkJN83tvT07v5IVd1rmIkAAAAAAAAAAAAAAAAAAObHjgkeL+vuf0zyj1Oq9Z4sBZYX1ekT1j+yxbqfSXJBkmNWrO9Kcu8kZ2yx/tRV1e2TPHds6Y3d/QdDzQMAAAAAAAAAAAAAAAAAMG92DT0A26OqTkxyywm3z95K7e7uJB+bcPteW6m9Harq8CSvSHLoaOkrSR473EQAAAAAAAAAAAAAAAAAAPNH8HjnuvMa9/5zCvU/PWH9tCnUnrbnJbn16LqTPKa7vzbgPAAAAAAAAAAAAAAAAAAAc0fweOe6w4T1S7v7winU//yE9dtVVU2h/lRU1QOSPHFs6fnd/X+HmgcAAAAAAAAAAAAAAAAAYF4JHu9ct5iw/vUp1f/qhPUjk9xwSj22pKpukOSFY0sfSvILw0wDAAAAAAAAAAAAAAAAADDfdg89wHarqlOS3DzJDZIck+Sw7P3uc7v7D4aabZudPGH9vCnVP+cAvSftiDwTo12XX5rkuNHSpUke0d3fHG4qAAAAAAAAAAAAAAAAAID5teOCx1W1O8kPJnloktOTHL3G459KsqHgcVVdO8l1kpzf3educsxZOGnC+kVTqn/+JnrP0jOy9O+/7Knd/bGhhgEAAAAAAAAAAAAAAAAAmHe7hh5gmqrqx5N8NsnLkzwoSzsc1xrHZjwkydlJPlBVh21x5O10/IT1i6dU/4JN9J6JqrpLkl8ZW3p9d//JUPMAAAAAAAAAAAAAAAAAACyCHRE8rqrrVNVbk/xxkhtkb7C41zg260Oj2icnecIW6mybqtqVyTs975lSm8vWuHfslHpsWFUdmaXg+cGjpS8ledxQ8wAAAAAAAAAAAAAAAAAALIqFDx5X1dFJ3pXkXtk/bJxsbXfj1Xx87Ppnplh3mo7O5G+eRfD4mCn12IzfT3Lq6LqTPKq7vzHgPAAAAAAAAAAAAAAAAAAAC2H30ANMwQuT3DqTdzLeyu7G+xfrvriqvp7k+CQ3rqrv6u53T7PHFBy6xr2rptTjyk323zZV9dAkjx1b+q3ufusQs6xHVZ2Y5ISh55hzpww9AAAAAAAAAAAAAAAAAABcUyx08LiqHpHkB7N/uHi13X4vydJuv3uSfMsWW382S8HjJHlgknkLHh+8xr1pBY/XqnPIlHqsW1WdlORPx5bOTPLMWc+xQU9K8uyhhwAAAAAAAAAAAAAAAAAASBY8eJzkqSt+LweO35vkzUn+Jcknkny5uy/7r4eqrs7WdkL+ytj1d22hznbZtca9ae0AffUa9w6aUo91qaqDkrwsybVHS5ckeUR3XzHLOQAAAAAAAAAAAAAAAAAAFtnCBo+r6q5JTsveIG0l+bskT+3u/9jm9ueM9bxDVR3a3Zdvc8+NuHKNe2uFkjdirXDxrAO/z8y+AfAnd/cnZjwDAAAAAAAAAAAAAAAAAMBCW9jgcZJ7j86VpfDxc7r7l2bU+8Kx691J7pTkfTPqvR5rBX+ntRvxWnW+OaUeB1RV357kWWNLr+nuF86q/xb9YZIzhh5izp2S5PVDDwEAAAAAAAAAAAAAAAAA1wSLHDz+9tG5k7xxhqHjJLl0xe9TMl/B4z1r3Dt4Sj0O3WT/qamqo5P8ZfaGoL+Q5Mdn0Xsauvuc7N09m1VU1dAjAAAAAAAAAAAAAAAAAMA1xq6hB9iCW45dP3ewKZacOHD/lS5OctWEe4dNqcfha9w7f0o9DuSPktxkdH11kkd293kz6g0AAAAAAAAAAAAAAAAAsKMscvD4OqPzVUn+aca9j1rx+4gZ919Td3cmh3/XCgxvxFrfPKn31FTVo5I8Ymzp17v7ndvdFwAAAAAAAAAAAAAAAABgp1rk4PG1k3SSr3b31TPufdKK35N2Fx7SVyesX2tK9Y/dRO+pqKqbJvmDsaX3J3n2dvYEAAAAAAAAAAAAAAAAANjpFjl4fFWSyvSCtBtxxyyFnpddNsAMB/L5CetHT6n+tde4959T6rGfqtqd5OXZ++9+cZJHdPeV29UTAAAAAAAAAAAAAAAAAOCaYJGDxxeOzteqquvMqmlV3TLJjVcsnzOr/hvwuQnr0/pbXXeNe9sWPE7yy0nuNvb7p7r7U9vYDwAAAAAAAAAAAAAAAADgGmGRg8fjwdqHzbDvk1dZ286g7WZ9bML6cVVVU6g/KXh8Xnd/ZQr191NV103yCyuW/7yqeitHkrev0XPSe+/Yjm8EAAAAAAAAAAAAAAAAABjKIgePzxqdK8lTq+qo7W5YVfdI8vgkPbbcSf5tu3tvwlkT1ndn7d2K1+smE9Y/MoXakxyexf4/CwAAALAMulkAAHzhSURBVAAAAAAAAAAAAAAwtxY5xPmu0bmT3DTJS6pq93Y1q6qbJnlploLOGTt/vLsv3K6+W/DBJFdPuHfSFOrfdML6mVOoDQAAAAAAAAAAAAAAAADAjC1y8PgNSb45uq4kD0zyzlFAeKqq6j5J3pfkRtl/t+M3TLvfNHT3+Zm86/Ett1K7qg5JcosJt9+5ldoAAAAAAAAAAAAAAAAAAAxjYYPH3X1BkldkKXTco/O3J/l4Vb20qr63qg7dbP2qOnRU481J3pLk+Ozd5fi/xkjy4s32mIG3Tli/3Rbr3jbJwausX5m9O1EDAAAAAAAAAAAAAAAAALBAdg89wBY9J8kPJTkse8PHu5P8yOjYU1X/nuTsJJ9LclGSS8feP6qqHjZ6/4gkxyU5KcmpSe6WZDm4vBxuzorfZ3T32dvyZdPx2iQ/t8r6t2+x7j0nrL+ju8/dYu2Juvuz2T/8vWVVda8kb5/Qc+r9AAAAAAAAAAAAAAAAAADm0UIHj7v7M1X1zCTPy1IQeDkcvBwWPTzJXZLceZXXK8l1k7x8QvnxwGmvcv+CJE/d6Mwz9k9ZClyfvGL9LlV1ZHdfssm63zth/VWbrAcAAAAAAAAAAAAAAAAAwMB2DT3AVnX385O8KPsHhVcGkcePTFgfP8ZrrHznyiQP7+4vT/drpqu7O8kfr3Lr0EwOD6+pqq6T5D6r3Dovk0Pck2p9V1U9rap+tqrusJl5AAAAAAAAAAAAAAAAAACYjoUPHidJd/9Ykt/LvgHh/7q9yrHWvdUCy+O/L0vykO5+83S/Ytv8nyQXrrL+mE3W+7EkB6+y/ofdfel6ClTV8VX19iTvSvKbSX4nyYeq6pVVdcQm5wIAAAAAAAAAAAAAAAAAYAt2RPA4Sbr7Z5M8JMmXsnoAedmBdjzep2z27nhcSd6X5M7d/YbpTL39uvsbSX5jlVv3r6pbb6RWVV0ryVNWufX1CT0meVWSe62y/rAkf7CRmQAAAAAAAAAAAAAAAAAAmI4dEzxOku5+bZKbJ/nZJGdn9UDxWrscr9zpePl4Z5IHd/d3dPfHt/1Dpu+3k3xsxdquJL9XVWuFtFf6tSTXW2X9yd292q7K+6mquye5zxqPPLqqbriBmQAAAAAAAAAAAAAAAAAAmIIdFTxOku6+rLt/r7tvmeROSX4hyd8k+Wz23b140nFukncl+eMkP57kRt197+5+3Wy/ZHq6e0+SRybZs+LW6Ul+ZT01qurHk/zkKrde0t0v38A433aA+7uS3G0D9QAAAAAAAAAAAAAAAAAAmILdQw+wnbr7w0k+vPy7qg5OcmKS45IcnuTgLIVxL05yUZILu/uiAUbddt39war64SSvTnLQ2K1nVtXxSZ6x2q7FVXVkkmcnedoqZd+cpXD21MfdhpoAAAAAAAAAAAAAAAAAAKxhRwePV+ruK5J8cXRc43T366rqAUlemeSosVtPSPLDVfX6JB9Mcn6So7O0Y/QDkhy7SrmXJvnx0d90I957gPtXJ/nnDdYEAAAAAAAAAAAAAAAAAGCLrlHBY5LufmNV3THJnyQ5fezW0Ul+dHSs5StJntLdr9xk//dV1auTPGTCIy/s7mtkMBwAAAAAAAAAAAAAAAAAYEi7hh6A2evuT3X3dye5d5JXJ7n4AK9cleTdSR6f5CabDR2PeUKSd6yy/qokT95ibQAAAAAAAAAAAAAAAAAANmFhdzyuqo8kOWKNR7q7T5nVPIuou9+R5B1VdWiS2yW5dZLjs/R3vSzJ+Uk+keSs7r5gin3PTXLvqrpXkrsmuTLJO7v7g9PqscF53pGkhugNAAAAAAAAAAAAAAAAADAvFjZ4nOSQJDdesdZZCpB2kjNmPdCi6u7Lk3xgdMyy7zuy+s7HAAAAAAAAAAAAAAAAAADM2K6hB9iC943OPTqSpdDx25PcrbsfPshUAAAAAAAAAAAAAAAAAACwgBY5ePx/x66Xdzl+aHef3t0z3bkXAAAAAAAAAAAAAAAAAAAW3SIHj1+fZM+KtY8OMQgAAAAAAAAAAAAAAAAAACy6hQ0ed/fFSV6dpd2Ol11noHEAAAAAAAAAAAAAAAAAAGChLWzweOQPRucenU+dZfOq+t9V9dZZ9gQAAAAAAAAAAAAAAAAAgO2w0MHj7n5/krdk767Ht5rxCA9Mcq8Z9wQAAAAAAAAAAAAAAAAAgKlb6ODxyC+OXd95Vk2r6qAkN5tVPwAAAAAAAAAAAAAAAAAA2E4LHzwe7Xr8t1na9fjbqmr3jFrfNMnBM+oFAAAAAAAAAAAAAAAAAADbauGDxyNPS/LNJIcnufuMet5yRn0AAAAAAAAAAAAAAAAAAGDb7YjgcXd/IslzsrTr8UNm1FbwGAAAAAAAAAAAAAAAAACAHWP30ANsVlUdleQZSY4fHdcb3fqxqrr/DEY4dgY9AAAAAAAAAAAAAAAAAABgJhY2eJzkmCT/M0mvWD80yY1nPg0AAAAAAAAAAAAAAAAAACywRQ4ej6ux65VB5Fn1BQAAAAAAAAAAAAAAAACAhbVr6AGmpDPbwDEAAAAAAAAAAAAAAAAAAOwoOyV4vEz4GAAAAAAAAAAAAAAAAAAANmH30ANMSQ09AAAAAAAAAAAAAAAAAAAALLKdEjz++STvn3HPRyZ53Ix7AgAAAAAAAAAAAAAAAADAttgpweO/7O4vzbJhVR0VwWMAAAAAAAAAAAAAAAAAAHaIXUMPMAXnzDp0PDLrHZYBAAAAAAAAAAAAAAAAAGDb7ITg8ZlDNO3uryX5zyF6AwAAAAAAAAAAAAAAAADAtO0eeoAtuCTJS5K8acAZnp/kDgP2BwAAAAAAAAAAAAAAAACAqVjY4HF3n5/ksQPP8Pwh+wMAAAAAAAAAAAAAAAAAwLTsGnoAAAAAAAAAAAAAAAAAAABgeILHAAAAAAAAAAAAAAAAAACA4DEAAAAAAAAAAAAAAAAAAJDsHnqA7VZVt05y59Fx+yTHJTlmdByR5OIkFyQ5P8k5Sf41yZlJPtDdn539xAAAAAAAAAAAAAAAAAAAMHs7MnhcVbdI8hNJHprkeitvr/h97OhIkk7yPWN1PpLkhUle1t3nbs+0AAAAAAAAAAAAAAAAAAAwvF1DDzBNVXWjqnpFkn9P8tNJrp+loPH4kSwFjFceWeXZ2yX5nSRfrKrnVtVhM/oUAAAAAAAAAAAAAAAAAACYqR0TPK6qH0pyVpIfytJ3VVYPGPeEEmuFkQ9N8rQkZ1XVPbfpEwAAAAAAAAAAAAAAAAAAYDA7InhcVU9O8vIkx2TfwHGy707H6y6Z/YPLleRmSd5SVY/Z+tQAAAAAAAAAAAAAAAAAADA/Fj54XFUPTfK8LH3LysBxsv8ux3WAY7V3xtd2J/mzqvqBqX4IAAAAAAAAAAAAAAAAAAAMaPfQA2xFVV0/yZ9k7+7Eyb47FY/vdHx5ks8k+XySbyS5LMmVSQ5LcmSSI5JcN8kpSY4ee2+1APKuJC+tqtt29xem+EkAAAAAAAAAAAAAAAAAADCIhQ4eJ3lWkmtn/9DxcuD435K8JsnfJDmru69aT9GqOi7JXZN8d5L/luTWo1vjIeRrJXl+kodsenoAAAAAAAAAAAAAAAAAAJgTu4YeYLOq6tpJHpN9w8DLoeOzkty3u+/Q3c/p7n9db+g4Sbr7G9399939tO6+bZL7JHlT9gaal/s8qKput/WvAQAAAAAAAAAAAAAAAACAYS1s8DjJg5McOva7RsefJzmtu/9hWo26+x3d/f1JHp3k0hW3HzetPgAAAAAAAAAAAAAAAAAAMJRFDh7fZ+y6srQL8Su7+79399Xb0bC7/yLJ/ZJclbFdj7ejFwAAAAAAAAAAAAAAAAAAzNIiB49vt+L3+UmevN1Nu/vdSX4pS6HjJLlhVZ283X0BAAAAAAAAAAAAAAAAAGA7LXLw+EbZu+twJ3l5d39tRr1/P8mlY79vPaO+AAAAAAAAAAAAAAAAAACwLRY5eHzUit9vmFXj7r4oyd+MLZ00q94AAAAAAAAAAAAAAAAAALAdFjl4fOmK3x+fcf/xfkfPuDcAAAAAAAAAAAAAAAAAAEzVIgePz1nx+6sz7v/FseuDZ9wbAAAAAAAAAAAAAAAAAACmapGDx19OUmO/e8b9rxq7Xrn7MgAAAAAAAAAAAAAAAAAALJRFDh7/84rfR864/3i/izdToKo+XFVXTmkeAAAAAAAAAAAAAAAAAADYtEUOHr9rxe8bzLj/loPHSW6WfXdtBgAAAAAAAAAAAAAAAACAQSxy8PgdSS4a+33SjPsfNXb99Y2+XFU3SnL49MYBAAAAAAAAAAAAAAAAAIDNW9jgcXdfnOQvxpbuOOMRrj92/YlNvH/zaQ0CAAAAAAAAAAAAAAAAAABbtbDB45HfS3Ll6PrbZtz75NH5su7+z028f+o0hwEAAAAAAAAAAAAAAAAAgK1Y6OBxd38iyW8kqSTfU1VHzLD9LZN0krM3+b4djwEAAAAAAAAAAAAAAAAAmBu7hx5gs6rqsCRvSnLQaOmwJBdV1axHuXFVnZ3kuNEM63XwNs0DAAAAAAAAAAAAAAAAAAAbtrDB4ywFju+VpV2Hl808dZzk6CTHDNAXAAAAAAAAAAAAAAAAAACmZpGDx6vpAz8yVTU6Ntt3iKA0AAAAAAAAAAAAAAAAAADsZycFj4cK8c467AwAAAAAAAAAAAAAAAAAAFO3U4LHwr8AAAAAAAAAAAAAAAAAALAFOyV4PNRuxwAAAAAAAAAAAAAAAAAAsCPsGnqAKXlOd+9apCPJbwz9RwMAAAAAAAAAAAAAAAAAgGU7JXj87qEH2IQPDD0AAAAAAAAAAAAAAAAAAAAs2wnB4yuT/NPQQ2yC4DEAAAAAAAAAAAAAAAAAAHNjJwSPP9Tdlw49xEZ192eTnDv0HAAAAAAAAAAAAAAAAAAAkCS7hx5gs7r7kix+cPpRSU4YeggAAAAAAAAAAAAAAAAAAFjY4PFO0N1vGnoGAAAAAAAAAAAAAAAAAABIFn/HYAAAAAAAAAAAAAAAAAAAYAoEjwEAAAAAAAAAAAAAAAAAgOweeoDtVFV3SnJakpsnuUGSY5Iclr3f/YXuftRA4wEAAAAAAAAAAAAAAAAAwNzYccHjqrptkp9M8uAkx6/1aJJPbqL+7ZPcJcmnuvudmxoSAAAAAAAAAAAAAAAAAADmzI4JHlfVCUmen+RhWQoV1za1unWSP0tyUVXdsru/vE19AAAAAAAAAAAAAAAAAABgZnYNPcA0VNVdk5yV5OFZ+qZK0gc4NutDo/NRSZ6+hToAAAAAAAAAAAAAAAAAADA3Fj54XFW3SPLWJNfNvoHj7fKpJFePrh9TVYduYy8AAAAAAAAAAAAAAAAAAJiJhQ4eV9VhSc7I0u7DawWOa8Wxad19RZIvjuock+T7t1IPAAAAAAAAAAAAAAAAAADmwe6hB9iipyS5bfYPHC+Hi69O8qUkX05yTpI9o+NHttj380luNLq+f5LXbLEeAAAAAAAAAAAAAAAAAAAMamGDx1V1UJInZd/QcSX5QpKXJHlzkg929yWrvPsjmbw78np8Zazfd2yhDgAAAAAAAAAAAAAAAAAAzIWFDR4nuW+Sb8lSgLiytJPxLyX5re6+ept7f23s+tSqOra7z9vmngAAAAAAAAAAAAAAAAAAsG12DT3AFnzn6FxJrkzyg939GzMIHSfJxSt+nzaDngAAAAAAAAAAAAAAAAAAsG0WOXj8baNzJ3lBd//dDHtfuuL3STPsDQAAAAAAAAAAAAAAAAAAU7fIweOTx65fMOPeB6/4fdyM+wMAAAAAAAAAAAAAAAAAwFQtcvD42NH58u7+5Ix7X3vF70Nn3B8AAAAAAAAAAAAAAAAAAKZqkYPHRyfpJF8boPdNVvy+YoAZAAAAAAAAAAAAAAAAAABgahY5eLwnSSU5YZZNq6qS3DVLoedll8xyBgAAAAAAAAAAAAAAAAAAmLZFDh6fOzofWlWnzLDvPZJcZ8Xal2fYHwAAAAAAAAAAAAAAAAAApm6Rg8efGbt+9Az7/s9V1j47w/4AAAAAAAAAAAAAAAAAADB1ixw8PnN0riQ/U1U32+6GVfXEJKcn6bHlK5L823b3BgAAAAAAAAAAAAAAAACA7bTIweO3js6d5Ogkr6uqk7arWVU9KMnzsjd0XKPr93f3FdvVFwAAAAAAAAAAAAAAAAAAZmGRg8dvSfKN0XUnuXWSD1bVo6tqat9VVUdV1XOSnJHksFUeee20egEAAAAAAAAAAAAAAAAAwFAWNng82mX4BVnaeXjZdZK8KMknq+rXquqeVXXERmtX1cGjd38tyWeTPDNLf6te8eilSf58E+MDAAAAAAAAAAAAAAAAAMBc2T30AFv0W0kel+QG2RsKriQ3TvKM0ZGq+kqSzyW5KEth4WUnVNUfZWkn4yOSHJfkpCQ3SnLIWL1k39BxjX7/TnefP80PAgAAAAAAAAAAAAAAAACAISx08Li7L66qxyT5++zdvXk8gLzs+kmut+L1SnJ0ksevsr5Pm9VaJ/lokv+9wZEBAAAAAAAAAAAAAAAAAGAu7TrwI/Otu9+a5AnZPyDcK44aO5bVKsfK97LKO19J8gPdffk0vwUAAAAAAAAAAAAAAAAAAIay8MHjJOnuFyX5oSQXZf8di5d/rwwTr1xbea9WvLu89rEk39Xdn5nW/AAAAAAAAAAAAAAAAAAAMLQdETxOku5+bZI7JHl9Vg8N7/P4hPVJz1SSy5M8N8mdu/vTWx4YAAAAAAAAAAAAAAAAAADmyI4JHidJd3+uux+UpQDy/0lybvaGkMfDyJOsfLaSfCrJLyc5pbv//+7es03jAwAAAAAAAAAAAAAAAADAYHYPPcB26O5/S/KEqnpSkjsnuXuS2yY5Ncn1kxyX5PAkByfZk+TiJBcluTDJp5P8e5KPJjmzuz818w8AAAAAAAAAAAAAAAAAAIAZ25HB42XdfVWS948OAAAAAAAAAAAAAAAAAABggl1DDwAAAAAAAAAAAAAAAAAAAAxP8BgAAAAAAAAAAAAAAAAAABA8BgAAAAAAAAAAAAAAAAAABI8BAAAAAAAAAAAAAAAAAIAku4ceYDtU1e4khyc5IslBSfYkuay7Lxt0MAAAAAAAAAAAAAAAAAAAmFMLHTyuqhOTfHuSb0ty2yQnj46jJjz/zSRfSvLFJB9N8qEk/9LdZ85iXgAAAAAAAAAAAAAAAAAAmFcLFzyuqusk+ZEkD8tS4LjGbx/g9UOT3CTJjZPcfazmN5K8OcnLuvvvpzkvAAAAAAAAAAAAAAAAAAAsgl1DD7BeVXW9qnpeks8leX6WdjrelaWw8fKRJL2Oo1Ycxyf54SRvrKrPVdXPVNUhs/kyAAAAAAAAAAAAAAAAAAAY3kIEj6vqp5J8PMmTkxyZvYHh1ULFyf7B4vFgcia8t/zMjZL8TpJPVtWDt/O7AAAAAAAAAAAAAAAAAABgXsx18Liqrl1Vb0nyu0mOzv5h42TtgPF+Jdd4fmUI+YZJzqiqv6iqI6b4WQAAAAAAAAAAAAAAAAAAMHfmNnhcVTdJ8i9J7pN9A8fJ+ncxPtCRCfXGA8iPSPLOqrreVD8QAAAAAAAAAAAAAAAAAADmyFwGj6vq+kn+Ickp2Rs6TibvULzW7sfr3eV4PGw8fr+S3DnJu6rqhOl+KQAAAAAAAAAAAAAAAAAAzIfdQw+wUlUdkuRvk9wk+waKl63cqXjZpUnOTvL5JF9KckmSy5JcleTQJIckuXaS45JcN0uh5uNWtF8ZYl5eqyQ3S/K3VXXP7t6zua8DAAAAAAAAAAAAAAAAAID5NHfB4yS/meROWT0AnLG1byZ5W5LXJ3lvko9299UbaVRVxyQ5LcldknxPkntkKaA83m95x+UaPffbSX5yI30AAAAAAAAAAAAAAAAAAGDe7Rp6gHFVdbckP5XJoeNK8uUk/yPJDbr7ft39J939kY2GjpOkuy/o7rd39292932ztAPy45Ocmf13PF4+P7GqTt/E5wEAAAAAAAAAAAAAAAAAwNyaq+Bxkudnb+B3Oey7HPi9PMkvJzm1u3+9u8+ddvPuvqS7/6y775rkgUnOHpsjY7P81rR7AwAAAAAAAAAAAAAAAADAkOYmeFxV901yt+y7w3BG1x9L8q3d/cvdfdks5unuNyS5Y5I/zN4w9LLbV9UPz2IOAAAAAAAAAAAAAAAAAACYhbkJHif56bHr5fBxJXl3km/r7o/MeqDu3tPdP7Vitozm+tlZzwMAAAAAAAAAAAAAAAAAANtlLoLHVXW9JPfLvrscd5J/TvK93X3RULMlSXe/IMnPZ9+dmO9SVXcYbioAAAAAAAAAAAAAAAAAAJieuQgeJ/mBLIV6x30pyQO7e88A8+ynu38ryWuz75wPG2gcAAAAAAAAAAAAAAAAAACYqnkJHn//2PXyrsKP7+6vDjTPJD+R5KIszVdJ7j/sOAAAAAAAAAAAAAAAAAAAMB3zEjy+e/aGeTvJq7v774YdaX/d/bUkv5+9ux7ftqpOHHAkAAAAAAAAAAAAAAAAAACYisGDx1V18yTHji1dneTZA42zHn+QpRmX3XmoQQAAAAAAAAAAAAAAAAAAYFoGDx4nudPYdSd5U3d/fKhhDqS7v5LkHWNLd5rwKAAAAAAAAAAAAAAAAAAALIx5CB7ffHSu0fnFQw2yAf8wdn2LwaYAAAAAAAAAAAAAAAAAAIApmafgcZJcluSNQw2yAf80dn3DwaYAAAAAAAAAAAAAAAAAAIApmYfg8Q1G507y7u6+Yshh1ukTY9ffMtgUAAAAAAAAAAAAAAAAAAAwJfMQPD5h7Po9g02xAd395SSXJ6kkxw48DgAAAAAAAAAAAAAAAAAAbNm8BY8/PNgUG3fh6HzYoFMAAAAAAAAAAAAAAAAAAMAUzEPw+PCx648NNsXGXTo6H77mUwAAAAAAAAAAAAAAAAAAsADmIXh86Nj1FwebYuOuHJ0PGnQKAAAAAAAAAAAAAAAAAACYgt1DD5DkkNH5ou7eM+gkAAAAAAAAsAWnfOE1Q48AAOwQVw89AAAAAAAAcI00DzseV5JOcunQgwAAAAAAAAAAAAAAAAAAwDXVPASPl1029AAAAAAAAAAAAAAAAAAAAHBNNU/B46uGHgAAAAAAAAAAAAAAAAAAAK6p5il4DAAAAAAAAAAAAAAAAAAADETwGAAAAAAAAAAAAAAAAAAAEDwGAAAAAAAAAAAAAAAAAAAEjwEAAAAAAAAAAAAAAAAAgAgeAwAAAAAAAAAAAAAAAAAASXYPPcCYE6vqRUMPsQEnDj0AAAAAAAAAAAAAAAAAAABMyzwFj6+V5NFDDwEAAAAAAAAAAAAAAAAAANdE8xQ8rqEH2KAeegAAAAAAAAAAAAAAAAAAAJiWeQoeC/ICAAAAAAAAAAAAAAAAAMBA5il4bMdjAAAAAAAAAAAAAAAAAAAYyDwFjwV5AQAAAAAAAAAAAAAAAABgIPMUPF60HY8BAAAAAAAAAAAAAAAAAGDHmKfg8duTvGvoITbg3knuMfQQAAAAAAAAAAAAAAAAAAAwDfMUPH5Zd7946CHWq6q+GsFjAAAAAAAAAAAAAAAAAAB2iF1DDzDm00MPsEGLNi8AAAAAAAAAAAAAAAAAAEw0T8Hjzww9wAYJHgMAAAAAAAAAAAAAAAAAsGPMS/D4iiSfH3qIDfpskquHHgIAAAAAAAAAAAAAAAAAAKZhXoLH/9ndPfQQG9HdV2bxwtIAAAAAAAAAAAAAAAAAALCq3UMPkOSsJO8beohNeluS04YeAgAAAAAAAAAAAAAAAAAAtmrw4HF333HoGTarux839AwAAAAAAAAAAAAAAAAAADANu4YeAAAAAAAAAAAAAAAAAAAAGJ7gMQAAAAAAAAAAAAAAAAAAIHgMAAAAAAAAAAAAAAAAAAAIHgMAAAAAAAAAAAAAAAAAABE8BgAAAAAAAAAAAAAAAAAAIngMAAAAAAAAAAAAAAAAAABE8BgAAAAAAAAAAAAAAAAAAIjgMQAAAAAAAAAAAAAAAAAAEMFjAAAAAAAAAAAAAAAAAAAggscAAAAAAAAAAAAAAAAAAEAEjwEAAAAAAAAAAAAAAAAAgAgeAwAAAAAAAAAAAAAAAAAASXYPPQAAAAAAAAAAAAAHdsoXXjP0CADADnH10AMAAAAwt+x4DAAAAAAAAAAAAAAAAAAACB4DAAAAAAAAAAAAAAAAAACCxwAAAAAAAAAAAAAAAAAAQASPAQAAAAAAAAAAAAAAAACACB4DAAAAAAAAAAAAAAAAAAARPAYAAAAAAAAAAAAAAAAAACJ4DAAAAAAAAAAAAAAAAAAARPAYAAAAAAAAAAAAAAAAAACI4DEAAAAAAAAAAAAAAAAAABDBYwAAAAAAAAAAAAAAAAAAIILHAAAAAAAAAAAAAAAAAABABI8BAAAAAAAAAAAAAAAAAIAIHgMAAAAAAAAAAAAAAAAAABE8BgAAAAAAAAAAAAAAAAAAIngMAAAAAAAAAAAAAAAAAABE8BgAAAAAAAAAAAAAAAAAAIjgMQAAAAAAAAAAAAAAAAAAEMFjAAAAAAAAAAAAAAAAAAAggscAAAAAAAAAAAAAAAAAAEAEjwEAAAAAAAAAAAAAAAAAgAgeAwAAAAAAAAAAAAAAAAAAETwGAAAAAAAAAAAAAAAAAAAieAwAAAAAAAAAAAAAAAAAAETwGAAAAAAAAAAAAAAAAAAAiOAxAAAAAAAAAAAAAAAAAAAQwWMAAAAAAAAAAAAAAAAAACCCxwAAAAAAAAAAAAAAAAAAQASPAQAAAAAAAAAAAAAAAACACB4DAAAAAAAAAAAAAAAAAAARPAYAAAAAAAAAAAAAAAAAACJ4DAAAAAAAAAAAAAAAAAAARPAYAAAAAAAAAAAAAAAAAACI4DEAAAAAAAAAAAAAAAAAABDBYwAAAAAAAAAAAAAAAAAAIILHAAAAAAAAAAAAAAAAAABABI8BAAAAAAAAAAAAAAAAAIAIHgMAAAAAAAAAAAAAAAAAABE8BgAAAAAAAAAAAAAAAAAAIngMAAAAAAAAAAAAAAAAAABE8BgAAAAAAAAAAAAAAAAAAIjgMQAAAAAAAAAAAAAAAAAAEMFjAAAAAAAAAAAAAAAAAAAggscAAAAAAAAAAAAAAAAAAEAEjwEAAAAAAAAAAAAAAAAAgAgeAwAAAAAAAAAAAAAAAAAAETwGAAAAAAAAAAAAAAAAAAAieAwAAAAAAAAAAAAAAAAAAETwGAAAAAAAAAAAAAAAAAAAiOAxAAAAAAAAAAAAAAAAAAAQwWMAAAAAAAAAAAAAAAAAACCCxwAAAAAAAAAAAAAAAAAAQASPAQAAAAAAAAAAAAAAAACACB4DAAAAAAAAAAAAAAAAAAARPAYAAAAAAAAAAAAAAAAAACJ4DAAAAAAAAAAAAAAAAAAARPAYAAAAAAAAAAAAAAAAAACI4DEAAAAAAAAAAAAAAAAAABDBYwAAAAAAAAAAAAAAAAAAIILHAAAAAAAAAAAAAAAAAABABI8BAAAAAAAAAAAAAAAAAIAIHgMAAAAAAAAAAAAAAAAAABE8BgAAAAAAAAAAAAAAAAAAIngMAAAAAAAAAAAAAAAAAABE8BgAAAAAAAAAAAAAAAAAAIjgMQAAAAAAAAAAAAAAAAAAEMFjAAAAAAAAAAAAAAAAAAAggscAAAAAAAAAAAAAAAAAAEAEjwEAAAAAAAAAAAAAAAAAgAgeAwAAAAAAAAAAAAAAAAAAETwGAAAAAAAAAAAAAAAAAAAieAwAAAAAAAAAAAAAAAAAAETwGAAAAAAAAAAAAAAAAAAAiOAxAAAAAAAAAAAAAAAAAAAQwWMAAAAAAAAAAAAAAAAAACCCxwAAAAAAAAAAAAAAAAAAQASPAQAAAAAAAAAAAAAAAACACB4DAAAAAAAAAAAAAAAAAAARPAYAAAAAAAAAAAAAAAAAACJ4DAAAAAAAAAAAAAAAAAAARPAYAAAAAAAAAAAAAAAAAACI4DEAAAAAAAAAAAAAAAAAABDBYwAAAAAAAAAAAAAAAAAAIILHAAAAAAAAAAAAAAAAAABABI8BAAAAAAAAAAAAAAAAAIAIHgMAAAAAAAAAAAAAAAAAABE8BgAAAAAAAAAAAAAAAAAAIngMAAAAAAAAAAAAAAAAAABE8BgAAAAAAAAAAAAAAAAAAIjgMQAAAAAAAAAAAAAAAAAAEMFjAAAAAAAAAAAAAAAAAAAggscAAAAAAAAAAAAAAAAAAEAEjwEAAAAAAAAAAAAAAAAAgAgeAwAAAAAAAAAAAAAAAAAAETwGAAAAAAAAAAAAAAAAAAAieAwAAAAAAAAAAAAAAAAAAETwGAAAAAAAAAAAAAAAAAAAiOAxAAAAAAAAAAAAAAAAAAAQwWMAAAAAAAAAAAAAAAAAACCCxwAAAAAAAAAAAAAAAAAAQASPAQAAAAAAAAAAAAAAAACACB4DAAAAAAAAAAAAAAAAAAARPAYAAAAAAAAAAAAAAAAAACJ4DAAAAAAAAAAAAAAAAAAARPAYAAAAAAAAAAAAAAAAAACI4DEAAAAAAAAAAAAAAAAAABDBYwAAAAAAAAAAAAAAAAAAIILHAAAAAAAAAAAAAAAAAABABI8BAAAAAAAAAAAAAAAAAIAIHgMAAAAAAAAAAAAAAAAAABE8BgAAAAAAAAAAAAAAAAAAIngMAAAAAAAAAAAAAAAAAABE8BgAAAAAAAAAAAAAAAAAAIjgMQAAAAAAAAAAAAAAAAAAkGT30AMwvKraleRWSW6d5HpJrpXkyiQXJPlkkrO6+2vDTbh+VXVokpOTnJTkhkmOSnJ4ksOSXJrkwtHxtSx919cHGhUAAAAAAAAAAAAAAAAAYK4IHl+DVdW3JnlSkvsnOX6NR7uqPpDkZUle1N0Xz2K+A6mqY5PcKckdx863zAb+X1fVF5KcmeSvkvx1d1829UEBAAAAAAAAAAAAAAAAABaA4PE1UFWdnOQFWQocr+uVJHcdHc+qqqd394u3a74NeEWS791ijRuOjgckubCqXpzkWd194VaHAwAAAAAAAAAAAAAAAABYJILH1zBV9X1JXpnk6BW3zkvyhiQfSnJ+kmOS3D7JD2Tf3ZCPS/Kiqrpvksd2955tHnmzvpGlnYw/lOScJOcmOTLJsUluk+Q7k3zLineOTvLkJA+tqp/o7jfMbFoAAAAAAAAAAAAAAAAAgIEJHl+DVNWDkpyR5KAVt347ybO7+5JV3jksyTOSPGvFew9PckJV3a+7v7lNI2/UZUlemuTlSd7T3Vev9XBV3T/Jc5KctuLWDZK8rqoe290v2ZZJAQAAAAAAAAAAAAAAAADmzK6hB2A2ququSV6R/UPHT+nup60WOk6S7t7T3c9J8rAkK4O8pyf5s6kPuznnJTmpu5/Y3e86UOg4Sbr7jUm+I8mrVrldWdrZ+cFTnhMAAAAAAAAAAAAAAAAAYC4JHl8DVNWRSf4yyaErbr2yu5+/nhrd/Zokz17l1o9W1Y9ubcKpeH93f32jL3X35UkeleTDq9zeleSPquqYrQ4HAAAAAAAAAAAAAAAAADDvBI+vGX4+yakr1i5L8rQN1nlukv9YZf15cxDO/efNvtjd30zykxNun5jkWZutDQAAAAAAAAAAAAAAAACwKASPd7iqum6Sn1vl1iu7+4sbqdXdVyT59VVuHZ/kFzYx3jRtOnicJN393iRnTbj92KravZX6AAAAAAAAAAAAAAAAAADzTvB45/uJJEessv6STdZ7RZILV1l/YlUducma0/D+KdT4+wnrxya5+xTqAwAAAAAAAAAAAAAAAADMLcHjHayqDkryhFVunZfkPZup2d2XJ/mbVW5dO8kjN1NzCj7V3V+fQp1/WePevadQHwAAAAAAAAAAAAAAAABgbgke72z3THK9Vdbf291XbaHuWyasP3wLNTfj55J8V5IHTKneF9a4d/0p9QAAAAAAAAAAAAAAAAAAmEu7hx6AbfXgCevv32Ldd09Yv0dVHT+l3YcPqLv/fcolL1jj3nWn3AsAAAAAAAAAAAAAAAAAYK7Y8XhnO33C+ke2WPczWT2kuyvJvbdYe0hXrnHvsJlNAQAAAAAAAAAAAAAAAAAwAMHjHaqqTkxyywm3z95K7e7uJB+bcPteW6k9sGutce+8mU0BAAAAAAAAAAAAAAAAADAAweOd685r3PvPKdT/9IT106ZQeyhHrXFP8BgAAAAAAAAAAAAAAAAA2NEEj3euO0xYv7S7L5xC/c9PWL9dVdUU6g/hhDXufWJmUwAAAAAAAAAAAAAAAAAADEDweOe6xYT1r0+p/lcnrB+Z5IZT6jFrt1zj3j/ObAoAAAAAAAAAAAAAAAAAgAEIHu9cJ09YP29K9c/ZRO95d6sJ65ck+ddZDgIAAAAAAAAAAAAAAAAAMGuCxzvXSRPWL5pS/fM30Xve3W3C+mu6+4qZTgIAAAAAAAAAAAAAAAAAMGOCxzvX8RPWL55S/Qs20XtuVdXNk9xswu0XznIWAAAAAAAAAAAAAAAAAIAhCB7vQFW1K8nRE27vmVKby9a4d+yUeszS/zdh/czuftdMJwEAAAAAAAAAAAAAAAAAGMDuoQdgWxydpCbcm0Xw+Jgp9ZiJqqokT5hw+xnb2PfEJCdsV/0d4pShBwAAAAAAAAAAAAAAAACAawrB453p0DXuXTWlHldusv88+v4kp66y/rfd/bZt7PukJM/exvoAAAAAAAAAAADA/2Pv3qN8r+t6j7/emw3IbSMIQkl4wdJMTErzlgni0pQj5Dkp2pFQl4BlaZbLIutomaWWplbkPeWcBAPNSx1dlsVFM2/oMRVviIpXlKuICBve54891jD8vr89l9/Mb+Y3j8das2Q+n5nP5/2F7Vq/5fLJFwAAAIBF2zLtAVgVu47Zm1R4PO6c3SZ0x6qrqi0ZHf9eluTkNR4HAAAAAAAAAAAAAAAAAGBqhMezadw/157QHTeN2dtlQneshVOS/PSI9ad099fXehgAAAAAAAAAAAAAAAAAgGnZOu0BWBXbx+xNKjYfFxffMKE7VlVVHZLk+SO2XtDdZ6/BCKclOWsN7tnIDkvytmkPAQAAAAAAAAAAAAAAAACbgfB4No0Lfyf1NuJx51w/oTtWTVXtluTsJPst2Dorye+uxQzdfWmSS9firo2qqqY9AgAAAAAAAAAAAAAAAABsGpN6+y3ry3Vj9nad0B27L/P+9eLlSe6zYO2fk/xyd/cU5gEAAAAAAAAAAAAAAAAAmCrh8Wy6JsmNA3u3mtAde4zZu3JCd6yKqvr9JKcsWP6XJMd290aIpgEAAAAAAAAAAAAAAAAAJk54PIPm3th75cD2uGB4KfYcszd099RV1SlJ/nDB8j8neWR3f28KIwEAAAAAAAAAAAAAAAAArAvC49n1zYH1fSZ0/n7LuHuqqurJSf56wfKbkxzT3ddOYSQAAAAAAAAAAAAAAAAAgHVDeDy7LhlY3zah8289Zu/LE7pjYubedPyqJDVv+TVJHtPd109nKgAAAAAAAAAAAAAAAACA9UN4PLu+NLC+/4TOP2jM3roKj6vqN7PjTcfzo+M/6O6TuvumKY0FAAAAAAAAAAAAAAAAALCubJ32AKyaCwfWb1NV1d29wvOHwuMruvsbKzx7Yqrq+Ul+d97S9iQnd/ffTGkkAAAAAAAAAAAAAAAAAIB1SXg8uz4+sL41O6LhlcbBdxxY/8QKz52IqtolyWlJTp63fHWSR3f3u6czFQAAAAAAAAAAAAAAAADA+iU8nl0XJLkpyZYRe4dm5eHxnQbWP7LCc1esqvZIcmaSY+ctfynJMd39yelMBQAAAAAAAAAAAAAAAACwvo2KUpkB3X1lht96fNeVnF1VuyW5y8D2uSs5e6Wq6oAk/5KbR8cfTHIf0TEAAAAAAAAAAAAAAAAAwDDh8Wx7z8D64Ss89+5Jdh2xvj3JeSs8e9mq6o5J3pfkvvOW35zkyO7+5nSmAgAAAAAAAAAAAAAAAADYGITHs+0tA+v3W+G5DxpYP6e7L1/h2ctSVT+d5P1Jfmze8p8meXR3f28aMwEAAAAAAAAAAAAAAAAAbCTC49n2/iRfGrF+r6raawXnPmxg/U0rOHPZqurnk5yT5KC5pe1JTu7uZ3V3T2MmAAAAAAAAAAAAAAAAAICNRng8w+ai21eM2No9w/HwWFW1f5IHj9i6Iskbl3jWA6vqmVX1G1X1k8uc54Qk70iy99zSd5Mc292vXs55AAAAAAAAAAAAAAAAAACblfB49r06ydUj1p+wzPOenGTXEeundfe1izmgqg6oqn9Ncl6SP03y50k+VlVnVtWeix2kqn4zyRuSbJ1bujTJUd39zsWeAQAAAAAAAAAAAAAAAADADsLjGdfdlyV50YitY6rqbks5q6r2SfKMEVvfHrhjyJuSHDli/fgkf7nIWV6Y5MVJam7poiT37+4PLWEOAAAAAAAAAAAAAAAAAADmCI83hxcnuXDB2pYkL6+qGvHzQ/4kycEj1p/e3aPeqnwLVfWAJA8e8yMnVtUhOznjMUmetWD5sCSfr6pexa9zFvOMAAAAAAAAAAAAAAAAAAAbkfB4E+ju65I8Psl1C7aOTvK8xZxRVScleeqIrTd09xuXMM59d7K/Jcl9dvIzey7hPgAAAAAAAAAAAAAAAAAAFkF4vEl09wVJHpfkxgVbz66qV1TVtlG/V1V7VdWLkrxyxPa7k5w02UmTJL0KZwIAAAAAAAAAAAAAAAAAMMbWaQ/A2unut1bVcUnOTLL3vK1Tkjyuqt6W5IIkVybZluSIJMcl2W/EcacnOam7b1jiGO/byf5NST6wxDMBAAAAAAAAAAAAAAAAAFgh4fEm093/WFX3zI43GB89b2tbkhPmvsb5RpJndPeZy7z/36vq7CS/OPAjr+3ury7nbAAAAAAAAAAAAAAAAAAAlm/LtAdg7XX3Rd39kCRHJTk7yTU7+ZUbk5yf5OQkd1xudDzPKUnOGbH+piRPX+HZAAAAAAAAAAAAAAAAAAAsgzceb2LdfU6Sc6pq9ySHJ7lbkgOS7Jnke0muTPLZJB/v7qsmeO/lSY6qqiOT3DvJ9iTndvcFi/z91yd5/aTmAQAAAAAAAAAAAAAAAABAeEyS7v5+kg/Pfa3lvedk9JuPAQAAAAAAAAAAAAAAAABYY1umPQAAAAAAAAAAAAAAAAAAADB9wmMAAAAAAAAAAAAAAAAAAEB4DAAAAAAAAAAAAAAAAAAACI8BAAAAAAAAAAAAAAAAAIAIjwEAAAAAAAAAAAAAAAAAgAiPAQAAAAAAAAAAAAAAAACACI8BAAAAAAAAAAAAAAAAAIAIjwEAAAAAAAAAAAAAAAAAgAiPAQAAAAAAAAAAAAAAAACACI8BAAAAAAAAAAAAAAAAAIAIjwEAAAAAAAAAAAAAAAAAgAiPAQAAAAAAAAAAAAAAAACACI8BAAAAAAAAAAAAAAAAAIAIjwEAAAAAAAAAAAAAAAAAgAiPAQAAAAAAAAAAAAAAAACACI8BAAAAAAAAAAAAAAAAAIAIjwEAAAAAAAAAAAAAAAAAgAiPAQAAAAAAAAAAAAAAAACACI8BAAAAAAAAAAAAAAAAAIAIjwEAAAAAAAAAAAAAAAAAgAiPAQAAAAAAAAAAAAAAAACACI8BAAAAAAAAAAAAAAAAAIAIjwEAAAAAAAAAAAAAAAAAgAiPAQAAAAAAAAAAAAAAAACACI8BAAAAAAAAAAAAAAAAAIAIjwEAAAAAAAAAAAAAAAAAgAiPAQAAAAAAAAAAAAAAAACACI8BAAAAAAAAAAAAAAAAAIAIjwEAAAAAAAAAAAAAAAAAgAiPAQAAAAAAAAAAAAAAAACACI8BAAAAAAAAAAAAAAAAAIAIjwEAAAAAAAAAAAAAAAAAgAiPAQAAAAAAAAAAAAAAAACACI8BAAAAAAAAAAAAAAAAAIAIjwEAAAAAAAAAAAAAAAAAgAiPAQAAAAAAAAAAAAAAAACACI8BAAAAAAAAAAAAAAAAAIAIjwEAAAAAAAAAAAAAAAAAgAiPAQAAAAAAAAAAAAAAAACACI8BAAAAAAAAAAAAAAAAAIAIjwEAAAAAAAAAAAAAAAAAgAiPAQAAAAAAAAAAAAAAAACACI8BAAAAAAAAAAAAAAAAAIAIjwEAAAAAAAAAAAAAAAAAgAiPAQAAAAAAAAAAAAAAAACACI8BAAAAAAAAAAAAAAAAAIAIjwEAAAAAAAAAAAAAAAAAgAiPAQAAAAAAAAAAAAAAAACACI8BAAAAAAAAAAAAAAAAAIAIjwEAAAAAAAAAAAAAAAAAgAiPAQAAAAAAAAAAAAAAAACACI8BAAAAAAAAAAAAAAAAAIAIjwEAAAAAAAAAAAAAAAAAgAiPAQAAAAAAAAAAAAAAAACACI8BAAAAAAAAAAAAAAAAAIAIjwEAAAAAAAAAAAAAAAAAgAiPAQAAAAAAAAAAAAAAAACACI8BAAAAAAAAAAAAAAAAAIAIjwEAAAAAAAAAAAAAAAAAgAiPAQAAAAAAAAAAAAAAAACACI8BAAAAAAAAAAAAAAAAAIAIjwEAAAAAAAAAAAAAAAAAgAiPAQAAAAAAAAAAAAAAAACACI8BAAAAAAAAAAAAAAAAAIAIjwEAAAAAAAAAAAAAAAAAgAiPAQAAAAAAAAAAAAAAAACACI8BAAAAAAAAAAAAAAAAAIAIjwEAAAAAAAAAAAAAAAAAgAiPAQAAAAAAAAAAAAAAAACACI8BAAAAAAAAAAAAAAAAAIAIjwEAAAAAAAAAAAAAAAAAgAiPAQAAAAAAAAAAAAAAAACACI8BAAAAAAAAAAAAAAAAAIAIjwEAAAAAAAAAAAAAAAAAgAiPAQAAAAAAAAAAAAAAAACACI8BAAAAAAAAAAAAAAAAAIAIjwEAAAAAAAAAAAAAAAAAgAiPAQAAAAAAAAAAAAAAAACACI8BAAAAAAAAAAAAAAAAAIAIjwEAAAAAAAAAAAAAAAAAgAiPAQAAAAAAAAAAAAAAAACACI8BAAAAAAAAAAAAAAAAAIAIjwEAAAAAAAAAAAAAAAAAgAiPAQAAAAAAAAAAAAAAAACACI8BAAAAAAAAAAAAAAAAAIAIjwEAAAAAAAAAAAAAAAAAgAiPAQAAAAAAAAAAAAAAAACACI8BAAAAAAAAAAAAAAAAAIAIjwEAAAAAAAAAAAAAAAAAgAiPAQAAAAAAAAAAAAAAAACACI8BAAAAAAAAAAAAAAAAAIAIjwEAAAAAAAAAAAAAAAAAgAiPAQAAAAAAAAAAAAAAAACACI8BAAAAAAAAAAAAAAAAAIAIjwEAAAAAAAAAAAAAAAAAgAiPAQAAAAAAAAAAAAAAAACACI8BAAAAAAAAAAAAAAAAAIAIjwEAAAAAAAAAAAAAAAAAgAiPAQAAAAAAAAAAAAAAAACACI8BAAAAAAAAAAAAAAAAAIAIjwEAAAAAAAAAAAAAAAAAgAiPAQAAAAAAAAAAAAAAAACACI8BAAAAAAAAAAAAAAAAAIAIjwEAAAAAAAAAAAAAAAAAgAiPAQAAAAAAAAAAAAAAAACACI8BAAAAAAAAAAAAAAAAAIAIjwEAAAAAAAAAAAAAAAAAgAiPAQAAAAAAAAAAAAAAAACACI8BAAAAAAAAAAAAAAAAAIAIjwEAAAAAAAAAAAAAAAAAgAiPAQAAAAAAAAAAAAAAAACACI8BAAAAAAAAAAAAAAAAAIAIjwEAAAAAAAAAAAAAAAAAgAiPAQAAAAAAAAAAAAAAAACACI8BAAAAAAAAAAAAAAAAAIAIjwEAAAAAAAAAAAAAAAAAgAiPAQAAAAAAAAAAAAAAAACACI8BAAAAAAAAAAAAAAAAAIAIjwEAAAAAAAAAAAAAAAAAgAiPAQAAAAAAAAAAAAAAAACACI8BAAAAAAAAAAAAAAAAAIAIjwEAAAAAAAAAAAAAAAAAgAiPAQAAAAAAAAAAAAAAAACACI8BAAAAAAAAAAAAAAAAAIAIjwEAAAAAAAAAAAAAAAAAgAiPAQAAAAAAAAAAAAAAAACACI8BAAAAAAAAAAAAAAAAAIAIjwEAAAAAAAAAAAAAAAAAgAiPAQAAAAAAAAAAAAAAAACACI8BAAAAAAAAAAAAAAAAAIAIjwEAAAAAAAAAAAAAAAAAgAiPAQAAAAAAAAAAAAAAAACACI8BAAAAAAAAAAAAAAAAAIAIjwEAAAAAAAAAAAAAAAAAgAiPAQAAAAAAAAAAAAAAAACACI8BAAAAAAAAAAAAAAAAAIAIjwEAAAAAAAAAAAAAAAAAgAiPAQAAAAAAAAAAAAAAAACACI8BAAAAAAAAAAAAAAAAAIAIjwEAAAAAAAAAAAAAAAAAgAiPAQAAAAAAAAAAAAAAAACACI8BAAAAAAAAAAAAAAAAAIAIjwEAAAAAAAAAAAAAAAAAgAiPAQAAAAAAAAAAAAAAAACACI8BAAAAAAAAAAAAAAAAAIAIjwEAAAAAAAAAAAAAAAAAgAiPAQAAAAAAAAAAAAAAAACACI8BAAAAAAAAAAAAAAAAAIAIjwEAAAAAAAAAAAAAAAAAgAiPAQAAAAAAAAAAAAAAAACACI8BAAAAAAAAAAAAAAAAAIAIjwEAAAAAAAAAAAAAAAAAgAiPAQAAAAAAAAAAAAAAAACACI8BAAAAAAAAAAAAAAAAAIAIjwEAAAAAAAAAAAAAAAAAgAiPAQAAAAAAAAAAAAAAAACACI8BAAAAAAAAAAAAAAAAAIAIjwEAAAAAAAAAAAAAAAAAgAiPAQAAAAAAAAAAAAAAAACACI8BAAAAAAAAAAAAAAAAAIAIjwEAAAAAAAAAAAAAAAAAgAiPAQAAAAAAAAAAAAAAAACACI8BAAAAAAAAAAAAAAAAAIAIjwEAAAAAAAAAAAAAAAAAgAiPAQAAAAAAAAAAAAAAAACACI8BAAAAAAAAAAAAAAAAAIAIjwEAAAAAAAAAAAAAAAAAgAiPAQAAAAAAAAAAAAAAAACACI8BAAAAAAAAAAAAAAAAAIAIjwEAAAAAAAAAAAAAAAAAgAiPAQAAAAAAAAAAAAAAAACACI8BAAAAAAAAAAAAAAAAAIAIjwEAAAAAAAAAAAAAAAAAgAiPAQAAAAAAAAAAAAAAAACACI8BAAAAAAAAAAAAAAAAAIAIjwEAAAAAAAAAAAAAAAAAgAiPAQAAAAAAAAAAAAAAAACACI8BAAAAAAAAAAAAAAAAAIAIjwEAAAAAAAAAAAAAAAAAgAiPAQAAAAAAAAAAAAAAAACACI8BAAAAAAAAAAAAAAAAAIAIjwEAAAAAAAAAAAAAAAAAgAiPAQAAAAAAAAAAAAAAAACACI8BAAAAAAAAAAAAAAAAAIAIjwEAAAAAAAAAAAAAAAAAgAiPAQAAAAAAAAAAAAAAAACACI8BAAAAAAAAAAAAAAAAAIAIjwEAAAAAAAAAAAAAAAAAgAiPAQAAAAAAAAAAAAAAAACACI8BAAAAAAAAAAAAAAAAAIAIjwEAAAAAAAAAAAAAAAAAgAiPAQAAAAAAAAAAAAAAAACACI8BAAAAAAAAAAAAAAAAAIAIjwEAAAAAAAAAAAAAAAAAgAiPAQAAAAAAAAAAAAAAAACACI8BAAAAAAAAAAAAAAAAAIAIjwEAAAAAAAAAAAAAAAAAgAiPAQAAAAAAAAAAAAAAAACACI8BAAAAAAAAAAAAAAAAAIAIjwEAAAAAAAAAAAAAAAAAgAiPAQAAAAAAAAAAAAAAAACACI8BAAAAAAAAAAAAAAAAAIAIjwEAAAAAAAAAAAAAAAAAgAiPAQAAAAAAAAAAAAAAAACACI8BAAAAAAAAAAAAAAAAAIAIjwEAAAAAAAAAAAAAAAAAgAiPAQAAAAAAAAAAAAAAAACACI8BAAAAAAAAAAAAAAAAAIAIjwEAAAAAAAAAAAAAAAAAgAiPAQAAAAAAAAAAAAAAAACACI8BAAAAAAAAAAAAAAAAAIAIjwEAAAAAAAAAAAAAAAAAgAiPAQAAAAAAAAAAAAAAAACACI8BAAAAAAAAAAAAAAAAAIAIjwEAAAAAAAAAAAAAAAAAgAiPAQAAAAAAAAAAAAAAAACACI8BAAAAAAAAAAAAAAAAAIAIjwEAAAAAAAAAAAAAAAAAgAiPAQAAAAAAAAAAAAAAAACACI8BAAAAAAAAAAAAAAAAAIAIjwEAAAAAAAAAAAAAAAAAgAiPAQAAAAAAAAAAAAAAAACACI8BAAAAAAAAAAAAAAAAAIAIjwEAAAAAAAAAAAAAAAAAgAiPAQAAAAAAAAAAAAAAAACACI8BAAAAAAAAAAAAAAAAAIAIjwEAAAAAAAAAAAAAAAAAgAiPAQAAAAAAAAAAAAAAAACACI8BAAAAAAAAAAAAAAAAAIAIjwEAAAAAAAAAAAAAAAAAgAiPAQAAAAAAAAAAAAAAAACACI8BAAAAAAAAAAAAAAAAAIAIjwEAAAAAAAAAAAAAAAAAgAiPAQAAAAAAAAAAAAAAAACACI8BAAAAAAAAAAAAAAAAAIAIjwEAAAAAAAAAAAAAAAAAgAiPAQAAAAAAAAAAAAAAAACACI8BAAAAAAAAAAAAAAAAAIAIjwEAAAAAAAAAAAAAAAAAgAiPAQAAAAAAAAAAAAAAAACACI8BAAAAAAAAAAAAAAAAAIAIjwEAAAAAAAAAAAAAAAAAgAiPAQAAAAAAAAAAAAAAAACACI8BAAAAAAAAAAAAAAAAAIAIjwEAAAAAAAAAAAAAAAAAgAiPAQAAAAAAAAAAAAAAAACACI8BAAAAAAAAAAAAAAAAAIAIjwEAAAAAAAAAAAAAAAAAgAiPAQAAAAAAAAAAAAAAAACACI8BAAAAAAAAAAAAAAAAAIAIjwEAAAAAAAAAAAAAAAAAgAiPAQAAAAAAAAAAAAAAAACACI8BAAAAAAAAAAAAAAAAAIAIjwEAAAAAAAAAAAAAAAAAgAiPAQAAAAAAAAAAAAAAAACACI8BAAAAAAAAAAAAAAAAAIAIjwEAAAAAAAAAAAAAAAAAgAiPAQAAAAAAAAAAAAAAAACACI8BAAAAAAAAAAAAAAAAAIAIjwEAAAAAAAAAAAAAAAAAgAiPAQAAAAAAAAAAAAAAAACACI8BAAAAAAAAAAAAAAAAAIAIjwEAAAAAAAAAAAAAAAAAgAiPAQAAAAAAAAAAAAAAAACACI8BAAAAAAAAAAAAAAAAAIAIjwEAAAAAAAAAAAAAAAAAgAiPAQAAAAAAAAAAAAAAAACACI8BAAAAAAAAAAAAAAAAAIAIjwEAAAAAAAAAAAAAAAAAgAiPAQAAAAAAAAAAAAAAAACACI8BAAAAAAAAAAAAAAAAAIAkW6c9ANNXVVuS/HiSuyU5OMk+SbYnuSrJ55N8vLu/Nb0JV6aqDk5yeJI7Jdk3O/7cfyfJ15J8MslnurunNyEAAAAAAAAAAAAAAAAAwPQJjzexqvqZJL+a5JgkB4z50a6qDyf5P0le193XrMV8K1FVByQ5Jcnx2REdj/P1qvr7JH/R3Z9e9eEAAAAAAAAAAAAAAAAAANahLdMegLVXVbevqn9I8oEkJ2Z8dJwkleTeSV6W5ItV9cRVHnHZqmrXqjo1yZeT/FF2Hh0nyQ9lR4D9qap6XVXtv5ozAgAAAAAAAAAAAAAAAACsR954vMlU1cOTnJlk24KtK5K8PcnHklyZZN8k90hybG4eJt8myeuq6qFJntjd163yyItWVQcm+fskD1iw1Unek+S8JF/Ljj/3d0jy0CQ/Nf+IJE9McnRVPbK7P77aMwMAAAAAAAAAAAAAAAAArBfC402kqh6V5KwkuyzYenGS53T3d0f8zq2SPCvJ/1rwe49NcmBVPaK7r1+lkRdtLjp+b5IfW7D14SQndvenRvzaqVV1dJLXZEeI/AOHJjm/qo7s7o+uxrwAAAAAAAAAAAAAAAAAAOvNlmkPwNqoqnsnOSO3jI6f0d3PHBUdJ0l3X9fdf5jk+CQ3Ldj+QbQ7VVW1a5J35JbR8fuSHDkQHSdJuvs9Se6X5NMLtrYleWdV/dAkZwUAAAAAAAAAAAAAAAAAWK+Ex5tAVe2V5G+T7L5g68zufulizujuNyd5zoitE6rqhJVNuGLPTXKfBWuXJ3n0UFA9X3d/I8kvJLl2wdZBSU6vqprAjAAAAAAAAAAAAAAAAAAA65rweHP47SQ/umDte0meucRzXpjkMyPWX1JV+y5nsJWqqh9L8qwRW8/v7q8v9pzu/kySF4zYekiSX1rmeAAAAAAAAAAAAAAAAAAAG4bweMZV1UFJfmvE1pnd/dWlnNXdN2R0nHtAkt9ZxniT8MdJti5YuzrJq5Zx1svmfvcWd1TVrss4DwAAAAAAAAAAAAAAAABgwxAez75fSbLniPU3LPO8MzI6zn1KVe21zDOXparulORRI7be0t3XLPW87r46yZkjtg5N8pilngcAAAAAAAAAAAAAAAAAsJEIj2dYVe2S5JQRW1ckee9yzuzu7yd5x4itWyd5/HLOXIGnZPSf4VHzLdZZA+u/toIzAQAAAAAAAAAAAAAAAADWPeHxbHtQkoNHrL+vu29cwbn/NLD+2BWcuRzHD6yft4Izz09y3Yj1+1bVHVZwLgAAAAAAAAAAAAAAAADAuiY8nm3/fWD9gys89/yB9Z+rqgNWePaiVNW9khw6YusL3f3t5Z4790bnDw1sD/39BAAAAAAAAAAAAAAAAADY8ITHs+3ogfVPrPDci5NcNWJ9S5KjVnj2Yq3WsyXJR5d4JwAAAAAAAAAAAAAAAADAhic8nlFVddskdx3Y/txKzu7uTnLhwPaRKzl7CR40sL6iZ5vzqYH1B1aV/84AAAAAAAAAAAAAAAAAADNJRDm7fnrM3pcncP4XBtZ/agJnL8bQ863ms+2T5EcncD4AAAAAAAAAAAAAAAAAwLojPJ5dPzmwfm13Xz2B8y8ZWD+8qmoC5w+qqoOT3HZg++sTuGLo2ZLhv68AAAAAAAAAAAAAAAAAABua8Hh23WVg/dsTOv+bA+t7JTlkQncMGXq2ZDLPN/RsO7sbAAAAAAAAAAAAAAAAAGDDEh7PrtsPrF8xofMvXcbdkzLu/BU/X3dfkWT7Mu4GAAAAAAAAAAAAAAAAANiwhMez69CB9e9M6Pwrl3H3pIw7f7Wfb7WfDQAAAAAAAAAAAAAAAABgKoTHs+uAgfVrJnT+Vcu4e1LGnb/az7fazwYAAAAAAAAAAAAAAAAAMBXC4xlUVVuSbBvYvm5C13xvzN5+E7pjOeev9vOt9rMBAAAAAAAAAAAAAAAAAEyF8Hg2bUtSA3trER7vO6E7lnP+aj/faj8bAAAAAAAAAAAAAAAAAMBUbJ32AKyK3cfs3TihO7Yv8/5JmObzTezZquq2SQ6c1Hkz6q4Lvj+saqipZ+ac+JfTngAAmBFV9RPTnoF1yOdNAGBCfN7kFnzWBAAmxGdNRvJ5EwCYEJ83N6XDFny/21SmAAAA1r3q7mnPwIRV1SFJLhnYPr27T5zAHYcl+fzA9mu6+6SV3jHm7n9OcvTA9paewB/qqjo/yc+O2Nre3buu9Py5O56b5DmTOAsAAAAAAAAAAAAAYAmO6+63T3sIAABg/dky7QFYFeP+uU6qNL9pzN4uE7pjyODzTSI6njP0fKv9bAAAAAAAAAAAAAAAAAAAUyE8nk3bx+xN6p/5uAD3hgndMWTw+apqtZ9vtZ8NAAAAAAAAAAAAAAAAAGAqtk57AFbFuDh2Um/sHXfO9RO6Y8jOnm/c25gXa+j5JvlspyU5a4LnzaK9k9wrydVJrkpySVb/zxcAG8NhSd427/vjklw0pVkAAJg9Pm8CALBafNYEAGA1+bwJwDi7JfmRed+fO61BAACA9U14PJuuG7O364Tu2H2Z90/Czp5vEm8lHnq+iT1bd1+a5NJJnTfDPjDtAQBYf6pq4dJF3f3JacwCAMDs8XkTAIDV4rMmAACryedNABbho9MeAAAAWP+2THsAVsU1SW4c2LvVhO7YY8zelRO6Yznnr/bzjbsbAAAAAAAAAAAAAAAAAGDDEh7PoO7uDAey44LhpdhzzN7Q3ZNyxZi91X6+Kyd0PgAAAAAAAAAAAAAAAADAuiI8nl3fHFjfZ0Ln77eMuydl3Pmr/Xyr/WwAAAAAAAAAAAAAAAAAAFMhPJ5dlwysb5vQ+bces/flCd0xZOjZkgk8X1XtkmTvge3VfjYAAAAAAAAAAAAAAAAAgKkQHs+uLw2s7z+h8w8as7face7QsyWTeb7bJqmBPeExAAAAAAAAAAAAAAAAADCThMez68KB9dtU1VBUuxRD4fEV3f2NCZw/ztCzJckBEzh/XFQ97m4AAAAAAAAAAAAAAAAAgA1LeDy7Pj6wvjXjw9rFuuPA+icmcPZY3X1lkksGtg+ZwBVDz5Yk/zGB8wEAAAAAAAAAAAAAAAAA1h3h8ey6IMlNA3uHTuD8Ow2sf2QCZy/GhwbWV/PZLk9y8QTOBwAAAAAAAAAAAAAAAABYd4THM2rurcBDbz2+60rOrqrdktxlYPvclZy9BOcNrK/o2ebcY2D9/O7uCZwPAAAAAAAAAAAAAAAAALDuCI9n23sG1g9f4bl3T7LriPXtGQ6CJ221ni1JjljinQAAAAAAAAAAAAAAAAAAG57weLa9ZWD9fis890ED6+d09+UrPHtRuvsTST43YuuAqrrzcs+tqv2zI6y+xZVJ/n655wIAAAAAAAAAAAAAAAAArHfC49n2/iRfGrF+r6raawXnPmxg/U0rOHM5zhxYP3IFZz40SY1Y/7fu/soKzgUAAAAAAAAAAAAAAAAAWNeExzOsuzvJK0Zs7Z7heHisuTcCP3jE1hVJ3rjEsx5YVc+sqt+oqp9cxjivSrJ9xPqxyzjrBx49sP5XKzgTAAAAAAAAAAAAAAAAAGDdEx7PvlcnuXrE+hOWed6Tk+w6Yv207r52MQdU1QFV9a9Jzkvyp0n+PMnHqurMqtpzsYPMvYF41FuWf76qDlrsOfPmul1GR8tfTHL2Us8DAAAAAAAAAAAAAAAAANhIhMczrrsvS/KiEVvHVNXdlnJWVe2T5Bkjtr49cMeQNyU5csT68Un+cikzJfn9JNcvWNs1o+fcmVOTbB2x/uzuvmEZ5wEAAAAAAAAAAAAAAAAAbBjC483hxUkuXLC2JcnLq6qWcM6fJDl4xPrTu3vUW5VvoaoekOTBY37kxKo6ZLEDdffFSZ4/YutpVXWXxZ5TVfdNcsqIrXcnOWOx5wAAAAAAAAAAAAAAAAAAbFTC402gu69L8vgk1y3YOjrJ8xZzRlWdlOSpI7be0N1vXMI4993J/pYk91nCeUnyx0n+bcHaHknOqqr9dvbLVXXHJGfllm87/nqSJ3R3L3EeAAAAAAAAAAAAAAAAAIANR3i8SXT3BUkel+TGBVvPrqpXVNW2Ub9XVXtV1YuSvHLE9ruTnDTZSZMkSwp9u3t7kuOSfGbB1uFJ3ltVRwz9blX9t+yIlhe+ZfnKJA/v7q8vZRYAAAAAAAAAAAAAAAAAgI1q4RtemWHd/daqOi7JmUn2nrd1SpLHVdXbklyQHdHttiRHZEfQO+qtwacnOam7b1jiGO/byf5NST6wxDPT3d+uqp9L8vbc/I3Jd0tyQVWdk+Rfk3w1yS5J7pTk4UnuMeK4i5Mc090XLnUOAAAAAAAAAAAAAAAAAICNSni8yXT3P1bVPbPjDcZHz9valuSEua9xvpHkGd195jLv//eqOjvJLw78yGu7+6vLPPvSufj42Ul+O8nu87aPnPsa58bs+PtyandfvZwZAAAAAAAAAAAAAAAAAAA2qi3THoC1190XdfdDkhyV5Owk1+zkV25Mcn6Sk5PccbnR8TynJDlnxPqbkjx9JQd39/Xd/ZzseKPxC5J8YRG/dnGSlyT50e5+qugYAAAAAAAAAAAAAAAAANiMvPF4E+vuc5KcU1W7Jzk8yd2SHJBkzyTfS3Jlks8m+Xh3XzXBey9PclRVHZnk3km2Jzm3uy+Y4B1fS3JqklOr6k5J7pHkR5Lsk+SmJN9J8uUkn+juiyd1LwAAAAAAAAAAAAAAAADARiU8Jt39/SQfnvtay3vPyeg3H0/6ni9kcW8+BgAAAAAAAAAAAAAAAADYtLZMewAAAAAAAAAAAAAAAAAAAGD6hMcAAAAAAAAAAAAAAAAAAIDwGAAAAAAAAAAAAAAAAAAAEB4DAAAAAAAAAAAAAAAAAAARHgMAAAAAAAAAAAAAAAAAABEeAwAAAAAAAAAAAAAAAAAAER4DAAAAAAAAAAAAAAAAAAARHgMAAAAAAAAAAAAAAAAAABEeAwAAAAAAAAAAAAAAAAAAER4DAAAAAAAAAAAAAAAAAAARHgMAAAAAAAAAAAAAAAAAABEeAwAAAAAAAAAAAAAAAAAAER4DAAAAAAAAAAAAAAAAAAARHgMAAAAAAAAAAAAAAAAAABEeAwAAAAAAAAAAAAAAAAAAER4DAAAAAAAAAAAAAAAAAAARHgMAAAAAAAAAAAAAAAAAABEeAwAAAAAAAAAAAAAAAAAAER4DAAAAAAAAAAAAAAAAAAARHgMAAAAAAAAAAAAAAAAAABEeAwAAAAAAAAAAAAAAAAAAER4DAAAAAAAAAAAAAAAAAAARHgMAAAAAAAAAAAAAAAAAABEeAwAAAAAAAAAAAAAAAAAAER4DAAAAAAAAAAAAAAAAAAARHgMAAAAAAAAAAAAAAAAAABEeAwAAAAAAAAAAAAAAAAAAER4DAAAAAAAAAAAAAAAAAAARHgMAAAAAAAAAAAAAAAAAABEeAwAAAAAAAAAAAAAAAAAAER4DAAAAAAAAAAAAAAAAAAARHgMAAAAAAAAAAAAAAAAAABEeAwAAAAAAAAAAAAAAAAAAER4DAAAAAAAAAAAAAAAAAAARHgMAAAAAAAAAAAAAAAAAABEeAwAAAAAAAAAAAAAAAAAAER4DAAAAAAAAAAAAAAAAAAARHgMAAAAAAAAAAAAAAAAAABEeAwAAAAAAAAAAAAAAAAAAER4DAAAAAAAAAAAAAAAAAAARHgMAAAAAAAAAAAAAAAAAABEeAwAAAAAAAAAAAAAAAAAAER4DAAAAAAAAAAAAAAAAAAARHgMAAAAAAAAAAAAAAAAAABEeAwAAAAAAAAAAAAAAAAAAER4DAAAAAAAAAAAAAAAAAAARHgMAAAAAAAAAAAAAAAAAABEeAwAAAAAAAAAAAAAAAAAASbZOewAAAFiGbyX5gwXfAwDApPi8CQDAavFZEwCA1eTzJgAAAAArVt097RkAAAAAAAAAAAAAAAAAAIAp2zLtAQAAAAAAAAAAAAAAAAAAgOkTHgMAAAAAAAAAAAAAAAAAAMJjAAAAAAAAAAAAAAAAAABAeAwAAAAAAAAAAAAAAAAAAER4DAAAAAAAAAAAAAAAAAAARHgMAAAAAAAAAAAAAAAAAABEeAwAAAAAAAAAAAAAAAAAAER4DAAAAAAAAAAAAAAAAAAARHgMAAAAAAAAAAAAAAAAAABEeAwAAAAAAAAAAAAAAAAAAER4DAAAAAAAAAAAAAAAAAAARHgMAAAAAAAAAAAAAAAAAABEeAwAAAAAAAAAAAAAAAAAAER4DAAAAAAAAAAAAAAAAAAAJNk67QEAAAAAANZaVe2f5PZJDk1yUJI95r52SfKdJFcluTrJl5J8sru/P6VRAQDYgKrqwCSHJPnhJAcm2Ss7Pm/eKsl12fFZ8ztJLk3yie7+5pRGBQAAAAAAALiZ6u5pzwAAAMtWVXdI8oIkxydJd9dUBwIAYN2pqjsnuWeSI+b+857ZEYAs1g1JLkxyfpLTu/uDk50QAICNrKpul+QBSe6XHZ81D09ymyUe8+0kH05ydpK3dPcVk5wRAACSpKr2TvLRJHeet/yG7n7CdCYCAAAAYD0SHgMAsCFV1bYkz07y9CS7/2BdeAwAwHxVdXCSr0/42AuTPK+7z5jwuQAAbEBV9fkkh03wyOuTnJ7k2d196QTPBQBgk6uq1yc5ccGy8BgAAACAmxEeAwCwoVTV1iQnJfmDJAcu3BceAwAw307C407y+ex4s9xnklyW5Nokt05y2yT3mfvaY+D335nk5O7+ygRHBgBgg9lJeHxlkg9lx1vlLk1yeZI9k+yX5O5JHpjkhwd+96okv9Hdr5/guAAAbFJVdXySM0dsCY8BAAAAuJmt0x4AAAAWq6oekeTPkvz4tGcBAGBD+3ySVyb5u+7+8rgfrKp9kvxakt9Jsm3B9sOTnF9VP9fdl6zKpAAAbETfTfL6JH+X5L3dfdPQD1ZVJTkuyfOT3G3B9r5J/qaqbt3dL12dUQEA2Ayq6vbZ8b+JAgAAAMBOeeMxAADrXlXdI8mLkzxkZz/rjccAAMw34o3Hb0jypHHxx8A5d8+ONxwfMmL780nu292XLXtQAAA2rAVvPP5Mkgcs9bNhVe2d5M1JHjrwI/+ju9+y/CkBANisqmqXJOcmecDAj3jjMQAAAAA3s2XaAwAAwJCqOriqXp3ko1lEdAwAAIvwrqVGx0nS3Z9I8pgkN47YvnOSP17pYAAAzIRzl/MvpOnua5Icn+SrAz/ysqraa0WTAQCwWf1+hqNjAAAAALgF4TEAAOtOVe1RVb+X5HNJnpybf279SpK3TWUwAABmwQeW+4vd/f4kfzOw/eSquudyzwYAYGZ8cLm/2N1XJvlfA9uHJDlluWcDALA5VdUDkvzetOcAAAAAYGMRHgMAsG7UDick+WyS5yXZe27r8iSvSnJkkkOTvHQa8wEAsOF9q7svXuEZpw2sb0nypBWeDQDAxrfs8HjOWUmuHdj7hRWeDQDAJlJV+yb52yS7THsWAAAAADYW4TEAAOvJ/ZOcnh1v77g2yZuSHJfk4O4+pbvP7e6e5oAAAGxoy37b8Q9090eTXDqw/ciVng8AwIb23SSfWskB3f2dJB8Z2L5/Vd16JecDALCpvCLJ7ef+enuST09xFgAAAAA2EOExAADryfYk70xyQpKDuvux3f327r5hynMBADAbVhwez/nQwPodquoOE7oDAICN5yPdfeMEzvnYwPouSe4wgfMBAJhxVfWEJI+dt/TcTO5/HwUAAABgxm2d9gAAAPAD3f2BJI+Y9hwAAMyUy5I8cO6vPzOhM78yZu+HknxxQvcAALAxvCTJ/kkumNB5Xxuzd9CE7gAAYEZV1WFJ/mLe0nlJ/iTJ66YzEQAAAAAbjfAYAAAAAJhZ3X1DkvdO+NirxuwJQQAANpnuPm3CR149Zu82E74LAIAZUlVbk7wxyd5zS1ckeXx331RV0xsMAAAAgA1ly7QHAAAAAADYYLaP2bvVmk0BAMCsumHM3nfXbAoAADai5yX5mXnfn9zdl0xrGAAAAAA2JuExAAAAAMDS7DNm74o1mwIAgFm1bczeZWs2BQAAG0pVHZXkWfOWXtfdZ09rHgAAAAA2LuExAAAAAMDS7D1mT3gMAMBK7Tew3kn+Yy0HAQBgY6iq/ZP87/zX/yf0s0meNr2JAAAAANjIhMcAAAAAAEtz4MB6J/ncWg4CAMBMuvvA+ie7+6o1nQQAgI3iNUluN/fXNyT5pe7+7hTnAQAAAGADEx4DAAAAACzNXQfWP93d3ngMAMCyVVUludfA9hvXchYAADaGqjolyaPmLf1ed39kWvMAAAAAsPEJjwEAAAAAFqmqdk9yx4Ht967lLAAAzKQH5r/eVDfftdnxFjsAAPhPVfXjSV4yb+lfkvzZlMYBAAAAYEYIjwEAAAAAFu9eSXYZ2DtjLQcBAGAm/dbA+rO6+1trOgkAAOtaVe2W5I1J9pxbuizJCd190/SmAgAAAGAWCI8BAAAAABbvmIH1LyQ5Zw3nAABgxlTV45McO2LrjO7+q7WeBwCAde+FSe457/snd/fXpjQLAAAAADNEeAwAAAAAsHiPHFh/aXf3mk4CAMBMqB2ekuT1I7ZfleTxazsRAADrXVU9LMnT5y29qrvfOqVxAAAAAJgxW6c9AAAAAADARlBVP5vk7iO2LkryijUeBwCADaqqtiTZL8ntkhyV5MQkRyz4sUuSPLW737HG4wEAsM5V1YHZ8S+tqbmlTyd5xtQGAgAAAGDmCI8BAAAAABZn6P+899vdfcOaTgIAwIZQVe9K8rBF/vj3k5yb5LVJ3trd16/aYAAAbGSvT3Lw3F9fn+Rx3X3t9MYBAAAAYNYIjwEAAAAAdqKqjkjyCyO2zujuN6/xOAAAzJYbkvxDkr9NckF3XzzleQAAWKeq6mlJHjFv6dTu/tiUxgEAAABgRgmPAQAAAADGqKpKclqSLQu2vpLkV9d+IgAANpCvJblowdqWJPvOfe2SZNckj5r7SlV9Mck7kpzd3eet2aQAAKxrVXV4khfOW3p3kj+f0jgAAAAAzDDhMQAAAADAeL+a5L4L1r6b5LjuvnLtxwEAYKPo7icN7VXVLknunuT+SX45//WZ8w5Jfj3Jr1fVvyV5bnf/0yqPCgDAOlZVeyQ5I8mt5pa+leTE7u7pTQUAAADArFr4hg4AAAAAAOZU1b2TvGTB8k1Jfqm7L5jCSAAAzIjuvrG7/193/3V33y/Jzyb57IIfu3+Sd1fVy6pq17WfEgCAdeLFSX5i3vdP6u5vTGsYAAAAAGab8BgAAAAAYISqum2Ss5PsNm+5kzylu98+nakAAJhV3f2+JEckOX/E9tOSvGPuLckAAGwiVXVskl+Zt/RX3f0P05oHAAAAgNknPAYAAAAAWKCqtiV5V5JD5y13kl/p7ldPZyoAAGZdd1+b5JFJLhqx/bAkL1nbiQAAmKaq+uEkr5239Mkkz5zSOAAAAABsEsJjAAAAAIB5qupWSd6aHW+b+4GbsiM6fuVUhgIAYNPo7quSnDqw/etVdc81HAcAgCmpqkpyepID5pa+n+Rx3X3d9KYCAAAAYDMQHgMAAAAAzKmqPZK8LclR85ZvSPI/RccAAKyV7j4ro996XEmes8bjAAAwHc9McvS875/V3f8xrWEAAAAA2DyExwAAAAAA+c/o+B1JHjpv+dokx3b3mdOZCgCATexdA+vHVNVeazoJAABrqqp+KskfzVv6v9398mnNAwAAAMDmIjwGAAAAADa9qto3O8KO+W8QuTTJkd09FHwAAMBqOndgfdckD1zLQQAAWDtz/5KZM5LsNrd0aZInTm8iAAAAADYb4THw/9u702hLq/pM4M8fiqKYkUlAQVAElYgDimKCaJynSOIUkxjRaBs1Dsuh1ShoRGNim8QhLu04AMa2XaIdW6M20SgaUZGokAgyhEEEFUVBZJLp3x/OZXkpzjl17nTuvVW/31rvqqq997v3c4dPdeupDQAAALBJq6rdkpyU5MGzhs9Jcmh3n7osoQAAILl0zNxBU0sBAMC0vSDJ/rP+vFuSS6uqF/IkeeaI85455r0jl/qDBQAAAGDlUTwGAAAAADZZVbVvkpOT3HvW8MlJHtTd5y9LKAAAGPjZmLldppYCAIBp22a5AwAAAACwaVM8BgAAAAA2SVV1cJKvJ9lv1vBHkjysu8eVPAAAYBpuGDN3u6mlAAAAAAAAADYpiscAAAAAwCanqh6d5KQkt581/Bfd/Yfd/avlSQUAALey3Zi566eWAgAAAAAAANikrFnuAAAAAAAA01RVRyZ5X37996PXJ/mT7v7wsoUCAGDVqartkzx45o//0t2LXQYed6vxTxf5LAAAAAAAAIAkbjwGAAAAADYhVfW6JMfm16Xjnyd5uNIxAADzcOckn555DlmC/Q8YM3fOEpwHAMAK0N1v6O5a7CfJ8SOOPH7Me8dN8UMHAAAAYIVQPAYAAAAANnpVtXlVvTfJMbOG/yvJA7v735YpFgAAG4/DlmDPA8fMfXUJzgMAAAAAAABQPAYAAAAANm5VtS7Jx5M8b9bwN5Mc2t3nLk8qAAA2MktRPH7siPHTuvuiJTgPAAAAAAAAQPEYAAAAANh4VdUOSU5McsSs4c8keWh3X7YsoQAA2Bg9qKoW7efvVfWbSe40Yvq9i3UOAAAAAAAAwPoUjwEAAACAjVJV7Z7ky0kePGv4/Ume2N3XLE8qAAA2UjskOWgxNpopMP/NiOnzkxy7GOcAAAAAAAAADKN4DAAAAABsrD6Y5F7rjT0nyY1V1Uv4HDn9DxUAgBXgsEXa5w1JHjBk/OYkz+7u6xfpHAAAAAAAAIDbUDwGAAAAADZWWy93AAAANilPrKpt5vtyVa2tqrcnOWrEkpd295fnuz8AAAAAAADAJBSPAQAAAAAAAGDhHpbk4qp6b1X9TlVtO8lLVbWuqp6Z5OwkLxmy5KYkL+rudy1iVgAAAAAAAICh1ix3AAAAmK2q1iTZLckeM8/us35/y7P3mPfPTfLDJD+a9dzqz919+RJ+CAAAAADApmvHJM+beW6sqrOS/EeSc5P8PMkvkmyeZLskeyU5KMmhSUaVlM9N8qzuPnlpYwMAAAAAAAAMKB4DALBiVNUfJPnHJJstYJv9Zp5x5/yqu9ct4AwAAAAAgA1Zk+Q3Zp65Oi/J3yX5h+6+YVFTAQAAAAAAAIyheAwAwEqyNgsrHU9qyymcAQAAAABs3E5Pcvck909ycJJ7JNk/g5uM5/r3nNckOS3JKUk+meSr3X3zYgUFAAAAAAAAmFR193JnAAAAAAAAAICNQlVtmeSOSW6fZLckuyTZKsm6DP5TxJuT/GLmuSLJhUm+1903LUNcAAAAAAAAgFtRPAYAAAAAAAAAAAAAAAAAALLZcgcAAAAAAAAAAAAAAAAAAACWn+IxAAAAAAAAAAAAAAAAAACgeAwAAAAAAAAAAAAAAAAAACgeAwAAAAAAAAAAAAAAAAAAUTwGAAAAAAAAAAAAAAAAAACieAwAAAAAAAAAAAAAAAAAAETxGAAAAAAAAAAAAAAAAAAAiOIxAAAAAAAAAAAAAAAAAAAQxWMAAAAAAAAAAAAAAAAAACCKxwAAAAAAAAAAAAAAAAAAQBSPAQAAAAAAAAAAAAAAAACAKB4DAAAAAAAAAAAAAAAAAABRPAYAAAAAAAAAAAAAAAAAAKJ4DAAAAAAAAAAAAAAAAAAARPEYAAAAAAAAAAAAAAAAAACI4jEAAAAAAAAAAAAAAAAAABDFYwAAAAAAAAAAAAAAAAAAIIrHAAAAAAAAAAAAAAAAAABAFI8BAAAAAAAAAAAAAAAAAIAoHgMAAAAAAAAAAAAAAAAAAFE8BgAAAAAAAAAAAAAAAAAAongMAAAAAAAAAAAAAAAAAABE8RgAAAAAAAAAAAAAAAAAAIjiMQAAAAAAAAAAAAAAAAAAEMVjAAAAAAAAAAAAAAAAAAAgiscAAAAAAAAAAAAAAAAAAEAUjwEAAAAAAAAAAAAAAAAAgCgeAwAAAAAAAAAAAAAAAAAAUTwGAAAAAAAAAAAAAAAAAACieAwAAAAAAAAAAAAAAAAAACRZs9wBAAAAAAAANlZV9ZAkD5nDKyd190lLkQUAAAAAAAAAADZE8RgAAAAAAGDpPCTJ6+f4zkmLHwMAAAAAAAAAADZM8RgAAAAAANhkVNV2SfZNsmeSPZJsm2SrJFsmuTnJjUmuTXJlkiuS/PiWp7uvm8eR707y9ST7r/fsnWSzBXwoAAAAAAAAAACw6BSPAQAAAACAjVZV3T3JI5McnuReGZSOa557XZHkvCTnzDxnJzk9ydndfdOwd7r7p0lOnHlm73VckmfOJwcAAAAAAAAAACwVxWMAAAAAAGCjUlV3zKDUe2SS/RZx6x2THDzzzHZtVX03yeNmisYAAAAAAAAAALAqKR4DAAAAAAAbharaK8lrkzw7yRZjll6a5FtJzk9ycZJfJLk2yboMysU7JLl9BjckHzgzPs5WSe6fZJskiscAAAAAAAAAAKxaiscAAAAAAMCqVlWbJXlxkjcn2XrEstOTHJ/kn7v73DnsvSbJ3ZM8JsmTMigY14ICAwAAAAAAAADACqV4DAAAAAAArFpVdbskH0/y2yOWnJbk5d39xfns3903JvnPmeetM7cqvyDJnyXZdj57AgAAAAAAAADASrXZcgcAAAAAAACYj6raJ8nXM7x03EnelOTg+ZaOh+nuH3T3a5Lsk+S9i7UvAAAAAAAAAACsBIrHAAAAAADAqlNVuyX5fJIDhkzflOSPuvuo7r55Kc7v7p8l+R9LsTcAAAAAAAAAACwXxWMAAAAAAGBVqaq1ST6TZL8RS57f3R+ZQpQLklw1hXOYh6p6e1V1VfVyZwEAAAAAAAAAWC0UjwEAAAAAgNXmzUnuN2LuuO5+3zRCdHcnOXMaZzE3VbVzkucudw4AAAAAAAAAgNVG8RgAAAAAAFg1quqQJC8fMX1ZkpdNMU6SfHfK5zGZFyfZerlDAAAAAAAAAACsNorHAAAAAADAavK2JDVi7pjuvnyaYaJ4vOJU1bZJ/my5cwAAAAAAAAAArEZrljsAAAAAAADAJKrqUUkOGzF9eZIPTDHOLU5PcvXM729ehvO5rf+WZKflDgEAAAAAAAAAsBopHgMAAAAAAKvFi8bMHd/dV4+ZXxLd/cUk2077XIarqrVJXrbcOQAAAAAAAAAAVqvNljsAAAAAAADAhlTV3kkeM2bJx6aVhRXtGUnusNwhAAAAAAAAAABWKzceAwAAAAAAq8ERGf0fqv4kyTemF2X5VNWOSV464fJPdvdpG9jvQUkeOeF+F3b3cROuXf+c2yV5UpJDkxycZLckt0uyeZJrk1yV5IdJLklyTpIzZp7vTXqTdVVtmeSV88k3H1V1YJLHZ/Ax7Z9kzyTbJLk+yc+T/DTJt5J8Pclnu/vHc9h71yRbTrD0Z9197Zh9dsng8/7wJPdPcnZ3P2rSHAAAAAAAAADApkfxGAAAAAAAWA0eP2buq93dU0uyvHZM8voJ116Y5LQNrHnQHPb7cpLjJlybJKmq3ZO8JcnvJ1k3YtkWSbbPoLh7v/Xmuqr+uLs/PGL/7ZI8Nsnvzvy63Yh1474/vt/d+4yZX3+vJyZ53ZCst1iTZOskd0xynyTPSXJ9VZ2Q5C+7+8wJjjkhyeETrHtukvcPyfiIJC9M8rjc+ueBF06wJwAAAAAAAACwCVM8BgAAAAAAVrSqWpPksDFLvjatLCvAJRmUSQ+Zee6fZJcF7PehJBckOSjJPWd+3Tejb5eeWFUdkeTYDMrS67s+yc+S3JRkh4woDCepjCgsV9VrkxydZO0Co06kqnZOcnwGn/9hOoPbt9dmcJvzbGuT/GGSJ1XVi7r7NmXh9ZyQ5MYk9x2y12y3+tpX1SOTHJPB9wYAAAAAAAAAwJwpHgMAAAAAACvdgRl9W26STHKD7Eahu29I8tmZJ0lSVf+W5Lfmud9Pknxi5rllv4cn+fxCcs6Ujk/IbX8WdUKSdyT55szHcsv63TMoyz41yVMyWZl4+yQ/mPXnNUnuNGLteWP2uXhDB1XVPkm+mEEpe32fTvL3SU7q7utn1m+f5OlJXrNepnVJ3ldVB3T3K0ed193vTvLumb3unORFSV46ZOkuM2vun+RvM8/vAwAAAAAAAACAWygeAwAAAAAAK919NjB/zlRSrFw3LfJ+Ny7k5ZkS8fG57c+hnt/d7x32Tnf/OMmnknyqqv4yyYlJ7jjunO5+VZJXzTp3nwxubx62dr9J86+vqnZK8q+5ben4xiR/2t0fGHLelUn+Z1X9UwYl8YPXW/KKqjqzu4/d0PndfX5VnT5ieq+qensGxeQF31INAAAAAAAAAOAfIAAAAAAAACvdXcfMdZKLphWEibw5g9uIZ/voqNLx+rr7zCT/sOip5u+4JHceMv6KYaXj2WZulH5qkmuGTL+9qnZdYLanJnlJBj/zuzLJ55K8JckzMrj9+O5JXrbAMwAAAAAAAACATYjiMQAAAAAAsNKNu/n2iu6+YWpJGKuq1iV5ypCp98xxq2OT3LzwRAtTVU9M8oQhU1/p7ndMskd3n5/knUOmtk/y6gXES5JfJnlbkgcm2am7H9vdf97dH+7uk7v7rCTvilvBAQAAAAAAAIAJKR4DAAAAAAAr3R3GzP10aimYxGFJthsy/p25bNLdFyc5cVESLczrR4y/aY77fHDE+LOraqs57jXbt7v7ld19SnffNGxBd9+Y5LULOAMAAAAAAAAA2IQoHgMAAAAAACvdDmPmrp5aCiZxpxHjQ0uxG3B0kqOS/Pv848xfVR2a5D5Dpn6c5Atz2au7z01ywZCpHZM8Ys7h5qi7P57klKU+BwAAAAAAAABY/dYsdwAAAAAAAIANGHcj7PVTS8Ekdh0xfpck/zmXjbr737NMpeMZTxsx/i/d3fPY79Qk+w4Zf0SST81jvznp7gcu9RkAAAAAAAAAwOrnxmMAAAAAAGClWzdmTvF4ZblqxPhzpppicTxqxPip89zvnBHj953nfgAAAAAAAAAAi07xGAAAAAAAWOnG3S7rZx0ry49HjL+wqp4w1SQLUFU7J7nbiOlz57ntj0aM7z/P/QAAAAAAAAAAFp1/jAMAAAAAAKx0146Z23JqKZjEyRleFN88yf+pqqOqajV8zQ4cM/f9ee75kxHjO1fV2nnuCQAAAAAAAACwqBSPAQAAAACAle7qMXNbTS0FG9TdP0zytRHTa5K8Mcm5VfXyqtp1esnm7K5j5n45zz2vGzFeSbaf554AAAAAAAAAAItK8RgAAAAAAFjpfjxmbiWXVzdVr87wW49vsVeStyW5pKo+U1XPqKqVVrzdY8zcNfPcc1TxOEnWzXNPAAAAAAAAAIBFpXgMAAAAAACsdN8fM7dLVW0+tSRsUHd/NcmbJli6RZLHJvlQkkur6iNVdfiShpvczmPmfl5VPdcnyefH7LlmkfMDAAAAAAAAAMyL4jEAAAAAALDSnTdmbrMke08rCJPp7qOTHJPxNx/Pti7J05OcVFVnVdXzlrlQvtUyng0AAAAAAAAAsGz87+kAAAAAAMBK960NzN89yQXTCMLkuvvoqvpSkr9Ncu85vHpAkvcmeVFVPa27z1iKfBuwxYjxTnL+Epx3wxLsCQAAAAAAAAAwZ4rHAAAAAADASvftDIqZo8qgByX57PTiMKnu/lJV3TfJI5M8M8kRmfw24QOTnFJVT+juLy1RxFGuGzF+Q3fvN9UkAAAAAAAAAABTtNlyBwAAAAAAABinu69LcvKYJYdPKwtz1wMndvcfJNk9yZ8k+X+Z7JbfbZL8U1UdsJQZh7hqxPjaqqqpJgEAAAAAAAAAmCLFYwAAAAAAYDX45Ji536qqLacVhPnr7iu7+4Pd/ZgkuyU5MslXNvDaDknevdTZ1vPLMXNbTy0FAAAAAAAAAMCUKR4DAAAAAACrwceT3Dhibtskj55illupqjtX1eOr6rDlyrAadfcV3X18dx+e5JAkXxuz/GFV9YApRUuSK8fM7Ty1FAAAAAAAAAAAU6Z4DAAAAAAArHjdfUnG33r8jClFGealST6d5F3LmGFV6+5Tkzw4yTvHLDtiOmmSJOePmdt7aikAAAAAAAAAAKZM8RgAAAAAAFgt/mbM3BFVte/UktzavZbp3I1Kd9+UQYn7kyOW3HdqYZIzxszddWopAAAAAAAAAACmTPEYAAAAAABYFbr7G0k+MWJ68ySvnWKc2RSPF0l3d5LXjZjebYpRLkxyzYi5h0wvBgAAAAAAAADAdCkeAwAAAAAAq8krk1w9Yu5ZVXXwNMNU1T5JdpjmmUPcNGJ8zVRTJKmqO1TVX1XVPee7R3efkeQHQ6a2nn+yOWfoJN8ZMf3wqtp8WlkAAAAAAAAAAKZJ8RgAAAAAAFg1uvuCJC8ZMb1Zkn+sqqkVVLMybju+csT4TlNNMbBHklclefkC97lkyNhlC9xzrj43YnzPJE+fZhAAAAAAAAAAgGlRPAYAAAAAAFaV7v5AkuNGTN89yXFVNa2fgdx7SueMc/mI8XnfOrwInlxV2y7g/WHl8WG3IM/Woyaqast5ZPjImD2PnnLBHQAAAAAAAABgKhSPAQAAAACA1ei5ST4zYu4pSY6tqi2mkGMl3Hj8XyPGH1tV66aa5Ne2SfK0+bxYVWuT3GXI1Jc28OpVY+b2nmuOmdu1Pz1i+q5J/tcUC+4AAAAAAAAAAFPhH0MAAAAAAACrTnffmOTJST42YskfJ/l8Ve25FOdX1bZV9ddJfmcp9p+jr40Y3ynJa6YZZD3Pmud7T8iguDzbDRldNL/FFTPrhnn8PLO8NsmNI+aOSHJCVe08z70BAAAAAAAAAFYcxWMAAAAAAGBV6u7rkvx+kmOS3DRkyeFJzqyqFy/Wzb9VtUtVvSbJeUn+e5LNF2PfBfpakktHzB1VVUdX1VYb2qSq9qiqJyd5/iLl+s2qenVV1aQvVNVuSd46ZOp93X3xuHe7+6Ykp4+Yfl1V7Tdpjll7fjfJm8Ys+b0kZ1TVn1bV9pPsWQN7VtWjquqpc80EAAAAAAAAALCU1ix3AAAAAAAAgPnq7k5ydFV9LsmxSQ5Yb8kOSd6R5M+r6tgkH+3uUeXUoarqgAxKzE9M8vAkaxccfBF19/VV9fcZFLDXV0n+IslLquqkJBcmuTrJugxuFb59kj2T3C3J7ZYg3luS/F5VvTHJZ2a+XkNV1cOSvCfJndebOjfJ0ROe98kk9xsyvlOSU6vqnUm+MTO2Y5Kdk+yf5B5Jfre7fznk3WNm5keVhG8/k/tdVfXtJGdnUAS/NoPvlW1mzr/lc71PkluK4Cdn9K3dAAAAAAAAAABTV2P+fQcAAAAAAMCqUVVrkjw3yVFJ9hiz9LIk38yg0HpRkl8m+VUGJdF1SXbLoCC6f5LfyOSF3NO7+95j8u2WQTH6bklemOReQ5adlOT4JGclObu7L5/k4JkbnU9JctCEWUc5J8n/TvL6IXMXJXljBp+7M2duGF4/x/2SnDpi758m+UKS72XwNbgug2L4AUkemtuWxpPkgiS/3d0XThJ+5nN8VuZXor5dd18xYt81Sd6ewddtMb2nu18warKq9kpySJI/SnLEkCU/SPJ3GXzMZyX5fnffvMgZAQAAAAAAAIBNiOIxAAAAAACwUamqtUmelOR5SQ5LstkSHndtBkXbL2dwo+8p62V5cpKXZ1CqnU8Z9icZ3KD7uu7+yriFVbVPkn9OcuAcz/hlkv+b5EMZFIO3mRkb5+ok307y6O6+ZlaGeyU5bY7nD3NzkvcleUV3XzWXF6vqiCQnJFkzh9f+I8kDuvu6Dez9mAyKvsNK0pPqDD7Pf93d/zrinLcmeUaS3ee497UZFOo/0N3vXEBGAAAAAAAAAGATpXgMAAAAAABstKpq1ySPS/KwJAdnUBidTxH5uiSXJDkvyZkZFFW/k+S73X3jmPPfkOG3B8/Vs7r7uA0tqqptk7wqg5t5xxWdz0rylSQnJvns+oXbqvpFku0nyHWbW4Kr6h5JHpnk0Aw+5/sk2XyCvZJBafajSd7f3RdN+M5tVNVDk7wjyT3HLLskg6L2x5J8qSf8oVlVbZbk8UmensHHudMEr12ewY3UX0jyiQ3d4FxVJyU5fJI8Ixzf3Ucu4H0AAAAAAAAAYBOleAwAAAAAAGwyqmrrJPsm2SvJHZJsm2SrJFsk+VWSazK4NfaaJFdmUE69uLsvW5bA81RVa5LcN4Pi7c4Z3P57eZLzk3y7u386xSxrk+yX5C4ZlKG3T7JdBmXk65JcluSiJGd096WLfPY9kxySZNckNyX5eZIfJjmtu3+0SGfcJcn+Se6YZMck62bOuuX753tJzp602AwAAAAAAAAAsJwUjwEAAAAAAAAAAAAAAAAAgGy23AEAAAAAAAAAAAAAAAAAAIDlp3gMAAAAAAAAAAAAAAAAAAAoHgMAAAAAAAAAAAAAAAAAAIrHAAAAAAAAAAAAAAAAAABAFI8BAAAAAAAAAAAAAAAAAIAoHgMAAAAAAAAAAAAAAAAAAFE8BgAAAAAAAAAAAAAAAAAAongMAAAAAAAAAAAAAAAAAABE8RgAAAAAAAAAAAAAAAAAAIjiMQAAAAAAAAAAAAAAAAAAEMVjAAAAAAAAAAAAAAAAAAAgiscAAAAAAAAAAAAAAAAAAEAUjwEAAAAAAAAAAAAAAAAAgCgeAwAAAAAAAAAAAAAAAAAAUTwGAAAAAAAAAAAAAAAAAACieAwAAAAAAAAAAAAAAAAAAETxGAAAAAAAAAAAAAAAAAAAiOIxAAAAAAAAAAAAAAAAAAAQxWMAAAAAAAAAAAAAAAAAACCKxwAAAAAAAAAAAAAAAAAAQBSPAQAAAAAAAAAAAAAAAACAKB4DAAAAAAAAAAAAAAAAAABRPAYAAAAAAAAAAAAAAAAAAKJ4DAAAAAAAAAAAAAAAAAAARPEYAAAAAAAAAAAAAAAAAACI4jEAAAAAAAAAAAAAAAAAABDFYwAAAAAAAAAAAAAAAAAAIIrHAAAAAAAAAAAAAAAAAABAFI8BAAAAAAAAAAAAAAAAAIAoHgMAAAAAAAAAAAAAAAAAAFE8BgAAAAAAAAAAAAAAAAAAongMAAAAAAAAAAAAAAAAAABE8RgAAAAAAAAAAAAAAAAAAIjiMQAAAAAAAAAAAAAAAAAAEMVjAAAAAAAAAAAAAAAAAAAgiscAAAAAAAAAAAAAAAAAAEAUjwEAAAAAAAAAAAAAAAAAgCgeAwAAAAAAAAAAAAAAAAAAUTwGAAAAAAAAAAAAAAAAAACieAwAAAAAAAAAAAAAAAAAAETxGAAAAAAAAAAAAAAAAAAAiOIxAAAAAAAAAAAAAAAAAAAQxWMAAAAAAAAAAAAAAAAAACCKxwAAAAAAAAAAAAAAAAAAQJL/Dwx8prn//vH9AAAAAElFTkSuQmCC;" vertex="1" parent="1">
          <mxGeometry x="-1660" y="-950" width="1647.23" height="850" as="geometry" />
        </mxCell>
      </root>
    </mxGraphModel>
  </diagram>
</mxfile>
